<?xml version="1.0" encoding="UTF-8"?>
<svg width="734px" height="236px" viewBox="0 0 734 236" version="1.1" xmlns="http://www.w3.org/2000/svg" xmlns:xlink="http://www.w3.org/1999/xlink">
    <!-- Generator: Sketch 61.2 (89653) - https://sketch.com -->
    <title>logo</title>
    <desc>Created with Sketch.</desc>
    <defs>
        <polygon id="path-1" points="21.2263009 0.232302847 0.0376730381 21.4349692 21.2263009 42.6345148 42.4180479 21.4349692"></polygon>
        <linearGradient x1="49.998528%" y1="100.003165%" x2="49.998528%" y2="0.00352542872%" id="linearGradient-3">
            <stop stop-color="#43BA86" offset="0%"></stop>
            <stop stop-color="#24959E" offset="89.417445%"></stop>
            <stop stop-color="#24959E" offset="100%"></stop>
        </linearGradient>
        <linearGradient x1="49.998528%" y1="100.003165%" x2="49.998528%" y2="0.00352542872%" id="linearGradient-4">
            <stop stop-color="#43BA86" offset="0%"></stop>
            <stop stop-color="#24959E" offset="89.417445%"></stop>
            <stop stop-color="#24959E" offset="100%"></stop>
        </linearGradient>
        <polygon id="path-5" points="21.3574027 0.0858957255 0.15064946 21.2938145 21.3574027 42.5017333 42.5672778 21.2938145"></polygon>
        <linearGradient x1="49.9980864%" y1="100.003607%" x2="49.9980864%" y2="-0.00339319888%" id="linearGradient-7">
            <stop stop-color="#43BA86" offset="0%"></stop>
            <stop stop-color="#24959E" offset="89.417445%"></stop>
            <stop stop-color="#24959E" offset="100%"></stop>
        </linearGradient>
        <linearGradient x1="49.9980864%" y1="100.003607%" x2="49.9980864%" y2="-0.00339319888%" id="linearGradient-8">
            <stop stop-color="#43BA86" offset="0%"></stop>
            <stop stop-color="#24959E" offset="89.417445%"></stop>
            <stop stop-color="#24959E" offset="100%"></stop>
        </linearGradient>
        <polygon id="path-9" points="21.4531636 0 0.233526049 21.2079188 21.4531636 42.4189596 42.6696778 21.2079188"></polygon>
        <linearGradient x1="50.0021344%" y1="99.9995584%" x2="50.0021344%" y2="-8.09597407e-05%" id="linearGradient-11">
            <stop stop-color="#43BA86" offset="0%"></stop>
            <stop stop-color="#24959E" offset="89.417445%"></stop>
            <stop stop-color="#24959E" offset="100%"></stop>
        </linearGradient>
        <linearGradient x1="50.0021344%" y1="99.9995584%" x2="50.0021344%" y2="-8.09597407e-05%" id="linearGradient-12">
            <stop stop-color="#43BA86" offset="0%"></stop>
            <stop stop-color="#24959E" offset="89.417445%"></stop>
            <stop stop-color="#24959E" offset="100%"></stop>
        </linearGradient>
        <polygon id="path-13" points="21.4531636 0.168669425 0.233526049 21.3797102 21.4531636 42.587629 42.6696778 21.3797102"></polygon>
        <linearGradient x1="50.0021344%" y1="100%" x2="50.0021344%" y2="0.000360638846%" id="linearGradient-15">
            <stop stop-color="#43BA86" offset="0%"></stop>
            <stop stop-color="#24959E" offset="89.417445%"></stop>
            <stop stop-color="#24959E" offset="100%"></stop>
        </linearGradient>
        <linearGradient x1="50.0021344%" y1="100%" x2="50.0021344%" y2="0.000360638846%" id="linearGradient-16">
            <stop stop-color="#43BA86" offset="0%"></stop>
            <stop stop-color="#24959E" offset="89.417445%"></stop>
            <stop stop-color="#24959E" offset="100%"></stop>
        </linearGradient>
        <polygon id="path-17" points="21.2263009 0.253027154 0.0376730381 21.4525727 21.2263009 42.6552391 42.4180479 21.4525727"></polygon>
        <linearGradient x1="49.998528%" y1="99.9963936%" x2="49.998528%" y2="-0.00324574961%" id="linearGradient-19">
            <stop stop-color="#43BA86" offset="0%"></stop>
            <stop stop-color="#24959E" offset="89.417445%"></stop>
            <stop stop-color="#24959E" offset="100%"></stop>
        </linearGradient>
        <linearGradient x1="49.998528%" y1="99.9963936%" x2="49.998528%" y2="-0.00324574961%" id="linearGradient-20">
            <stop stop-color="#43BA86" offset="0%"></stop>
            <stop stop-color="#24959E" offset="89.417445%"></stop>
            <stop stop-color="#24959E" offset="100%"></stop>
        </linearGradient>
        <polygon id="path-21" points="21.393859 0.232302847 0.205231206 21.4349692 21.393859 42.6345148 42.585606 21.4349692"></polygon>
        <linearGradient x1="49.998896%" y1="100.003165%" x2="49.998896%" y2="0.00352542872%" id="linearGradient-23">
            <stop stop-color="#85C55B" offset="0%"></stop>
            <stop stop-color="#85C55B" offset="19.378895%"></stop>
            <stop stop-color="#2B997C" offset="100%"></stop>
        </linearGradient>
        <linearGradient x1="49.998896%" y1="100.003165%" x2="49.998896%" y2="0.00352542872%" id="linearGradient-24">
            <stop stop-color="#85C55B" offset="0%"></stop>
            <stop stop-color="#85C55B" offset="19.378895%"></stop>
            <stop stop-color="#2B997C" offset="100%"></stop>
        </linearGradient>
        <polygon id="path-25" points="21.4703016 0 0.250664106 21.2079188 21.4703016 42.4189596 42.6868159 21.2079188"></polygon>
        <linearGradient x1="50.0027232%" y1="99.9995584%" x2="50.0027232%" y2="-8.09597407e-05%" id="linearGradient-27">
            <stop stop-color="#85C55B" offset="0%"></stop>
            <stop stop-color="#85C55B" offset="19.378895%"></stop>
            <stop stop-color="#2B997C" offset="100%"></stop>
        </linearGradient>
        <linearGradient x1="50.0027232%" y1="99.9995584%" x2="50.0027232%" y2="-8.09597407e-05%" id="linearGradient-28">
            <stop stop-color="#85C55B" offset="0%"></stop>
            <stop stop-color="#85C55B" offset="19.378895%"></stop>
            <stop stop-color="#2B997C" offset="100%"></stop>
        </linearGradient>
        <polygon id="path-29" points="21.2630267 0.0858957255 0.0562734169 21.2938145 21.2630267 42.5017333 42.4729018 21.2938145"></polygon>
        <linearGradient x1="49.9993376%" y1="100.003607%" x2="49.9993376%" y2="-0.00339319888%" id="linearGradient-31">
            <stop stop-color="#85C55B" offset="0%"></stop>
            <stop stop-color="#85C55B" offset="19.378895%"></stop>
            <stop stop-color="#2B997C" offset="100%"></stop>
        </linearGradient>
        <linearGradient x1="49.9993376%" y1="100.003607%" x2="49.9993376%" y2="-0.00339319888%" id="linearGradient-32">
            <stop stop-color="#85C55B" offset="0%"></stop>
            <stop stop-color="#85C55B" offset="19.378895%"></stop>
            <stop stop-color="#2B997C" offset="100%"></stop>
        </linearGradient>
        <polygon id="path-33" points="21.4703016 0.168669425 0.250664106 21.3797102 21.4703016 42.587629 42.6868159 21.3797102"></polygon>
        <linearGradient x1="50.0027232%" y1="100%" x2="50.0027232%" y2="0.000360638846%" id="linearGradient-35">
            <stop stop-color="#85C55B" offset="0%"></stop>
            <stop stop-color="#85C55B" offset="19.378895%"></stop>
            <stop stop-color="#2B997C" offset="100%"></stop>
        </linearGradient>
        <linearGradient x1="50.0027232%" y1="100%" x2="50.0027232%" y2="0.000360638846%" id="linearGradient-36">
            <stop stop-color="#85C55B" offset="0%"></stop>
            <stop stop-color="#85C55B" offset="19.378895%"></stop>
            <stop stop-color="#2B997C" offset="100%"></stop>
        </linearGradient>
        <polygon id="path-37" points="21.393859 0.253027154 0.205231206 21.4525727 21.393859 42.6552391 42.585606 21.4525727"></polygon>
        <linearGradient x1="49.998896%" y1="99.9963936%" x2="49.998896%" y2="-0.00324574961%" id="linearGradient-39">
            <stop stop-color="#85C55B" offset="0%"></stop>
            <stop stop-color="#85C55B" offset="19.378895%"></stop>
            <stop stop-color="#2B997C" offset="100%"></stop>
        </linearGradient>
        <linearGradient x1="49.998896%" y1="99.9963936%" x2="49.998896%" y2="-0.00324574961%" id="linearGradient-40">
            <stop stop-color="#85C55B" offset="0%"></stop>
            <stop stop-color="#85C55B" offset="19.378895%"></stop>
            <stop stop-color="#2B997C" offset="100%"></stop>
        </linearGradient>
        <polygon id="path-41" points="21.3116395 0 0.119892529 21.2079188 21.3116395 42.4189596 42.5002673 21.2079188"></polygon>
        <linearGradient x1="50.0022816%" y1="0%" x2="50.0022816%" y2="99.9996394%" id="linearGradient-43">
            <stop stop-color="#0C3D4D" offset="0%"></stop>
            <stop stop-color="#244F5A" offset="100%"></stop>
        </linearGradient>
        <linearGradient x1="50.0022816%" y1="0%" x2="50.0022816%" y2="99.9996394%" id="linearGradient-44">
            <stop stop-color="#0C3D4D" offset="0%"></stop>
            <stop stop-color="#244F5A" offset="100%"></stop>
        </linearGradient>
        <polygon id="path-45" points="21.393859 0.0858957255 0.205231206 21.2938145 21.393859 42.5017333 42.585606 21.2938145"></polygon>
        <linearGradient x1="49.998896%" y1="-0.00360665391%" x2="49.998896%" y2="100.003393%" id="linearGradient-47">
            <stop stop-color="#0C3D4D" offset="0%"></stop>
            <stop stop-color="#244F5A" offset="100%"></stop>
        </linearGradient>
        <linearGradient x1="49.998896%" y1="-0.00360665391%" x2="49.998896%" y2="100.003393%" id="linearGradient-48">
            <stop stop-color="#0C3D4D" offset="0%"></stop>
            <stop stop-color="#244F5A" offset="100%"></stop>
        </linearGradient>
        <polygon id="path-49" points="21.2263009 0.0858957255 0.0376730381 21.2938145 21.2263009 42.5017333 42.4180479 21.2938145"></polygon>
        <linearGradient x1="49.998528%" y1="-0.00360665391%" x2="49.998528%" y2="100.003393%" id="linearGradient-51">
            <stop stop-color="#0C3D4D" offset="0%"></stop>
            <stop stop-color="#244F5A" offset="100%"></stop>
        </linearGradient>
        <linearGradient x1="49.998528%" y1="-0.00360665391%" x2="49.998528%" y2="100.003393%" id="linearGradient-52">
            <stop stop-color="#0C3D4D" offset="0%"></stop>
            <stop stop-color="#244F5A" offset="100%"></stop>
        </linearGradient>
        <polygon id="path-53" points="21.3116395 0.168669425 0.119892529 21.3797102 21.3116395 42.587629 42.5002673 21.3797102"></polygon>
        <linearGradient x1="50.0022816%" y1="0.000441598587%" x2="50.0022816%" y2="100.000081%" id="linearGradient-55">
            <stop stop-color="#0C3D4D" offset="0%"></stop>
            <stop stop-color="#244F5A" offset="100%"></stop>
        </linearGradient>
        <linearGradient x1="50.0022816%" y1="0.000441598587%" x2="50.0022816%" y2="100.000081%" id="linearGradient-56">
            <stop stop-color="#0C3D4D" offset="0%"></stop>
            <stop stop-color="#244F5A" offset="100%"></stop>
        </linearGradient>
    </defs>
    <g id="05_Services" stroke="none" stroke-width="1" fill="none" fill-rule="evenodd">
        <g id="Artboard" transform="translate(-139.000000, -218.000000)">
            <g id="logo" transform="translate(139.000000, 218.000000)">
                <rect id="Background" fill="#124151" fill-rule="nonzero" x="0" y="0" width="734" height="236"></rect>
                <g id="Logo-white-text" transform="translate(29.000000, 53.000000)">
                    <g id="Text" transform="translate(203.000000, 43.000000)" fill="#FEFEFE" fill-rule="nonzero">
                        <path d="M12.2265847,10.0609308 L12.2265847,25.6755285 C12.2265847,35.8266968 9.39188613,41.082461 0.246192028,44.9884009 C-0.00169827726,45.0922336 -0.0512763384,44.4661838 0.0478797839,44.4142675 C6.8575723,41.2931802 8.34783049,37.0238261 8.34783049,25.6755285 L8.34783049,10.0609308 C8.34783049,2.04443962 8.09994018,2.09635594 3.67582732,1.57719271 C3.57667119,1.57719271 3.42502065,0.951142921 3.72540538,1.00305924 C5.7639386,1.26569476 8.00078406,1.36647351 10.8325663,1.36647351 C12.8740158,1.36647351 15.3091735,1.21377844 16.8490098,1.00305924 C17.0969001,0.951142921 16.997744,1.57719271 16.8490098,1.57719271 C12.2761627,1.99252329 12.2265847,2.35899146 12.2265847,10.0609308" id="Fill-48"></path>
                        <path d="M69.8212918,9.49095178 L69.8212918,22.3480673 C69.8212918,29.239795 65.3589227,35 56.5817257,35 C49.0390573,35 42.9296464,30.1661349 42.9296464,21.9889974 L42.9296464,9.95261305 C42.9296464,2.031954 42.7248954,2.0832497 38.1571397,1.57029273 C38.0035764,1.57029273 37.8981898,0.951726976 38.1571397,1.00302267 C40.3130481,1.26251855 42.6225198,1.36510994 45.495057,1.36510994 C47.6509654,1.36510994 50.1681993,1.21122285 51.7038324,1.00302267 C52.01397,0.951726976 51.8604067,1.57029273 51.7580312,1.57029273 C46.9855244,1.9806583 46.9313256,2.34274557 46.9313256,9.95261305 L46.9313256,20.9600661 C46.9313256,29.2910907 52.6282233,32.8908416 57.864431,32.8908416 C64.7416584,32.8908416 68.3338354,29.0346122 68.3338354,21.8320929 L68.3338354,9.49095178 C68.3338354,2.80440684 67.8731455,2.0832497 63.3053898,1.57029273 C63.1488155,1.57029273 63.0464399,0.951726976 63.3565776,1.00302267 C65.4612982,1.26251855 66.7440035,1.36510994 69.6677285,1.36510994 C71.7694381,1.36510994 73.2629165,1.21122285 74.7985496,1.00302267 C75.1086873,0.951726976 75.0063117,1.57029273 74.8527484,1.57029273 C70.0772306,1.9806583 69.8212918,3.11218103 69.8212918,9.49095178" id="Fill-50"></path>
                        <path d="M100.401278,18.1274813 C101.240952,18.1784738 101.926275,18.1784738 102.556031,18.1784738 C110.344628,18.1784738 113.079744,15.3168946 113.079744,10.9705337 C113.079744,3.86457874 108.399794,2.07384208 103.241353,2.07384208 C102.398592,2.07384208 101.768836,2.12483458 100.873595,2.17582708 C100.558717,3.19867667 100.401278,5.60132333 100.401278,9.48875165 L100.401278,18.1274813 Z M100.401278,25.3354213 C100.401278,32.9033083 100.453758,33.2602558 105.346713,33.6172034 C105.451672,33.6681959 105.609111,34.2831054 105.294234,34.2321129 C103.71367,34.0281429 101.135993,33.8751654 98.9256739,33.8751654 C95.9281599,33.8751654 93.5604016,33.9771504 91.402562,34.2321129 C91.1401637,34.2831054 91.245123,33.6681959 91.3500823,33.6172034 C96.0886858,33.1582708 96.2955174,33.2092633 96.2955174,25.3354213 L96.2955174,9.94768416 C96.2955174,4.01755624 96.1380785,2.22681959 93.1374774,2.22681959 C92.5602013,2.22681959 91.9304455,2.32880459 91.1957304,2.43378915 C91.0352044,2.43378915 90.8777655,1.92086458 91.1401637,1.81887958 C93.2455237,1.1529775 98.2959181,1 103.926676,1 C111.292349,1 117.290464,3.19867667 117.290464,8.77185708 C117.290464,11.6334363 115.503069,15.7758271 110.134709,17.9235112 C112.869825,25.3864138 121.02578,34.3850904 126.866456,34.3850904 C126.971415,34.3850904 127.128854,35 126.813976,35 C114.922705,35 108.97707,26.9731804 106.714271,18.8923688 C105.609111,19.1503308 103.71367,19.2523158 102.611597,19.2523158 C101.978755,19.2523158 101.768836,19.2523158 100.401278,19.1503308 L100.401278,25.3354213 Z" id="Fill-52"></path>
                        <path d="M150.582561,33.6414837 C147.631922,33.6414837 145.306625,33.7430588 143.18168,33.9969966 C142.872045,34.0477842 143.029898,33.4383334 143.133109,33.3875459 C147.738169,32.9274703 147.993163,32.9782579 147.993163,25.1390484 L147.993163,9.86394236 C147.993163,2.02174536 147.738169,2.07253292 143.133109,1.5616698 C143.029898,1.5616698 142.872045,0.952219062 143.18168,1.00300662 C145.306625,1.25694443 147.631922,1.35851955 150.582561,1.35851955 C152.70447,1.35851955 155.290832,1.20615687 156.845078,1.00300662 C157.100071,0.952219062 156.99686,1.5616698 156.845078,1.5616698 C152.082165,1.96797029 152.033595,2.32647073 152.033595,9.86394236 L152.033595,25.1390484 C152.033595,32.6735325 152.082165,33.0290454 156.845078,33.3875459 C156.99686,33.4383334 157.100071,34.0477842 156.845078,33.9969966 C155.290832,33.7938464 152.70447,33.6414837 150.582561,33.6414837" id="Fill-54"></path>
                        <path d="M188.975295,35 C185.497703,35 182.683224,33.8901462 180.075781,31.6704387 C179.820737,31.4188719 180.282816,28.6457173 180.384833,25.1622563 C180.384833,25.0113162 180.996937,25.0113162 180.996937,25.1119429 C181.356999,30.3593315 184.168477,33.8398329 189.434373,33.8398329 C192.911964,33.8398329 196.185521,31.8716922 196.185521,27.737117 C196.185521,19.3614206 181.254981,19.3111072 181.254981,10.1303969 C181.254981,5.59035515 185.24266,1 190.868617,1 C193.731104,1 195.624426,1.60672006 197.310713,2.5656337 C197.667773,2.76688719 197.922817,4.63440111 197.922817,7.91068942 C197.922817,8.06162953 197.364722,8.06162953 197.310713,7.96100279 C196.698608,4.17862117 194.190182,2.16016713 190.511556,2.16016713 C187.237999,2.16016713 184.321503,4.22893454 184.321503,7.45786908 C184.321503,15.4784123 199,15.3274721 199,24.9610028 C199,30.4096448 194.856295,35 188.975295,35" id="Fill-56"></path>
                        <path d="M249.530172,4.50099495 C249.530172,5.3500415 249.581996,6.62985433 249.685644,7.31970465 C249.685644,7.42583547 249.063757,7.37277006 249.063757,7.31970465 C248.646117,4.92551822 247.816935,3.59576149 241.061537,3.59576149 L235.552961,3.59576149 L235.552961,26.7416446 C235.552961,34.6140542 235.607834,34.9855121 240.43965,35.35697 C240.592073,35.4100354 240.69877,36.0499418 240.384778,35.9968764 C238.827012,35.7846147 236.278496,35.6254185 234.150668,35.6254185 C231.18756,35.6254185 228.852436,35.7315493 226.669735,35.9968764 C226.407567,36.0499418 226.511215,35.4100354 226.669735,35.35697 C231.294256,34.8793813 231.501552,34.9324467 231.501552,26.7416446 L231.501552,3.59576149 L225.785681,3.59576149 C219.237578,3.59576149 218.146228,4.8193874 217.576165,7.31970465 C217.576165,7.37277006 216.95123,7.42583547 217.003054,7.31970465 C217.210349,6.20220955 217.265222,4.39486413 217.265222,2.85284575 C217.265222,1.89454688 217.161574,0.883182599 217.003054,0.0840799578 C217.003054,-0.0751162715 217.627989,0.031014548 217.627989,0.0840799578 C217.990756,1.89454688 218.249876,2.10680852 225.785681,2.10680852 L241.061537,2.10680852 C248.594293,2.10680852 249.008884,1.94761229 249.426524,0.0840799578 C249.426524,0.031014548 250.051459,-0.0751162715 249.996587,0.0840799578 C249.737467,1.30770588 249.530172,2.69052803 249.530172,4.50099495" id="Fill-58"></path>
                        <path d="M294.021199,32.9783634 C293.764415,33.7938787 293.558988,33.8954447 292.785615,33.8954447 C290.933748,33.8954447 287.740562,33.6415297 284.030787,33.6415297 C278.985735,33.6415297 273.834948,33.7430957 270.179551,33.9970107 C269.874431,34.0477937 270.028502,33.4354104 270.131215,33.3846274 C275.330338,32.8260143 275.436073,33.0291464 275.436073,25.1368697 L275.436073,9.86313354 C275.436073,1.92007382 275.330338,2.17398886 270.131215,1.56459277 C270.028502,1.56459277 269.874431,0.952209455 270.179551,1.00299246 C273.834948,1.25989473 278.728951,1.36146075 283.82536,1.36146075 C287.535135,1.36146075 290.933748,1.20911173 293.661702,1.00299246 C293.456274,1.71694179 293.35054,2.68480616 293.35054,3.75423654 C293.35054,4.26206661 293.404918,5.28071398 293.456274,5.68697803 C293.456274,5.84231429 292.836972,5.78854405 292.836972,5.68697803 C292.426117,3.39875549 291.39596,2.63402315 284.701447,2.63402315 L279.759108,2.63402315 C279.553681,3.90658556 279.450968,6.29936135 279.450968,9.6092185 L279.450968,16.3304988 L284.804161,16.3304988 C290.468516,16.3304988 290.057661,15.8196815 290.365802,14.4455531 C290.417159,14.3947701 291.036462,14.3439871 290.982084,14.4455531 C290.779678,15.2102854 290.622586,16.4828478 290.622586,17.6538442 C290.622586,18.2124573 290.676964,19.2818877 290.7253,19.691139 C290.779678,19.843488 290.160375,19.792705 290.160375,19.691139 C289.849213,18.0601083 289.592429,17.3491462 284.804161,17.3491462 L279.450968,17.3491462 L279.450968,24.9337376 C279.450968,31.756584 280.37539,32.36598 282.746867,32.36598 L285.372107,32.36598 C293.19949,32.36598 293.661702,31.6042349 294.380697,28.1928118 C294.435075,28.1420288 295,28.1420288 295,28.2943778 C294.794573,29.5669402 294.332361,31.908933 294.021199,32.9783634" id="Fill-60"></path>
                        <path d="M325.401278,18.1274813 C326.240952,18.1784738 326.926275,18.1784738 327.556031,18.1784738 C335.344628,18.1784738 338.079744,15.3168946 338.079744,10.9705337 C338.079744,3.86457874 333.399794,2.07384208 328.241353,2.07384208 C327.398592,2.07384208 326.768836,2.12483458 325.873595,2.17582708 C325.558717,3.19867667 325.401278,5.60132333 325.401278,9.48875165 L325.401278,18.1274813 Z M325.401278,25.3354213 C325.401278,32.9033083 325.453758,33.2602558 330.346713,33.6172034 C330.451672,33.6681959 330.609111,34.2831054 330.294234,34.2321129 C328.71367,34.0281429 326.135993,33.8751654 323.925674,33.8751654 C320.92816,33.8751654 318.560402,33.9771504 316.402562,34.2321129 C316.140164,34.2831054 316.245123,33.6681959 316.350082,33.6172034 C321.088686,33.1582708 321.295517,33.2092633 321.295517,25.3354213 L321.295517,9.94768416 C321.295517,4.01755624 321.138078,2.22681959 318.137477,2.22681959 C317.560201,2.22681959 316.930445,2.32880459 316.19573,2.43378915 C316.035204,2.43378915 315.877765,1.92086458 316.140164,1.81887958 C318.245524,1.1529775 323.295918,1 328.926676,1 C336.292349,1 342.290464,3.19867667 342.290464,8.77185708 C342.290464,11.6334363 340.503069,15.7758271 335.134709,17.9235112 C337.869825,25.3864138 346.02578,34.3850904 351.866456,34.3850904 C351.971415,34.3850904 352.128854,35 351.813976,35 C339.922705,35 333.97707,26.9731804 331.714271,18.8923688 C330.609111,19.1503308 328.71367,19.2523158 327.611597,19.2523158 C326.978755,19.2523158 326.768836,19.2523158 325.401278,19.1503308 L325.401278,25.3354213 Z" id="Fill-62"></path>
                        <path d="M375.401278,18.1274813 C376.240952,18.1784738 376.926275,18.1784738 377.556031,18.1784738 C385.344628,18.1784738 388.079744,15.3168946 388.079744,10.9705337 C388.079744,3.86457874 383.399794,2.07384208 378.241353,2.07384208 C377.398592,2.07384208 376.768836,2.12483458 375.873595,2.17582708 C375.558717,3.19867667 375.401278,5.60132333 375.401278,9.48875165 L375.401278,18.1274813 Z M375.401278,25.3354213 C375.401278,32.9033083 375.453758,33.2602558 380.346713,33.6172034 C380.451672,33.6681959 380.609111,34.2831054 380.294234,34.2321129 C378.71367,34.0281429 376.135993,33.8751654 373.925674,33.8751654 C370.92816,33.8751654 368.560402,33.9771504 366.402562,34.2321129 C366.140164,34.2831054 366.245123,33.6681959 366.350082,33.6172034 C371.088686,33.1582708 371.295517,33.2092633 371.295517,25.3354213 L371.295517,9.94768416 C371.295517,4.01755624 371.138078,2.22681959 368.137477,2.22681959 C367.560201,2.22681959 366.930445,2.32880459 366.19573,2.43378915 C366.035204,2.43378915 365.877765,1.92086458 366.140164,1.81887958 C368.245524,1.1529775 373.295918,1 378.926676,1 C386.292349,1 392.290464,3.19867667 392.290464,8.77185708 C392.290464,11.6334363 390.503069,15.7758271 385.134709,17.9235112 C387.869825,25.3864138 396.02578,34.3850904 401.866456,34.3850904 C401.971415,34.3850904 402.128854,35 401.813976,35 C389.922705,35 383.97707,26.9731804 381.714271,18.8923688 C380.609111,19.1503308 378.71367,19.2523158 377.611597,19.2523158 C376.978755,19.2523158 376.768836,19.2523158 375.401278,19.1503308 L375.401278,25.3354213 Z" id="Fill-64"></path>
                        <path d="M431.160584,5.97493297 L425.256031,19.7804432 L436.083072,19.7804432 L431.160584,5.97493297 Z M449.816784,33.9969757 C448.263114,33.7914646 446.13784,33.6373313 444.015606,33.6373313 C441.060288,33.6373313 438.418138,33.7400869 436.289823,33.9969757 C436.034425,34.0483535 436.1378,33.428798 436.241176,33.3774202 C438.725223,33.1205313 439.92012,33.0177758 439.92012,31.5761759 C439.92012,30.0318204 438.935014,27.6110206 438.001596,25.0360874 L436.444886,20.811021 L424.787801,20.811021 L422.975693,25.0360874 C421.677421,28.1247983 420.744003,30.134576 420.744003,31.5761759 C420.744003,32.8122647 421.780797,33.1749313 424.164509,33.3774202 C424.319572,33.428798 424.422948,34.0483535 424.164509,33.9969757 C422.610839,33.7914646 421.418983,33.6373313 419.293709,33.6373313 C416.341432,33.6373313 416.286704,33.7400869 414.16447,33.9969757 C413.902991,34.0483535 414.006367,33.428798 414.112782,33.3774202 C417.584976,33.1205313 418.931895,30.9596426 421.470671,25.0360874 L432.404128,0.154133324 C432.507503,-0.0513777747 432.924045,-0.0513777747 433.02742,0.154133324 L442.35552,25.0360874 C444.687545,31.3706648 445.620963,33.0691536 449.868471,33.3774202 C449.971847,33.428798 450.12691,34.0483535 449.816784,33.9969757 L449.816784,33.9969757 Z" id="Fill-66"></path>
                    </g>
                    <g id="Icon">
                        <g id="g84" transform="translate(84.952343, 85.559751)">
                            <g id="g86-Clipped">
                                <g>
                                    <mask id="mask-2" fill="white">
                                        <use xlink:href="#path-1"></use>
                                    </mask>
                                    <g id="path-2"></g>
                                    <g id="g86" mask="url(#mask-2)" fill="url(#linearGradient-4)" fill-rule="nonzero">
                                        <g id="g92">
                                            <g id="g94">
                                                <polygon id="path104" points="21.2263009 0.232302847 0.0376730381 21.4349692 21.2263009 42.6345148 42.4180479 21.4349692"></polygon>
                                            </g>
                                        </g>
                                    </g>
                                </g>
                            </g>
                        </g>
                        <g id="g106" transform="translate(127.237735, 42.972122)">
                            <g id="g108-Clipped">
                                <g>
                                    <mask id="mask-6" fill="white">
                                        <use xlink:href="#path-5"></use>
                                    </mask>
                                    <g id="path-5"></g>
                                    <g id="g108" mask="url(#mask-6)" fill="url(#linearGradient-8)" fill-rule="nonzero">
                                        <g id="g114">
                                            <g id="g116">
                                                <polygon id="path126" points="21.3574027 0.0858957255 0.15064946 21.2938145 21.3574027 42.5017333 42.5672778 21.2938145"></polygon>
                                            </g>
                                        </g>
                                    </g>
                                </g>
                            </g>
                        </g>
                        <g id="g128" transform="translate(105.945091, 64.565849)">
                            <g id="g130-Clipped">
                                <g>
                                    <mask id="mask-10" fill="white">
                                        <use xlink:href="#path-9"></use>
                                    </mask>
                                    <g id="path-8"></g>
                                    <g id="g130" mask="url(#mask-10)" fill="url(#linearGradient-12)" fill-rule="nonzero">
                                        <g id="g136">
                                            <g id="g138">
                                                <polygon id="path148" points="21.4531636 0 0.233526049 21.2079188 21.4531636 42.4189596 42.6696778 21.2079188"></polygon>
                                            </g>
                                        </g>
                                    </g>
                                </g>
                            </g>
                        </g>
                        <g id="g150" transform="translate(105.945091, 21.978220)">
                            <g id="g152-Clipped">
                                <g>
                                    <mask id="mask-14" fill="white">
                                        <use xlink:href="#path-13"></use>
                                    </mask>
                                    <g id="path-11"></g>
                                    <g id="g152" mask="url(#mask-14)" fill="url(#linearGradient-16)" fill-rule="nonzero">
                                        <g id="g158">
                                            <g id="g160">
                                                <polygon id="path170" points="21.4531636 0.168669425 0.233526049 21.3797102 21.4531636 42.587629 42.6696778 21.3797102"></polygon>
                                            </g>
                                        </g>
                                    </g>
                                </g>
                            </g>
                        </g>
                        <g id="g172" transform="translate(84.952343, 0.684406)">
                            <g id="g174-Clipped">
                                <g>
                                    <mask id="mask-18" fill="white">
                                        <use xlink:href="#path-17"></use>
                                    </mask>
                                    <g id="path-14"></g>
                                    <g id="g174" mask="url(#mask-18)" fill="url(#linearGradient-20)" fill-rule="nonzero">
                                        <g id="g180">
                                            <g id="g182">
                                                <polygon id="path192" points="21.2263009 0.253027154 0.0376730381 21.4525727 21.2263009 42.6552391 42.4180479 21.4525727"></polygon>
                                            </g>
                                        </g>
                                    </g>
                                </g>
                            </g>
                        </g>
                        <g id="g244" transform="translate(42.666951, 85.559751)">
                            <g id="g246-Clipped">
                                <g>
                                    <mask id="mask-22" fill="white">
                                        <use xlink:href="#path-21"></use>
                                    </mask>
                                    <g id="path-21"></g>
                                    <g id="g246" mask="url(#mask-22)" fill="url(#linearGradient-24)" fill-rule="nonzero">
                                        <g id="g252">
                                            <g id="g254">
                                                <polygon id="path264" points="21.393859 0.232302847 0.205231206 21.4349692 21.393859 42.6345148 42.585606 21.4349692"></polygon>
                                            </g>
                                        </g>
                                    </g>
                                </g>
                            </g>
                        </g>
                        <g id="g266" transform="translate(21.374307, 64.565849)">
                            <g id="g268-Clipped">
                                <g>
                                    <mask id="mask-26" fill="white">
                                        <use xlink:href="#path-25"></use>
                                    </mask>
                                    <g id="path-24"></g>
                                    <g id="g268" mask="url(#mask-26)" fill="url(#linearGradient-28)" fill-rule="nonzero">
                                        <g id="g274">
                                            <g id="g276">
                                                <polygon id="path286" points="21.4703016 0 0.250664106 21.2079188 21.4703016 42.4189596 42.6868159 21.2079188"></polygon>
                                            </g>
                                        </g>
                                    </g>
                                </g>
                            </g>
                        </g>
                        <g id="g288" transform="translate(0.381559, 42.972122)">
                            <g id="g290-Clipped">
                                <g>
                                    <mask id="mask-30" fill="white">
                                        <use xlink:href="#path-29"></use>
                                    </mask>
                                    <g id="path-27"></g>
                                    <g id="g290" mask="url(#mask-30)" fill="url(#linearGradient-32)" fill-rule="nonzero">
                                        <g id="g296">
                                            <g id="g298">
                                                <polygon id="path308" points="21.2630267 0.0858957255 0.0562734169 21.2938145 21.2630267 42.5017333 42.4729018 21.2938145"></polygon>
                                            </g>
                                        </g>
                                    </g>
                                </g>
                            </g>
                        </g>
                        <g id="g310" transform="translate(21.374307, 21.978220)">
                            <g id="g312-Clipped">
                                <g>
                                    <mask id="mask-34" fill="white">
                                        <use xlink:href="#path-33"></use>
                                    </mask>
                                    <g id="path-30"></g>
                                    <g id="g312" mask="url(#mask-34)" fill="url(#linearGradient-36)" fill-rule="nonzero">
                                        <g id="g318">
                                            <g id="g320">
                                                <polygon id="path330" points="21.4703016 0.168669425 0.250664106 21.3797102 21.4703016 42.587629 42.6868159 21.3797102"></polygon>
                                            </g>
                                        </g>
                                    </g>
                                </g>
                            </g>
                        </g>
                        <g id="g332" transform="translate(42.666951, 0.684406)">
                            <g id="g334-Clipped">
                                <g>
                                    <mask id="mask-38" fill="white">
                                        <use xlink:href="#path-37"></use>
                                    </mask>
                                    <g id="path-33"></g>
                                    <g id="g334" mask="url(#mask-38)" fill="url(#linearGradient-40)" fill-rule="nonzero">
                                        <g id="g340">
                                            <g id="g342">
                                                <polygon id="path352" points="21.393859 0.253027154 0.205231206 21.4525727 21.393859 42.6552391 42.585606 21.4525727"></polygon>
                                            </g>
                                        </g>
                                    </g>
                                </g>
                            </g>
                        </g>
                        <g id="g404" transform="translate(63.959595, 64.565849)">
                            <g id="g406-Clipped">
                                <g>
                                    <mask id="mask-42" fill="white">
                                        <use xlink:href="#path-41"></use>
                                    </mask>
                                    <g id="path-36"></g>
                                    <g id="g406" mask="url(#mask-42)" fill="url(#linearGradient-44)" fill-rule="nonzero">
                                        <g id="g412">
                                            <g id="g414">
                                                <polygon id="path422" points="21.3116395 0 0.119892529 21.2079188 21.3116395 42.4189596 42.5002673 21.2079188"></polygon>
                                            </g>
                                        </g>
                                    </g>
                                </g>
                            </g>
                        </g>
                        <g id="g424" transform="translate(42.666951, 42.972122)">
                            <g id="g426-Clipped">
                                <g>
                                    <mask id="mask-46" fill="white">
                                        <use xlink:href="#path-45"></use>
                                    </mask>
                                    <g id="path-39"></g>
                                    <g id="g426" mask="url(#mask-46)" fill="url(#linearGradient-48)" fill-rule="nonzero">
                                        <g id="g432">
                                            <g id="g434">
                                                <polygon id="path442" points="21.393859 0.0858957255 0.205231206 21.2938145 21.393859 42.5017333 42.585606 21.2938145"></polygon>
                                            </g>
                                        </g>
                                    </g>
                                </g>
                            </g>
                        </g>
                        <g id="g444" transform="translate(84.952343, 42.972122)">
                            <g id="g446-Clipped">
                                <g>
                                    <mask id="mask-50" fill="white">
                                        <use xlink:href="#path-49"></use>
                                    </mask>
                                    <g id="path-42"></g>
                                    <g id="g446" mask="url(#mask-50)" fill="url(#linearGradient-52)" fill-rule="nonzero">
                                        <g id="g452">
                                            <g id="g454">
                                                <polygon id="path462" points="21.2263009 0.0858957255 0.0376730381 21.2938145 21.2263009 42.5017333 42.4180479 21.2938145"></polygon>
                                            </g>
                                        </g>
                                    </g>
                                </g>
                            </g>
                        </g>
                        <g id="g464" transform="translate(63.959595, 21.978220)">
                            <g id="g466-Clipped">
                                <g>
                                    <mask id="mask-54" fill="white">
                                        <use xlink:href="#path-53"></use>
                                    </mask>
                                    <g id="path-45"></g>
                                    <g id="g466" mask="url(#mask-54)" fill="url(#linearGradient-56)" fill-rule="nonzero">
                                        <g id="g472">
                                            <g id="g474">
                                                <polygon id="path482" points="21.3116395 0.168669425 0.119892529 21.3797102 21.3116395 42.587629 42.5002673 21.3797102"></polygon>
                                            </g>
                                        </g>
                                    </g>
                                </g>
                            </g>
                        </g>
                    </g>
                </g>
            </g>
        </g>
    </g>
</svg>