<?xml version="1.0" encoding="UTF-8"?>
<svg width="1096px" height="760px" viewBox="0 0 1096 760" version="1.1" xmlns="http://www.w3.org/2000/svg" xmlns:xlink="http://www.w3.org/1999/xlink">
    <!-- Generator: Sketch 61 (89581) - https://sketch.com -->
    <title>undraw_personal_information_962o</title>
    <desc>Created with Sketch.</desc>
    <g id="05_Services" stroke="none" stroke-width="1" fill="none" fill-rule="evenodd">
        <g id="Artboard" transform="translate(-165.000000, -155.000000)" fill-rule="nonzero">
            <g id="undraw_personal_information_962o" transform="translate(165.000000, 155.000000)">
                <path d="M0,0 L0,368 L368,368 L368,0 L0,0 Z M187,360 C181.477153,360 177,355.522847 177,350 C177,344.477153 181.477153,340 187,340 C192.522847,340 197,344.477153 197,350 C197,352.652165 195.946432,355.195704 194.071068,357.071068 C192.195704,358.946432 189.652165,360 187,360 L187,360 Z" id="Shape" fill="#725394"></path>
                <path d="M1095.99999,430 C1095.99999,593.89 976.51,729.89 819.9,755.62 C802.082092,758.541323 784.0558,760.000019 765.999992,760.000019 C678.47283,760.018692 594.525178,725.256937 532.63412,663.36588 C470.743063,601.474822 435.981308,517.52717 435.999992,430 C435.999992,247.75 583.75,99.9996147 765.999992,99.9996147 C834.878733,99.8945344 902.047962,121.443539 958.01,161.6 C1041.56,221.46 1095.99999,319.37 1095.99999,430 Z" id="Path" fill="#725394"></path>
                <path d="M995.06786,109.89381 L1023.72802,100.95774 L1026.20054,75.71627 C1026.20054,75.71627 956.49271,49.38457 934.20693,95.96058 C926.33812,112.40591 916.42081,122.28239 906.88241,128.1784 C893.74392,136.29993 877.54969,137.25297 863.04105,131.9542 C814.72982,114.31032 803.35281,164.48534 803.35281,164.48534 C803.35281,164.48534 807.52908,171.6278 837.30901,173.38391 C852.12941,174.25791 864.25615,185.41066 872.6998,196.39496 C890.78036,219.9161 927.91957,213.11839 937.03899,184.88738 C937.185923,184.432347 937.33064,183.97152 937.47314,183.5049 C951.71873,136.8379 1016.57392,173.99396 1016.57392,173.99396 L1020.71424,131.72555 L995.06786,109.89381 Z" id="Path" fill="#000000"></path>
                <circle id="Oval" fill="#000000" cx="799.78382" cy="189.02224" r="35.10282"></circle>
                <circle id="Oval" fill="#000000" cx="782.23241" cy="282.62975" r="93.60751"></circle>
                <circle id="Oval" fill="#FFC1C1" cx="779.30717" cy="316.75749" r="64.35516"></circle>
                <path d="M753.95514,365.5114 L765.65608,427.9164 L824.16077,420.11577 C824.16077,420.11577 814.40999,371.36186 820.26046,357.71077 L753.95514,365.5114 Z" id="Path" fill="#FFC1C1"></path>
                <path d="M465.332,607.3308 C465.332,607.3308 399.02668,568.32767 393.17621,595.62986 C387.32574,622.93205 459.48151,634.633 459.48151,634.633 L465.332,607.3308 Z" id="Path" fill="#FFC1C1"></path>
                <path d="M869.01437,229.00045 C869.01437,229.00045 822.21062,193.89763 802.70905,207.54873 C783.20748,221.19983 855.36327,266.05342 863.1639,262.15311 C870.96453,258.2528 869.01437,229.00045 869.01437,229.00045 Z" id="Path" fill="#FFC1C1"></path>
                <path d="M824.16077,386.96312 L753.95514,398.66406 L753.95514,429.86656 C753.95514,429.86656 687.64982,451.31829 687.64982,461.06907 C687.64982,470.81985 670.09841,507.87282 670.09841,507.87282 C670.09841,507.87282 627.19497,539.07533 662.29779,576.1283 C662.29779,576.1283 675.94888,597.58002 666.1981,599.53018 C656.44732,601.48034 634.9956,607.3308 644.74638,615.13143 C654.49716,622.93206 800.75889,675.58628 812.45983,671.686 C824.16077,667.78572 913.868,529.32454 913.868,494.22173 C913.868,459.11892 876.815,408.41484 876.815,408.41484 L833.91155,402.56437 L824.16077,386.96312 Z" id="Path" fill="#D0CDE1"></path>
                <path d="M693.50029,459.11891 C693.50029,459.11891 666.1981,455.2186 656.44729,488.37126 C646.69648,521.52392 613.54384,628.78252 613.54384,628.78252 C613.54384,628.78252 494.5843,626.83237 463.38184,597.58002 L449.73074,642.43362 C449.73074,642.43362 629.14514,706.78878 644.74639,695.08784 C660.34764,683.3869 728.60312,494.22173 728.60312,494.22173 L693.50029,459.11891 Z" id="Path" fill="#D0CDE1"></path>
                <path d="M870.96453,414.26531 L876.815,408.41484 C876.815,408.41484 950.92094,328.45843 948.97078,308.95684 C948.97078,308.95684 909.96766,260.20293 861.21378,273.85403 C861.21378,273.85403 839.76206,221.1998 872.91472,223.14996 C906.06738,225.10012 1028.9272,217.29951 1026.977,273.854 C1025.0268,330.40849 908.0175,503.97251 908.0175,503.97251 L870.96453,414.26531 Z" id="Path" fill="#D0CDE1"></path>
                <path d="M819.9,755.62 C802.082092,758.541323 784.0558,760.006168 766,760.0004 C708.6282,760.089554 652.233539,745.150503 602.43,716.67 L614.02,693.2 L650.91,618.44 L652.55,615.13 L679.42,623.23 L814.41,663.89 L814.78006,670.12 L819.9,755.62 Z" id="Path" fill="#2F2E41"></path>
                <ellipse id="Oval" fill="#000000" transform="translate(782.232417, 267.028506) rotate(-71.208330) translate(-782.232417, -267.028506) " cx="782.232417" cy="267.028506" rx="40.95329" ry="64.35516"></ellipse>
                <path d="M188.59744,352.55629 C202.14984,327.72511 234.60975,312.00239 261.16332,326.1741 C273.11542,332.55297 282.61632,343.83721 285.63266,357.17454 C289.13657,372.66778 281.75766,387.44014 274.14451,400.45654 C270.01241,407.52129 265.48477,414.44241 262.06488,421.89439 C258.52349,429.61112 255.99311,438.53053 258.65933,446.92549 C261.06142,454.48878 267.07704,459.98992 273.66706,464.03267 C280.940659,468.324201 288.676999,471.777958 296.72811,474.32788 C313.301509,479.839802 330.782904,482.101453 348.21336,480.98877 C356.876276,480.400291 365.466183,479.011709 373.87329,476.84077 C382.81676,474.56099 391.59248,471.67077 400.55063,469.44563 C415.50706,465.73063 432.5599,463.88382 446.74163,471.34863 C460.51925,478.60069 466.68545,493.76777 468.59303,508.52313 C472.11536,535.76867 461.31186,564.04344 441.80661,583.12503 C432.44895,592.27943 420.67277,599.84157 407.84645,602.93603 C396.65503,605.63603 382.28506,605.46303 373.37981,597.09691 C363.44132,587.76006 365.7753,572.78773 373.67246,562.93644 C383.74793,550.36782 400.8156,547.34856 416.0468,547.04281 C433.37322,546.695 450.6828,549.27526 467.9988,547.6713 C476.450991,547.013478 484.744359,545.012968 492.56694,541.74502 C499.4441,538.719954 505.716929,534.47508 511.08209,529.21567 C521.77166,518.82993 528.97772,504.99326 532.56747,490.6072 C536.88447,473.30645 535.94347,455.1252 532.59242,437.74865 C530.806323,428.788117 528.506484,419.937694 525.70429,411.2412 C524.54705,407.57164 518.75263,409.13894 519.91861,412.8362 C530.23855,445.56042 535.99214,483.3992 516.05354,513.78174 C507.802242,526.666601 494.947791,535.919785 480.11033,539.6552 C462.85326,543.94402 444.74514,541.82376 427.2018,541.18575 C410.5198,540.57907 392.2048,541.23337 377.90233,550.94938 C366.17133,558.91857 357.96657,574.0763 361.51225,588.38663 C364.93148,602.18663 378.19347,609.18363 391.45737,610.26473 C405.37425,611.39902 419.06944,606.72741 430.75681,599.42381 C455.06969,584.23035 471.23554,557.51122 474.61917,529.18227 C476.38228,514.42096 474.58852,498.52127 467.89449,485.12295 C464.367273,477.870124 458.877258,471.75149 452.04773,467.4617 C445.23739,463.28657 437.37135,461.23184 429.47214,460.5043 C411.5245,458.8513 394.27976,465.01336 377.25459,469.72713 C368.557008,472.250386 359.641877,473.952079 350.62639,474.80984 C341.876493,475.534812 333.076306,475.391475 324.35466,474.38193 C315.700288,473.360973 307.171227,471.468143 298.89744,468.73228 C290.789879,466.22581 283.027201,462.716302 275.78973,458.28528 C269.40454,454.20201 263.88293,448.35453 263.56882,440.39014 C263.22805,431.74947 267.58456,423.66634 271.72904,416.38114 C279.91582,401.9904 290.02564,387.91386 292.16364,371.06683 C294.03381,356.33028 288.10395,341.80483 277.86516,331.29394 C267.490511,320.508758 253.090564,314.534995 238.128,314.80913 C222.935,315.24379 208.38783,321.85072 197.2129,331.99774 C191.671755,337.033732 187.009065,342.958385 183.41662,349.528 C181.56605,352.91868 186.74504,355.95036 188.59744,352.55631 L188.59744,352.55629 Z" id="Path" fill="#3F3D56"></path>
                <path d="M199,34 C179.438243,34.0009035 162.249136,46.9744424 156.885077,65.7863852 C151.521017,84.5983279 159.282894,104.686419 175.9024,115.00409 C176.02966,115.08331 176.16455,115.15109 176.29272,115.229 C179.607473,105.514126 188.735188,98.9841231 199,98.9841231 C209.264812,98.9841231 218.392527,105.514126 221.70728,115.229 C221.83545,115.15106 221.97034,115.08331 222.0976,115.00409 C238.717106,104.686419 246.478983,84.5983279 241.114923,65.7863852 C235.750864,46.9744424 218.561757,34.0009035 199,34 L199,34 Z M199,94.746 C192.714773,94.746 187.048423,90.9598902 184.643165,85.1530996 C182.237907,79.346309 183.567416,72.6623997 188.011743,68.2180728 C192.45607,63.7737458 199.139979,62.444237 204.94677,64.849495 C210.75356,67.254753 214.53967,72.9211026 214.53967,79.20633 C214.53967,87.7886482 207.582318,94.746 199,94.746 L199,94.746 Z" id="Shape" fill="#FFFFFF"></path>
                <circle id="Oval" fill="#FFFFFF" cx="124" cy="156" r="8"></circle>
                <circle id="Oval" fill="#FFFFFF" cx="124" cy="192" r="8"></circle>
                <circle id="Oval" fill="#FFFFFF" cx="124" cy="228" r="8"></circle>
                <circle id="Oval" fill="#FFFFFF" cx="124" cy="264" r="8"></circle>
                <rect id="Rectangle" fill="#FFFFFF" x="146" y="220" width="106" height="16" rx="7.99999"></rect>
                <rect id="Rectangle" fill="#FFFFFF" x="146" y="256" width="106" height="16" rx="7.99999"></rect>
                <rect id="Rectangle" fill="#FFFFFF" x="146" y="184" width="106" height="16" rx="7.99999"></rect>
                <rect id="Rectangle" fill="#FFFFFF" x="146" y="148" width="106" height="16" rx="7.99999"></rect>
            </g>
        </g>
    </g>
</svg>