<?xml version="1.0" encoding="UTF-8"?>
<svg width="952px" height="726px" viewBox="0 0 952 726" version="1.1" xmlns="http://www.w3.org/2000/svg" xmlns:xlink="http://www.w3.org/1999/xlink">
    <!-- Generator: Sketch 61 (89581) - https://sketch.com -->
    <title>undraw_polaroid_gg6n</title>
    <desc>Created with Sketch.</desc>
    <g id="05_Services" stroke="none" stroke-width="1" fill="none" fill-rule="evenodd">
        <g id="Artboard" transform="translate(-266.000000, -420.000000)" fill-rule="nonzero">
            <g id="undraw_polaroid_gg6n" transform="translate(266.000000, 420.000000)">
                <path d="M762.63464,656.14285 L247.85281,656.14285 C111.41918,625.929 -0.000114954478,521.86239 -0.000114954478,366.23873 C-0.0198279584,342.698008 2.52542576,319.225204 7.5907,296.23588 L422.52751,229.39831 L742.62558,177.84126 C765.621244,192.884839 787.50391,209.564613 808.10385,227.75121 L501.70862,344.62767 L357.16837,399.76667 L519.48968,359.42197 L856.39638,275.6865 C876.863205,298.561069 895.464436,323.038661 912.02154,348.88434 L810.13794,425.05897 L925.24824,370.57485 C925.735333,371.41485 926.22035,372.256233 926.70329,373.099 C998.92569,499.12812 907.891,656.14285 762.63464,656.14285 Z" id="Path" fill="#F2F2F2"></path>
                <path d="M680.37217,142.46778 C602.45124,158.56195 506.65,178.90297 408.1499,200.0477 C265.73301,230.6287 117.68024,262.90642 9.89271,286.50197 L9.96427,286.22251 C14.5836068,268.559798 24.1273087,252.573516 37.48327,240.12651 C119.213483,163.112928 221.8455,111.919385 332.53092,92.95475 L332.54085,92.95475 C364.605319,87.4881311 397.075093,84.7463539 429.60222,84.7582324 C516.497447,84.6362074 602.271314,104.375105 680.37217,142.46778 L680.37217,142.46778 Z" id="Path" fill="#F2F2F2"></path>
                <path d="M97.213,0 L97.213,725.3417 L807.7853,725.3417 L807.7853,0 L97.213,0 Z M742.14352,512.00591 L164.49582,512.00591 L164.49582,62.35969 L742.14352,62.35969 L742.14352,512.00591 Z" id="Shape" fill="#3F3D56"></path>
                <path d="M370.44692,470.15927 L311.36931,511.18538 C311.36931,511.18538 276.90738,547.28838 301.52305,547.28838 C326.13872,547.28838 335.985,516.10852 335.985,516.10852 L411.473,483.28763 L370.44692,470.15927 Z" id="Path" fill="#FFC1C1"></path>
                <path d="M394.24207,310.15742 C394.24207,310.15742 342.54916,470.15927 358.95961,478.36449 C375.37006,486.56971 411.473,491.49285 411.473,491.49285 L394.24207,310.15742 Z" id="Path" fill="#146453"></path>
                <path d="M394.24207,310.15742 C394.24207,310.15742 342.54916,470.15927 358.95961,478.36449 C375.37006,486.56971 411.473,491.49285 411.473,491.49285 L394.24207,310.15742 Z" id="Path" fill="#146453" opacity="0.1"></path>
                <path d="M556.75476,512.00591 L440.38823,512.00591 L523.06406,470.15927 C524.887181,471.341106 526.635495,472.63452 528.299,474.03211 C540.558495,484.352039 550.292443,497.341852 556.75476,512.00591 Z" id="Path" fill="#2F2E41"></path>
                <circle id="Oval" fill="#FFB8B8" cx="427.06296" cy="226.46415" r="42.66716"></circle>
                <path d="M426.24243,261.74661 C426.24243,261.74661 436.0887,292.92646 426.24243,304.41377 C416.39616,315.90108 480.39691,288.00332 480.39691,288.00332 C480.39691,288.00332 457.42228,255.18243 463.98646,240.41303 L426.24243,261.74661 Z" id="Path" fill="#FFC1C1"></path>
                <path d="M520.76656,404.20568 L517.32041,426.67159 C517.32041,426.67159 519.05991,431.77521 521.17682,439.20919 C523.93382,448.90772 527.33074,462.57765 528.299,474.03211 C529.3,485.65073 527.79028,495.00471 520.6025,495.59546 C510.29669,496.44874 504.9305,502.70111 499.58072,512.00591 L380.86751,512.00591 C381.17931,506.88591 381.55682,501.56891 381.99984,496.10418 C382.246033,492.822093 382.51954,489.496233 382.82036,486.1266 C383.14859,482.25376 394.77683,409.50698 386.03684,393.8507 C367.99026,361.52315 390.96,342.97832 390.96,342.97832 C390.96,342.97832 394.24209,318.36265 394.24209,310.15742 C394.24209,303.72442 419.44851,296.29058 430.34509,293.36947 C431.05072,293.18898 431.67433,293.00847 432.24865,292.87718 C434.13589,292.38488 435.26822,292.10593 435.26822,292.10593 L443.8837,288.57765 C443.8837,288.57765 468.08911,283.90071 469.73016,280.61865 C470.32091,279.43705 471.97838,278.46889 473.93123,277.63194 C477.39381,276.15494 481.80823,275.10477 482.85851,274.05447 C484.357958,272.330308 485.713604,270.486177 486.91184,268.54059 C489.89856,264.88099 494.16533,262.68205 498.99001,261.48402 C516.61481,257.03685 541.93612,265.84925 541.93612,265.84925 L533.07444,323.69607 L520.76656,404.20568 Z" id="Path" fill="#009A79"></path>
                <path d="M572.2954,368.41451 L513.2178,409.44062 C513.2178,409.44062 478.75586,445.54362 503.37153,445.54362 C527.9872,445.54362 537.83347,414.36377 537.83347,414.36377 L613.32147,381.54288 L572.2954,368.41451 Z" id="Path" fill="#FFC1C1"></path>
                <path d="M530.44877,269.13131 L541.93608,265.84922 C541.93608,265.84922 658.45024,313.43951 655.16815,354.46563 C651.88606,395.49175 656.8092,395.49174 637.11666,397.13279 C617.42412,398.77384 559.98757,379.0813 561.62861,375.79921 C563.26965,372.51712 574.757,356.10667 574.757,356.10667 L530.44877,321.64474 L530.44877,269.13131 Z" id="Path" fill="#009A79"></path>
                <circle id="Oval" fill="#FFC1C1" cx="469.73012" cy="226.46415" r="6.56418"></circle>
                <path d="M664.70292,516.24021 C664.36905,515.69465 656.49692,502.55027 653.76773,475.25564 C651.26445,450.21426 652.87411,408.00505 674.76437,349.12664 C716.23481,237.5855 665.20727,147.58796 664.68587,146.69149 L667.20336,145.231 C667.33549,145.45832 680.5026,168.40416 688.28097,204.94191 C698.558633,253.383265 694.816149,303.750577 677.49212,350.14102 C636.09272,461.49179 666.87092,514.20429 667.18631,514.72427 L664.70292,516.24021 Z" id="Path" fill="#3F3D56"></path>
                <circle id="Oval" fill="#FFBFCB" cx="648.48697" cy="121.22962" r="18.91245"></circle>
                <circle id="Oval" fill="#3F3D56" cx="708.13394" cy="191.06022" r="18.91245"></circle>
                <circle id="Oval" fill="#FFBFCB" cx="667.39942" cy="237.61395" r="18.91245"></circle>
                <circle id="Oval" fill="#FFBFCB" cx="716.86276" cy="276.89366" r="18.91245"></circle>
                <circle id="Oval" fill="#3F3D56" cx="652.85138" cy="337.99544" r="18.91245"></circle>
                <path d="M676.12825,516.93635 C676.12825,516.93635 657.21579,470.38262 713.95315,435.46735 L676.12825,516.93635 Z" id="Path" fill="#3F3D56"></path>
                <path d="M652.86886,516.09185 C652.86886,516.09185 644.26163,466.58585 577.64312,467.01013 L652.86886,516.09185 Z" id="Path" fill="#3F3D56"></path>
                <circle id="Oval" fill="#000000" cx="427" cy="225" r="43"></circle>
                <path d="M577.603242,131.997817 L596.380114,126.159639 L598,109.668697 C598,109.668697 552.330505,92.4654784 537.729846,122.894858 C532.574549,133.639041 526.077165,140.091615 519.828026,143.943639 C511.220267,149.249656 500.610522,149.872304 491.105101,146.410472 C459.453715,134.883244 452,167.663954 452,167.663954 C452,167.663954 454.736108,172.330319 474.246604,173.477633 C483.956276,174.048641 491.901181,181.335037 497.433088,188.511381 C509.278673,203.878384 533.610645,199.437254 539.585287,180.993164 C539.681551,180.695879 539.776363,180.394808 539.869722,180.089952 C549.202804,149.601127 591.693063,173.876196 591.693063,173.876196 L594.405618,146.261089 L577.603242,131.997817 Z" id="Path" fill="#000000"></path>
                <circle id="Oval" fill="#000000" cx="450" cy="183.824083" r="23"></circle>
                <circle id="Oval" fill="#FFC1C1" cx="431.5" cy="236.5" r="38.5"></circle>
                <ellipse id="Oval" fill="#000000" transform="translate(427.843434, 213.230012) rotate(-86.208330) translate(-427.843434, -213.230012) " cx="427.843434" cy="213.230012" rx="21.5" ry="34"></ellipse>
            </g>
        </g>
    </g>
</svg>