<?xml version="1.0" encoding="UTF-8"?>
<svg width="716px" height="435px" viewBox="0 0 716 435" version="1.1" xmlns="http://www.w3.org/2000/svg" xmlns:xlink="http://www.w3.org/1999/xlink">
    <!-- Generator: Sketch 61 (89581) - https://sketch.com -->
    <title>analytics</title>
    <desc>Created with Sketch.</desc>
    <g id="06-Create-Profile" stroke="none" stroke-width="1" fill="none" fill-rule="evenodd">
        <g id="Artboard" transform="translate(-257.000000, -654.000000)" fill-rule="nonzero">
            <g id="analytics" transform="translate(257.000000, 654.000000)">
                <rect id="Rectangle" fill="#9B9B9B" x="0" y="0" width="716" height="435"></rect>
                <circle id="Oval" fill="#CFCFCF" cx="12" cy="10" r="5"></circle>
                <circle id="Oval" fill="#CFCFCF" cx="25" cy="10" r="5"></circle>
                <circle id="Oval" fill="#CFCFCF" cx="38" cy="10" r="5"></circle>
                <circle id="Oval" fill="#F2F2F2" cx="134" cy="101" r="61"></circle>
                <rect id="Rectangle" fill="#CFCFCF" x="6" y="187" width="255" height="9"></rect>
                <rect id="Rectangle" fill="#CFCFCF" x="6" y="271" width="255" height="9"></rect>
                <rect id="Rectangle" fill="#CFCFCF" x="6" y="296" width="255" height="9"></rect>
                <rect id="Rectangle" fill="#CFCFCF" x="6" y="320" width="255" height="9"></rect>
                <rect id="Rectangle" fill="#CFCFCF" x="6" y="345" width="255" height="9"></rect>
                <rect id="Rectangle" fill="#CFCFCF" x="6" y="370" width="255" height="9"></rect>
                <rect id="Rectangle" fill="#CFCFCF" x="6" y="395" width="255" height="9"></rect>
                <rect id="Rectangle" fill="#CFCFCF" x="302" y="39" width="407" height="2"></rect>
                <rect id="Rectangle" fill="#CFCFCF" x="302" y="55" width="407" height="2"></rect>
                <rect id="Rectangle" fill="#CFCFCF" x="302" y="71" width="407" height="2"></rect>
                <rect id="Rectangle" fill="#CFCFCF" x="302" y="87" width="407" height="2"></rect>
                <rect id="Rectangle" fill="#CFCFCF" x="302" y="103" width="407" height="2"></rect>
                <rect id="Rectangle" fill="#CFCFCF" x="302" y="119" width="407" height="2"></rect>
                <rect id="Rectangle" fill="#CFCFCF" x="302" y="135" width="407" height="2"></rect>
                <rect id="Rectangle" fill="#CFCFCF" x="302" y="151" width="407" height="2"></rect>
                <rect id="Rectangle" fill="#CFCFCF" x="302" y="167" width="407" height="2"></rect>
                <rect id="Rectangle" fill="#CFCFCF" x="302" y="183" width="407" height="2"></rect>
                <rect id="Rectangle" fill="#CFCFCF" x="302" y="199" width="407" height="2"></rect>
                <rect id="Rectangle" fill="#CFCFCF" x="310" y="177" width="27" height="6"></rect>
                <rect id="Rectangle" fill="#CFCFCF" x="354" y="162" width="27" height="6"></rect>
                <rect id="Rectangle" fill="#CFCFCF" x="398" y="130" width="27" height="6"></rect>
                <rect id="Rectangle" fill="#CFCFCF" x="441" y="145" width="27" height="6"></rect>
                <rect id="Rectangle" fill="#CFCFCF" x="485" y="114" width="27" height="6"></rect>
                <rect id="Rectangle" fill="#CFCFCF" x="529" y="145" width="27" height="6"></rect>
                <rect id="Rectangle" fill="#CFCFCF" x="573" y="98" width="27" height="6"></rect>
                <rect id="Rectangle" fill="#CFCFCF" x="617" y="67" width="27" height="6"></rect>
                <rect id="Rectangle" fill="#CFCFCF" x="661" y="83" width="27" height="6"></rect>
                <polygon id="Path" fill="#D6CDFF" opacity="0.1" points="660.814854 87.5728151 660.814854 151.874227 644.023143 151.874227 644.023143 70 616.837997 70 616.837997 151.874227 600.046287 151.874227 600.046287 101.151809 572.86114 101.151809 572.86114 151.874227 512.092573 151.874227 512.092573 117.127979 484.907427 117.127979 484.907427 151.874227 440.530789 151.874227 440.530789 167.451015 424.13886 167.451015 424.13886 133.103265 396.953713 133.103265 396.953713 167.451015 352.976857 167.451015 352.976857 183.426301 309 183.426301 309 201 352.976857 201 468.115717 201 484.907427 201 512.092573 201 660.814854 201 688 201 688 183.426301 688 87.5728151"></polygon>
                <path d="M414.070907,258.824374 C413.950208,257.869957 413.70611,256.935257 413.344736,256.04372 C413.251555,255.702836 413.019396,255.416834 412.704992,255.255603 C412.497131,255.201558 412.279217,255.199124 412.070201,255.248513 L408.811087,255.74731 C408.538303,255.75977 408.277112,255.861278 408.067478,256.036302 C407.642996,256.482818 408.060983,257.201807 408.047984,257.817812 C407.965877,258.525147 407.445508,259.103179 406.750775,259.258766 C406.06965,259.396415 405.367054,259.387703 404.68955,259.233207 L400.13235,258.524853 C401.474505,258.096267 402.66915,257.298883 403.579922,256.22372 C404.179634,255.513124 404.49869,254.186462 403.63197,253.849948 C403.374447,253.779269 403.105924,253.757703 402.840424,253.786377 C400.7757,253.802436 399.150928,252.078152 397.217997,251.35194 C394.680231,250.460124 391.856889,251.301961 390.221574,253.438067 L392.649251,253.555133 C392.877644,253.542529 393.104122,253.602945 393.295906,253.727635 C393.827948,254.164854 393.166487,255.004658 393.241439,255.689295 C393.338819,256.578791 394.519607,256.768708 395.409657,256.858655 C396.299708,256.948602 397.428953,257.671942 397.000794,258.457621 C392.527062,259.998901 387.974557,255.444758 383.276197,256.005336 C382.10036,256.231425 380.940303,256.53303 379.803229,256.908277 C372.71111,258.703054 365.379166,253.914388 358.134191,254.928537 C356.523557,255.203184 354.940582,255.620774 353.404029,256.176358 C352.390959,256.420938 351.453262,256.910146 350.673005,257.601165 C349.891833,258.337982 349.760355,259.532769 350.362605,260.421887 C348.491836,260.575974 346.608572,260.39692 344.800333,259.893046 C345.796351,260.446828 346.410727,261.500232 346.40244,262.640005 C343.481466,263.116424 340.637836,263.983673 337.948038,265.218423 C338.45005,266.053423 339.036405,266.834692 339.697888,267.549955 L336,269.926155 C336.610293,270.123087 337.097952,270.586889 337.325309,271.186627 C337.552666,271.786364 337.49505,272.456965 337.168729,273.009113 C338.464166,272.432697 339.266947,270.941563 340.652179,270.63925 C341.581404,270.541446 342.518671,270.723229 343.344003,271.161329 C344.171082,271.599467 345.120654,271.74912 346.042358,271.586593 C346.933578,271.3248 347.590928,270.168946 347.024621,269.432525 C350.833945,268.320853 354.770802,267.705653 358.737606,267.602174 C359.043641,267.563757 359.354003,267.622671 359.624688,267.770563 C360.141064,268.128888 360.005202,268.902851 359.977389,269.530856 C359.949575,270.158861 360.438926,270.984209 361.000084,270.701146 C360.339881,271.27376 360.904264,272.351737 361.537664,272.953881 C362.171063,273.556025 362.934485,274.386877 362.546713,275.170146 C362.445497,275.374572 362.273803,275.53814 362.176459,275.744444 C361.889027,276.353306 362.345407,277.063201 362.883713,277.46754 C363.473521,277.792465 364.004742,278.213922 364.455321,278.714412 C364.829243,279.274335 364.659446,280.254425 363.990789,280.332611 L362.090191,277.91901 C361.440855,278.592468 360.995693,279.436243 360.806335,280.352481 C362.834804,282.145111 363.111775,285.209696 361.437591,287.337107 C360.480405,288.261301 359.420669,289.072951 358.279046,289.756229 C357.125505,290.459077 356.364869,291.659025 356.221339,293.002383 C356.225982,295.301062 356.038205,297.436624 356.899387,299.567808 C358.487416,303.497491 360.320855,307.323438 362.38886,311.023012 C362.931924,311.994488 363.633791,313.059269 364.73392,313.226533 C363.343561,309.841067 362.091961,306.402922 360.979119,302.912098 C361.706202,302.807501 362.440588,303.046865 362.966463,303.559849 C363.220076,304.104124 363.351678,304.697269 363.352055,305.297754 C363.491109,305.869654 363.722984,306.414875 364.038451,306.911716 L370.677787,318.740932 C371.118514,319.785303 371.907978,320.644301 372.911415,321.171291 C373.61627,321.30275 374.308656,321.493986 374.981075,321.74293 C375.466279,322.029449 375.79308,322.538057 376.287721,322.80795 C377.686332,323.571092 379.631251,322.107511 380.938305,323.018668 C381.273602,323.32606 381.592646,323.65073 381.894137,323.991357 C383.101304,325.036977 385.081568,324.337487 386.475129,325.117494 C387.30779,325.731251 387.947221,326.570763 388.317742,327.536669 C389.517687,329.818863 391.459248,332.054724 394.030832,332.236452 C394.839289,332.202721 395.649141,332.230666 396.453353,332.320044 C397.242967,332.499751 398.020238,333.189005 397.893485,333.988998 C397.676194,335.360497 398.353667,336.862258 398.171712,338.238897 C397.840321,340.746458 394.28424,341.8484 393.97882,344.359259 C393.98006,344.912375 393.948994,345.465091 393.885782,346.014583 C393.725403,346.674103 393.230177,347.21108 393.054212,347.866612 C392.720748,349.108911 393.610604,350.345255 394.588154,351.181035 C395.565703,352.016815 396.731747,352.737505 397.266182,353.907459 C397.831079,355.144086 397.553606,356.58598 397.737315,357.933089 C398.138387,360.87397 400.677957,363.054138 403.291524,364.459873 C404.1278,364.811802 404.869903,365.354995 405.458226,366.04582 C406.130932,367.015594 406.06391,368.294062 406.288538,369.452813 C406.838673,372.290622 409.227142,374.628934 409.29498,377.518838 C409.343182,379.572891 408.201638,381.436318 407.519726,383.374421 C406.226054,387.131953 406.633086,391.266757 408.634599,394.69977 C409.199425,395.526658 409.694814,396.398914 410.115686,397.307594 C410.759639,398.974307 410.550694,400.868974 411.144415,402.554262 C411.929395,404.782324 414.08636,406.622637 413.879914,408.975953 C414.859174,411.009923 417.021553,412.009343 419.195938,412.614748 L423.092935,413.699754 C423.823799,413.964951 424.606363,414.056284 425.378637,413.966518 C426.169863,413.852699 426.777619,413.207351 426.843952,412.410571 C424.902176,412.109871 423.043636,411.410455 421.385271,410.356332 C419.809941,409.191554 418.730812,407.117392 419.328521,405.251369 C419.605675,404.386103 420.195303,403.386923 419.634721,402.671976 C419.313759,402.26262 418.72686,402.155666 418.364811,401.782169 C417.890206,401.098064 417.904396,400.187476 418.400086,399.518498 C418.895918,398.876081 419.286296,398.158779 419.556551,397.393544 C419.725838,396.483062 419.311523,395.563249 418.517535,395.086845 C419.240122,394.813991 419.897286,394.392238 420.446389,393.84895 C420.997353,393.281281 421.134259,392.429442 420.788927,391.71766 C421.97388,391.86797 423.372828,391.941591 424.150683,391.034955 C424.694314,390.232179 424.818278,389.216713 424.48374,388.306687 C424.146735,387.413997 423.920642,386.48328 423.810538,385.535445 C426.543996,385.665028 429.283462,385.572117 432.001865,385.257629 C431.608776,383.933454 430.715495,382.814484 429.511436,382.137989 C430.742606,381.929629 431.864223,380.455359 432.253199,379.268575 C432.584299,378.057829 432.601286,376.782636 432.302554,375.563497 C432.210219,375.247961 432.197567,374.914446 432.265728,374.592819 C432.462967,374.169158 432.810003,373.833511 433.239956,373.650564 L439.351034,370.140171 C439.7157,369.957416 440.046252,369.713335 440.328256,369.418586 C440.884315,368.579898 440.96664,367.513055 440.54584,366.598954 C440.12313,365.70632 439.794933,364.771907 439.566606,363.81097 C439.188909,360.880688 442.325037,358.778228 443.383423,356.019845 C443.744729,354.916224 443.940318,353.765089 443.9638,352.604043 C444.05013,351.361726 444.056545,349.918715 443.102866,349.118137 C442.188688,348.350724 440.760296,348.521914 439.803701,347.808083 C438.926676,347.153624 438.624109,345.882583 437.665991,345.353972 C436.795868,344.87392 435.704954,345.179228 434.73724,344.953453 C433.033324,344.55592 431.961124,342.591743 430.220994,342.409882 C429.239173,342.307271 428.127977,342.787359 427.323282,342.215446 C426.61422,341.7115 426.585804,340.6986 426.450837,339.839122 C425.966386,337.103307 423.829352,334.958932 421.095694,334.465585 C420.083392,334.303213 418.981526,334.364879 418.120318,333.808449 C417.248281,333.245008 416.848468,332.190136 416.163481,331.409862 C415.059506,330.15231 413.320794,329.70551 411.692017,329.32253 L405.066857,327.764713 C403.890765,327.488199 402.374785,327.341532 401.743662,328.371962 C401.556839,328.764301 401.424577,329.180367 401.350557,329.60858 C400.865422,331.1978 399.410996,332.292762 397.749915,332.319317 C397.194694,331.372031 396.295131,330.675843 395.239,330.376074 C394.551789,330.260311 393.873079,330.098752 393.207405,329.892476 C392.502179,329.548181 391.969822,328.928607 391.735549,328.179481 C391.501276,327.430356 391.585763,326.617795 391.969138,325.932917 C392.754391,324.534555 392.505667,322.783373 391.362116,321.65908 C390.149615,320.722359 388.614246,320.306808 387.094936,320.504158 C386.699261,319.640629 387.360829,318.666353 388.073762,318.0388 C388.786695,317.411247 389.65237,316.794312 389.807627,315.857196 C390.051847,314.383113 388.171398,313.263508 386.743591,313.70304 C385.315783,314.142573 384.404538,315.529678 383.802142,316.896994 C383.512759,317.7049 383.114166,318.469381 382.617464,319.169147 C382.099889,319.876605 381.228875,320.233291 380.363882,320.092002 C379.188233,319.791453 378.734183,318.394403 378.473979,317.208931 C378.055908,315.63309 377.845103,314.009441 377.846898,312.379063 C377.857017,310.731545 378.510392,309.153201 379.667633,307.980751 C381.621945,306.186205 384.619969,306.362128 387.257477,306.64839 C386.671071,305.871349 386.755828,304.778964 387.455071,304.101718 C388.169611,303.466729 389.151472,303.225463 390.078845,303.456998 C390.873616,303.622459 391.589591,304.050628 392.111494,304.672568 C392.861005,305.58656 393.074131,306.820617 393.640659,307.858066 C394.207187,308.895515 395.48103,309.780367 396.523689,309.223795 C397.424266,308.743051 397.567207,307.493999 397.343066,306.497885 C396.98936,305.540095 396.780726,304.534817 396.724074,303.51535 C396.878995,301.573276 398.891734,300.40427 400.667856,299.604446 C402.443978,298.804622 404.477708,297.728913 404.759098,295.801099 C404.768723,295.423645 404.839917,295.050297 404.969868,294.695798 C405.166813,294.382693 405.440574,294.125194 405.765108,293.947794 C410.948771,290.521374 416.218639,287.053114 422.143314,285.180895 C422.451561,285.083486 422.48773,285.191743 422.801861,285.115427 C423.241512,284.861274 422.950198,284.158211 422.528685,283.874989 C422.107171,283.591766 421.543763,283.374561 421.436823,282.878051 C421.35821,282.513071 421.573207,282.154693 421.629056,281.785539 C421.658114,281.332925 421.460338,280.89547 421.101367,280.618362 C420.742396,280.341254 420.269193,280.260745 419.83881,280.403556 C419.362892,279.773149 420.304591,279.040645 421.066019,278.830956 C423.352513,278.20149 425.699651,277.817935 428.067547,277.68681 C428.340788,277.643354 428.620736,277.690979 428.864249,277.822346 C429.225101,278.171147 429.253548,278.740132 428.929287,279.123201 C428.603646,279.480669 428.244869,279.806468 427.857769,280.096227 C427.07551,280.858441 426.782962,281.993069 427.099114,283.038615 C428.335273,283.667542 429.679169,284.314973 431.048248,284.093408 C432.417327,283.871843 433.632521,282.333231 432.988994,281.10442 C432.389725,279.960106 430.589635,279.702009 430.280077,278.447869 C429.917673,276.979494 431.995831,275.673543 431.527666,274.23538 C431.322611,273.605425 430.694927,273.234675 430.213294,272.779882 C429.049019,271.638493 428.705754,269.898768 429.349205,268.400545 C427.757292,268.680661 426.128454,268.170839 424.980153,267.033043 C423.93512,265.978162 423.101406,264.314117 421.617448,264.361319 C420.255662,264.40464 419.082716,265.993707 417.809377,265.508904 C417.496115,265.389631 417.165823,265.146884 416.862299,265.289111 C416.660759,265.420005 416.530511,265.63625 416.509022,265.875639 C416.185438,267.423051 416.742059,269.186153 415.8989,270.523309 C414.981346,271.978391 412.859,272.180131 411.746643,273.492285 C411.142812,274.204556 410.908871,275.164333 410.353836,275.915271 C409.7988,276.666209 408.620794,277.143629 407.954725,276.489223 C408.628862,275.10305 408.256246,273.434873 407.056399,272.467466 C406.437997,272.063925 405.771399,271.739618 405.072236,271.50215 C404.29098,271.171383 403.547776,270.757085 402.855585,270.266479 C402.508839,270.057273 402.227092,269.755739 402.041834,269.395577 C401.895292,268.944601 401.915032,268.456048 402.09748,268.018371 C402.785842,266.044421 404.51085,264.614346 406.577831,264.304049 C407.464683,264.183376 408.49685,264.225899 409.083758,263.550036 C409.394299,263.19242 409.557239,262.651748 410.007993,262.506507 C410.296311,262.448569 410.59563,262.485437 410.86128,262.611609 L414.171458,263.776981 C414.540787,263.943755 414.947305,264.011006 415.350652,263.972056 C415.76551,263.916156 416.067018,263.549638 416.041956,263.131694 C415.936195,262.581857 415.090315,262.318017 415.167306,261.763421 C415.210416,261.583701 415.307018,261.421288 415.444354,261.297637 C417.86311,258.722642 421.305449,257.362982 424.830575,257.590255 C425.248376,258.276585 424.587597,259.089313 424.037807,259.675221 C423.488017,260.261128 423.046177,261.30798 423.711077,261.758972 C423.983559,261.898064 424.286655,261.966334 424.592443,261.957495 C425.407406,262.067819 426.199419,262.30809 426.938345,262.669163 C428.082199,263.167052 429.204102,263.711808 430.304054,264.303429 C430.145228,263.585543 430.174508,262.838793 430.389055,262.135553 C430.63683,261.417996 431.390693,261.007741 432.127625,261.189416 C432.785286,261.443986 433.122569,262.314968 433.82323,262.394785 C434.757877,262.501234 435.126642,261.120164 434.736203,260.264141 C434.345764,259.408119 433.572933,258.691337 433.508418,257.752671 C433.464894,257.119411 433.705817,256.334033 433.200065,255.950574 C433.020097,255.835453 432.815812,255.763805 432.603375,255.741301 L419.975708,253.41708 C419.225852,253.279063 418.142425,253.384847 418.109188,254.14673 C418.090625,254.572003 418.470422,254.992747 418.30221,255.383756 C418.122666,255.801079 417.532861,255.762926 417.103275,255.910533 C416.444046,256.213927 416.062805,256.914839 416.166254,257.633248 C416.283471,258.330819 416.553577,258.993801 416.957198,259.574639 C416.135933,259.231097 414.892269,259.167942 414.070907,258.824374 Z" id="Path" fill="#F2F2F2"></path>
                <path d="M404.409515,248.193279 C402.897092,247.689937 401.233099,248.191084 400.244757,249.447584 C400.014382,249.678934 399.938904,250.023932 400.051451,250.331156 C400.282844,250.727426 400.872439,250.570903 401.307112,250.429151 C401.946016,250.199603 402.641418,250.182921 403.29048,250.38157 C403.698641,250.522504 404.06381,250.771578 404.473753,250.907174 C404.880409,251.078228 405.347745,251.009549 405.688722,250.728624 C405.930407,250.400888 406.03763,249.992291 405.988223,249.587302 C406.027742,249.313433 405.942286,249.036251 405.755638,248.832899 C405.591541,248.737324 405.407146,248.682476 405.217753,248.672905 C404.793587,248.593956 404.410112,248.368631 404.133462,248.035789" id="Path" fill="#F2F2F2"></path>
                <path d="M409.116338,247.001907 C408.747481,246.977496 408.394832,247.188724 408.18581,247.559269 C407.976788,247.929815 407.941615,248.406104 408.092998,248.816043 C408.650035,249.000859 409.231999,249.047027 409.804048,248.951781 C410.387486,248.841581 410.859232,248.315386 411,247.617793 C410.326495,247.766898 409.631487,247.605412 409.050554,247.164835" id="Path" fill="#F2F2F2"></path>
                <path d="M424.360047,244.410579 C422.853451,244.73464 421.389963,245.237608 420,245.909027 C421.345268,246.432178 422.194554,247.783387 422.092262,249.237805 C422.033459,249.509776 422.040268,249.792076 422.112113,250.060821 C422.272231,250.453579 422.736256,250.600946 423.144195,250.701753 C423.877112,250.927413 424.642431,251.02624 425.407876,250.994066 C426.185761,250.952889 426.890521,250.517181 427.281622,249.83565 C427.392549,249.517257 427.522676,249.206048 427.67127,248.903775 C428.649096,247.397148 431.55393,249.218882 432.603775,247.762705 C432.973599,247.249745 432.939776,246.477604 433.421877,246.071137 C433.671276,245.894046 433.96028,245.782463 434.262887,245.746428 C436.374126,245.322062 438.506718,245.014781 440.651116,244.825959 C441.667174,244.736504 442.991549,244.367411 443,243.335599 C439.172892,242.575179 435.204677,243.115261 431.712264,244.871884 C430.453977,245.509488 428.789775,246.850713 427.577741,246.005401 C427.123924,245.688898 427.146392,244.836658 426.521792,244.480749 C425.831373,244.202906 425.066651,244.178084 424.360047,244.410579 L424.360047,244.410579 Z" id="Path" fill="#F2F2F2"></path>
                <path d="M436.631265,246.903745 L438.418647,247.247831 C437.753058,247.2183 437.107009,247.477351 436.645548,247.958804 C436.184087,248.440257 435.951909,249.097479 436.008329,249.76257 C437.682148,250.322772 439.50698,249.777632 441.270154,249.8521 C443.033327,249.926569 445.084794,251.188387 444.783812,252.930534 C444.692809,253.457298 444.389071,253.983713 444.547021,254.494344 C444.717566,254.82687 444.919696,255.142159 445.150608,255.435839 C445.441768,256.178594 445.289459,257.022388 444.757089,257.615935 C444.289169,258.240331 443.660231,258.738535 443.249512,259.402105 C442.227991,261.052488 442.808369,263.186104 443.416878,265.029876 C443.592832,265.726537 443.917735,266.376591 444.369116,266.935075 C445.270662,267.89541 446.739844,267.978955 448.055606,267.998144 C449.013256,268.012142 450.11031,267.964751 450.71593,267.221371 C451.50658,266.25086 450.953711,264.736657 451.474266,263.597628 C451.947028,262.563145 453.151492,262.119363 454.24283,261.804605 C456.264218,261.308706 458.245437,260.660913 460.16966,259.866729 C462.516688,258.785168 464.710144,257.099676 467.289799,256.96045 C468.014029,256.990234 468.739319,256.939208 469.452288,256.808315 C470.183319,256.65571 470.719902,256.028715 470.758847,255.281605 C470.713756,254.662836 470.191221,254.208459 469.782918,253.741995 C469.374615,253.275531 469.053971,252.558272 469.429229,252.06474 L476.190838,250.799429 C475.711549,249.490782 475.338173,247.767279 476.439533,246.915466 C476.836913,246.608158 477.368971,246.485289 477.707314,246.113733 C478.214481,245.381364 478.046343,244.377433 477.328356,243.851022 C476.612714,243.371424 475.770936,243.115756 474.90995,243.116495 C471.939243,242.938081 468.959805,242.964628 465.992736,243.195948 L448.572318,244.152621 C447.364143,244.103011 446.155076,244.226139 444.981575,244.51829 C444.15318,244.984417 443.286309,245.378307 442.390542,245.695607 C440.474172,246.098359 438.365308,245.825891 436.631265,246.903745 Z" id="Path" fill="#F2F2F2"></path>
                <path d="M468.724225,261.43663 C468.543394,261.40491 468.358482,261.451406 468.207686,261.566513 C468.107977,261.688232 468.048669,261.843997 468.039546,262.008113 C467.924979,262.732413 468.061444,263.477962 468.421612,264.095448 C468.795241,264.71236 469.441416,265.055856 470.109208,264.992546 C470.908256,264.879575 471.497122,264.123774 472.231722,263.754972 C473.363916,263.187072 478.172164,262.301751 474.846094,260.309466 C473.699851,259.622871 472.959187,260.228982 472.055765,260.681133 C471.027868,261.264133 469.876039,261.525335 468.724225,261.43663 Z" id="Path" fill="#F2F2F2"></path>
                <path d="M497.014898,246.196362 C496.627574,246.363003 496.303553,246.660031 496.093433,247.041062 C495.89239,247.442885 496.025885,247.940145 496.396948,248.17163 C496.541619,248.22687 496.69498,248.252491 496.848781,248.247116 L498.423644,248.296662 C499.092676,248.317712 499.928381,248.467735 500.10812,249.146746 C500.241616,249.650908 499.942833,250.298763 500.303336,250.659048 C500.458054,250.785225 500.644094,250.861639 500.839075,250.8791 C501.357854,251.01944 501.8996,251.037851 502.425891,250.933025 C503.571759,250.609344 502.969665,249.872829 503.330565,249.217025 C503.882761,248.21359 503.787166,248.821019 504.760145,248.245926 C505.478696,247.821219 506.407224,247.050787 505.807478,245.968324 C504.764559,244.085983 498.55389,245.387699 497.014898,246.196362 Z" id="Path" fill="#F2F2F2"></path>
                <path d="M528.236499,245.172439 L527.296055,245.293427 C525.16708,245.508607 523.060856,245.897365 521,246.455526 C521.88417,246.79253 522.811803,247.011963 523.757362,247.107783 C524.277866,247.132381 524.794905,247.203234 525.301902,247.31944 C526.204078,247.578352 527.113117,248.246932 527.984732,247.904441 C528.525146,247.692084 528.701501,247.149629 529.149162,246.86214 C529.458282,246.663629 530.630701,246.342328 530.761769,246.141962 C531.821324,244.522161 529.050979,245.067661 528.236499,245.172439 Z" id="Path" fill="#F2F2F2"></path>
                <path d="M532.171186,248.893599 C530.959274,249.613212 529.834863,250.487643 528.823033,251.497387 C528.345141,251.869329 528.044426,252.444695 528,253.072114 C528.05138,253.896069 528.87789,254.373994 529.593958,254.695943 L532.49435,256 C532.846209,255.473364 532.524131,254.746394 532.160526,254.228864 C531.796922,253.711334 531.364752,253.112575 531.52541,252.4898 C531.708754,251.779108 532.524753,251.536927 533.209025,251.414493 C534.323917,251.215005 537.331424,251.231022 536.970061,249.322998 C536.544259,247.074728 533.290335,248.229311 532.171186,248.893599 Z" id="Path" fill="#F2F2F2"></path>
                <path d="M532.212553,370.506813 C531.874712,371.327857 531.942387,372.257227 532.395715,373.022135 C533.021934,373.811929 534.059212,374.165732 535.045809,373.926051 C536.011278,373.672489 536.871832,373.126334 537.506252,372.364518 C538.086461,371.726269 538.563776,371.003734 538.921461,370.22225 C539.42067,369.004427 539.772751,367.732778 539.97042,366.433608 L540.911275,361.557487 C541.121525,360.467703 541.11338,357.126593 539.084225,358.215157 C538.529889,358.512539 537.246412,360.860494 536.665474,361.526304 C535.618455,362.726319 535.479924,363.890681 534.928728,365.344448 C534.238332,367.165351 532.850778,368.682956 532.212553,370.506813 Z" id="Path" fill="#F2F2F2"></path>
                <path d="M635.911484,394.861487 C635.24615,394.618299 634.600451,394.330386 633.979432,394 C633.356688,395.603622 633.025615,397.293752 633,399 L637.552564,396.58696 C638.237411,396.223968 639.013625,395.719598 638.998907,394.982653 C639.011473,394.797273 638.914934,394.620268 638.747209,394.521161 C638.646037,394.483133 638.535879,394.471029 638.428058,394.486092 C637.761149,394.599254 637.113093,394.794335 636.500664,395.066286 C635.878313,395.338049 635.160269,395.341572 634.534913,395.075931" id="Path" fill="#F2F2F2"></path>
                <path d="M658.313148,396.561352 C657.817083,396.694782 657.332432,396.866638 656.863699,397.075324 C655.826475,397.596789 655.120873,398.58725 654.187504,399.274078 C653.258582,399.884548 652.238087,400.346533 651.163584,400.64303 C651.032876,400.80107 650.976615,401.006706 651.00893,401.208294 C651.041245,401.409882 651.159066,401.588272 651.332804,401.698662 C651.695187,401.902358 652.110806,401.994665 652.526548,401.963785 C653.622186,402.081032 654.729789,401.912431 655.738915,401.474793 C656.28012,401.12791 656.786554,400.730739 657.251317,400.288691 C658.4158,399.411008 659.696617,398.695299 661.057957,398.161577 C661.543854,397.980297 661.993146,397.714865 662.384743,397.377741 C663.223633,396.5611 663.282616,395.301253 662.073004,395.023303 C661.095647,394.798732 659.243776,396.263873 658.313148,396.561352 Z" id="Path" fill="#F2F2F2"></path>
                <path d="M669.113217,389.169702 C669.226775,387.987465 668.787932,386.818873 667.922895,386 C668.022345,387.170088 667.776031,388.34359 667.214192,389.376435 C666.743714,390.06425 666.00606,390.528892 665.490625,391.184071 C664.893667,391.805104 664.83465,392.763877 665.350983,393.452669 C665.737436,393.745081 666.208147,393.90629 666.693722,393.912529 C667.897242,394.053402 669.290283,394.131918 670.134393,393.267325 C670.59512,392.795426 670.819228,392.096487 671.381141,391.749544 C671.59047,391.662143 671.777397,391.52913 671.928137,391.360316 C672.160154,390.993562 671.791501,390.51022 671.376519,390.378071 C670.961538,390.245922 670.504239,390.308018 670.087172,390.182537 C669.670105,390.057057 669.287484,389.590715 669.501484,389.213276" id="Path" fill="#F2F2F2"></path>
                <path d="M650.426283,349.682247 C649.843253,349.821879 649.239446,349.856934 648.643793,349.785731 C647.682571,349.484313 646.806451,348.965291 646.085691,348.270287 C644.186951,346.846692 641.878731,346.052559 639.492807,346.002032 C637.322377,345.961667 635.131667,346.540829 633,346.13675 C633.210011,346.896477 633.768316,347.516019 634.50939,347.811699 C635.216635,348.151754 635.997208,348.322874 636.707853,348.656002 C637.845969,349.194795 638.74868,350.119558 639.250429,351.26069 C639.427899,351.80582 639.669399,352.32868 639.970026,352.818652 C640.803005,353.68048 642.015153,354.080495 643.207304,353.88697 C644.752838,353.78686 646.367058,353.349147 647.804915,353.916164 C648.84285,354.479793 649.788676,355.194114 650.610582,356.035104 C651.529032,356.77225 652.82262,357.319358 653.87723,356.787479 C651.628875,356.070683 650.11501,353.997577 650.140675,351.670594 C651.175023,351.764255 654.154233,351.728015 653.993761,349.997396 C653.857731,348.530645 651.31441,349.523955 650.426283,349.682247 Z" id="Path" fill="#F2F2F2"></path>
                <path d="M636.6705,361.247041 C636.858791,360.210141 637.888647,359.294475 637.567848,358.290897 C637.255815,357.612205 636.562074,357.194228 635.818816,357.237113 C635.093068,357.220005 634.380108,357.437064 633.654448,357.457502 C633.182118,357.432326 632.708635,357.439076 632.237207,357.477708 C630.796729,357.715463 629.908852,359.231447 628.551341,359.770478 C627.691391,359.986105 626.819451,360.150287 625.940123,360.26216 C623.9914,360.776503 622.758367,362.62545 621.396135,364.116174 C619.195107,366.514064 616.327688,368.193106 613.165303,368.93581 C612.032571,369.070239 610.945173,369.461781 609.985503,370.080766 C608.819227,371.037593 608.53214,372.67791 608.272664,374.167473 C607.555782,378.281402 606.460195,382.31965 605,386.230269 L609.627222,386.823462 C610.499717,386.99819 611.399203,386.98507 612.266274,386.78497 C612.882204,386.551675 613.465619,386.239644 614.002101,385.85659 C616.062923,384.571905 618.369407,383.735953 620.772313,383.402824 C621.98057,383.175551 623.226689,383.263209 624.391582,383.65742 C625.570386,384.076318 626.420686,385.116929 626.59955,386.359566 C627.601545,386.046557 628.693787,386.313265 629.440721,387.053333 C630.165303,387.794623 630.639765,388.745653 630.797155,389.772221 C630.919037,390.407853 631.040989,391.169461 631.628422,391.436119 C632.107669,391.65366 632.657424,391.41936 633.181694,391.377189 C634.960702,391.234257 636.436928,393.317067 638.185533,392.958406 C640.060857,392.573754 640.52126,389.753757 642.350806,389.188877 C643.401559,388.86444 644.875401,389.25895 645.378587,388.277569 C645.822076,387.412565 644.937258,386.414371 645.028505,385.445803 C645.140853,384.253176 646.541928,383.746967 647.622027,383.238088 C651.421632,381.267559 653.036862,376.667676 651.308346,372.740117 C650.23923,370.541117 648.135625,368.810119 647.747127,366.394381 C647.448222,364.535764 648.177927,362.36839 646.997725,360.905443 C646.397344,360.16122 645.380828,359.750424 645.023578,358.862402 C644.885484,358.276709 644.799968,357.679763 644.768059,357.078734 C644.647032,356.488246 644.133967,355.870588 643.553239,356.023645 C641.867486,356.467924 641.329567,361.696704 640.427026,362.967137 C639.854598,363.817492 638.754216,364.12837 637.824151,363.702497 C636.894085,363.276624 636.406372,362.238565 636.6705,361.247041 L636.6705,361.247041 Z" id="Path" fill="#F2F2F2"></path>
                <path d="M606.348091,351.176443 C605.799851,350.973331 605.194063,350.944708 604.626276,351.095087 C604.08539,351.304187 603.769517,352.038262 604.203648,352.402509 C607.596388,352.18879 611.002852,352.249889 614.38407,352.585107 C618.263747,353.076308 622.103305,354.293054 626,353.935083 C623.7741,353.328064 621.511463,352.84273 619.223837,352.4816 L615.40907,351.807986 C614.385711,351.609854 613.351679,351.462161 612.311352,351.365534 C610.135024,351.199383 608.487837,351.731045 606.348091,351.176443 Z" id="Path" fill="#F2F2F2"></path>
                <path d="M609.260583,339.282233 C608.977974,339.25762 608.62796,339.236381 608.481759,339.489977 C608.342066,339.73227 608.501954,340.052411 608.426845,340.324056 C608.324221,340.695216 607.858447,340.790037 607.491461,340.739509 C607.135951,340.625852 606.755365,340.630433 606.402462,340.752618 C606.063757,340.994067 605.918371,341.439822 606.045591,341.846783 C606.178517,342.240164 606.393502,342.597825 606.675017,342.89393 C607.155855,343.526266 607.703729,344.099773 608.308176,344.603499 C609.47818,345.504806 611.063272,345.939146 611.800179,347.24752 C611.904149,347.501108 612.063949,347.725538 612.266608,347.902595 C612.660918,348.067812 613.107781,348.020855 613.462616,347.776918 L614.797731,347.140265 C615.03823,347.049848 615.252927,346.897455 615.421873,346.697246 C615.65653,346.207306 615.602823,345.62059 615.283525,345.185878 C614.964247,344.761691 614.779428,344.244292 614.754722,343.705502 C614.852689,342.754315 616.024581,342.390474 616.506436,341.576642 C616.992142,340.7563 616.675949,339.699345 616.731946,338.736718 C616.797456,337.611012 617.475264,336.146735 616.384745,335.305656 C615.457956,334.590855 614.572142,335.251336 613.906728,336.040492 C612.5035,337.704757 611.840035,339.507024 609.260583,339.282233 Z" id="Path" fill="#F2F2F2"></path>
                <path d="M618.245998,323.155596 C618.694066,324.032529 619.628152,324.55585 620.116755,325.40986 C620.646357,326.335528 620.586013,327.531538 621.160555,328.428771 C621.750019,329.349314 622.936272,329.838039 623.266856,330.885051 C623.627766,332.028138 622.808888,333.417475 623.461641,334.416252 C623.707771,334.746321 624.077999,334.955806 624.482316,334.993777 C624.886633,335.031749 625.288007,334.894729 625.588857,334.61603 C626.161148,333.979089 626.132583,332.991996 625.524461,332.390746 C625.137982,332.030561 624.583034,331.874911 624.26035,331.454203 C624.092293,331.211412 623.980342,330.932796 623.932934,330.639354 C623.757036,329.792934 623.785213,328.91548 624.015035,328.082672 C624.101385,327.871305 624.123312,327.638219 624.077946,327.413907 C623.932668,326.982282 623.360908,326.951661 622.959618,326.751435 C622.04819,326.296666 622.070308,324.981876 622.229547,323.958026 C622.123525,324.639674 619.748152,323.480315 619.499377,323.094213 C619.005236,322.327152 619.27418,320.847602 619.176358,320 C618.100677,320.636521 617.693515,322.017531 618.245998,323.155596 L618.245998,323.155596 Z" id="Path" fill="#F2F2F2"></path>
                <path d="M593.240126,335.832415 C592.787552,335.31878 592.105878,334.781441 591.499123,335.091214 C591.050478,335.388606 590.877942,335.97012 591.090307,336.469088 C591.311331,336.947192 591.651646,337.358511 592.077587,337.662356 C593.395059,338.651197 594.641259,339.734079 595.806694,340.902753 C597.780768,343.102095 598.826501,346.069748 600.973387,348.095851 C601.404922,348.565584 601.976332,348.879106 602.600242,348.988474 C603.246108,349.076438 603.85213,348.652334 604,348.008898 C603.985959,347.478211 603.749834,346.978652 603.35064,346.635077 C602.516681,345.715424 601.603735,344.868914 600.816325,343.907992 C600.452685,343.538877 600.224161,343.055018 600.168525,342.536389 C600.164537,342.018989 600.629935,341.477436 601.124404,341.605568 C600.523029,341.449734 600.077032,340.434009 599.194397,340.243077 C598.456761,340.083505 598.278313,340.546471 597.400464,340.16476 C595.726218,339.43675 594.412626,337.163161 593.240126,335.832415 Z" id="Path" fill="#F2F2F2"></path>
                <path d="M632.033567,286.601765 C631.54433,286.45604 631.063334,286.283841 630.592698,286.085928 C629.326374,285.704992 627.650893,286.637814 627.819688,287.952033 C627.931838,288.825199 628.742706,289.413939 629.190515,290.171349 C629.74316,291.370221 629.792897,292.741156 629.328586,293.977086 C629.242904,294.366562 629.079966,294.7348 628.849458,295.059911 C628.52717,295.403142 628.141891,295.680899 627.714705,295.877981 C626.004598,296.839061 624.496492,298.12311 623.273761,299.659143 C623.140819,299.801012 623.048214,299.975976 623.005573,300.16585 C622.945173,300.609572 623.390183,300.932798 623.641831,301.302893 C624.200744,302.124981 623.796768,303.231215 623.852022,304.224461 C623.834739,304.510024 623.966123,304.784217 624.199308,304.949234 C624.536176,305.120737 624.935366,304.829425 625.117957,304.497893 C625.723898,303.397668 625.267431,301.631629 626.40417,301.101142 C626.61919,301.000796 626.879858,300.958495 627.02332,300.769185 C627.250898,300.46888 627.031328,300.024225 627.146666,299.665286 C627.31983,299.126349 628.055311,299.102153 628.619748,299.126059 C629.592055,299.166807 630.563995,299.037128 631.4918,298.742861 C631.855736,298.656111 632.186282,298.464263 632.442491,298.191084 C632.727791,297.720759 632.814777,297.156041 632.68428,296.621385 C632.344183,293.927458 631.492735,291.323669 630.175893,288.950554 C631.162145,289.187212 632.198971,289.087635 633.122429,288.667567 C633.604915,288.375532 634.183509,287.502194 633.944203,286.907762 C633.565822,285.967675 632.882192,286.758908 632.033567,286.601765 Z" id="Path" fill="#F2F2F2"></path>
                <path d="M506.45915,301.904727 C506.630077,302.52545 506.639213,303.179422 506.485694,303.804653 C506.304574,304.443937 505.669147,304.844063 505.012515,304.73231 C504.535269,304.588059 504.259592,304.109503 503.920709,303.744601 C502.036142,301.715625 497.78428,302.890334 496.620058,300.380157 C496.144876,299.35569 496.467822,298.128321 496.143728,297.046846 C495.723217,295.761275 494.48426,294.921914 493.130934,295.005756 C492.530801,295.092199 491.946658,295.266099 491.397214,295.521885 C487.716348,296.992029 483.85203,297.955912 479.910577,298.387016 C479.161526,298.432531 478.420592,298.56698 477.703473,298.787513 C476.123683,299.51273 474.871772,300.799297 474.192334,302.395849 C473.526258,303.979087 472.715161,305.497678 471.769352,306.932321 C470.562372,308.278825 469.179307,309.457347 467.657339,310.436206 C467.098998,310.795073 466.634077,311.281022 466.300829,311.854071 C466.040347,312.523996 465.946969,313.247005 466.02873,313.960892 L466.324953,322.647147 C466.283796,323.767909 466.484083,324.884443 466.91231,325.921463 C467.538446,327.169997 468.77536,327.987738 469.633481,329.090662 C470.509184,330.224129 470.965344,331.624501 470.924774,333.054813 C470.906515,333.629868 470.849217,334.309985 471.298282,334.671134 C471.571446,334.847768 471.891088,334.939452 472.21661,334.934541 L483.998661,335.896222 C486.07121,336.065384 488.368073,336.343487 489.721202,337.918241 C490.359814,338.661428 490.872824,339.730178 491.850986,339.809914 C492.270698,339.786148 492.687844,339.729066 493.098463,339.639208 C494.180359,339.681247 495.159645,340.289715 495.674322,341.239688 C496.562741,342.585095 496.966015,344.191789 496.817926,345.795941 C496.721679,346.802872 496.408593,347.781788 496.341133,348.791018 C496.084331,352.631274 499.348704,355.967666 499.412018,359.815971 C499.44924,362.079566 498.371779,364.194552 497.321245,366.201422 C499.0167,368.762909 497.628369,372.173827 498.303367,375.168327 C498.943768,378.009293 501.319009,380.23337 501.910833,383.084781 C502.181784,384.390191 502.197463,385.996546 503.351683,386.668872 C503.858146,386.915061 504.419599,387.027174 504.982064,386.994434 C508.374764,387.034513 511.728783,386.273012 514.769731,384.772229 C516.196949,384.065915 517.676081,383.011506 517.925338,381.442121 C518.126347,380.176512 517.482779,378.760866 518.137737,377.658447 C518.909659,376.359152 520.887127,376.462138 522.022838,375.463193 C523.865377,373.842595 522.428611,370.75188 523.175136,368.417672 C523.846183,366.319503 526.156145,365.20482 527.301199,363.321693 C527.751809,362.511821 528.075175,361.637805 528.260016,360.73014 C528.78457,358.560788 529.111082,356.348524 529.235554,354.120444 C529.266071,352.766708 529.366163,351.415422 529.535434,350.071908 C530.769963,342.42305 538.352342,337.301255 540.814104,329.953227 C541.049203,329.251483 541.159616,328.316806 540.533622,327.919698 C540.162319,327.743034 539.741386,327.699098 539.34145,327.795263 L533.910194,328.47814 C533.242475,328.623534 532.547568,328.583633 531.900994,328.362774 C531.242255,328.10576 530.914283,327.367334 531.166073,326.708108 C532.088539,325.041727 530.190998,322.93597 529.347987,321.228226 C527.077637,316.629902 524.374036,312.257267 521.273679,308.169345 C521.075209,307.959053 520.950925,307.689947 520.919677,307.402845 L522.461135,307.454032 C521.940793,305.591991 521.082093,303.554362 519.268136,302.873224 C518.211354,302.587129 517.106697,302.521869 516.023437,302.681539 C512.8172,302.745909 509.61269,302.485638 506.45915,301.904727 Z" id="Path" fill="#F2F2F2"></path>
                <path d="M516.787013,259.526955 C517.505288,260.478275 518.52873,261.156256 519.68735,261.448292 C521.765034,261.713022 523.258872,259.5733 524.21,257.714721 C524.283205,258.699951 525.130586,259.448133 526.121514,259.402461 C526.634373,259.31653 527.123858,259.125946 527.559247,258.842672 C531.675783,256.602263 536.286624,255.415206 540.977674,255.38811 C540.884338,254.655106 541.361986,253.970291 542.084289,253.801531 C543.038072,253.613213 543.897225,254.434444 544.357323,255.287529 C544.698633,256.194965 545.199067,257.034816 545.835309,257.767951 C546.566305,258.406496 547.981576,258.378678 548.270291,257.454002 C548.547491,256.566268 547.618888,255.809249 546.847356,255.285837 C546.075824,254.762425 545.262649,253.793766 545.782197,253.021393 C549.698819,252.038201 553.694238,251.397828 557.722841,251.107583 C558.409503,251.131392 559.093724,251.014009 559.732809,250.762758 C560.382948,250.488567 560.767667,249.81423 560.67136,249.117662 C558.871122,249.539119 556.993788,248.833909 555.921481,247.333396 C561.517804,246.873473 567.470079,246.481456 572.429709,249.103964 C573.024866,250.376391 569.99154,251.435035 570.803121,252.582687 C571.125023,252.90371 571.578252,253.057846 572.030078,252.999957 C575.475183,253.160806 578.927782,253.02967 582.350578,252.607966 C583.581939,252.33684 584.84477,252.234846 586.103908,252.304824 C588.186345,252.560598 589.967445,253.944368 592.01617,254.395582 C592.845688,254.638359 593.738837,254.532426 594.4879,254.102417 C594.846119,253.871583 595.094365,253.505287 595.175329,253.088088 C595.256293,252.670889 595.162977,252.238849 594.916923,251.891706 C596.845882,250.008913 600.047351,250.475552 602.592107,251.376949 C605.136863,252.278346 607.547665,253.731986 610.241049,253.932909 C612.17245,254.076988 614.130687,253.559596 616.039147,253.888458 C617.218938,254.184503 618.382943,254.539771 619.526703,254.952903 C621.74358,255.570319 624.088667,255.439982 626.390403,255.469695 C632.263257,255.548487 638.071944,256.697981 643.52889,258.861271 C644.238761,259.091438 644.889177,259.47414 645.434129,259.982303 C645.981433,260.512262 646.149888,261.320545 645.859568,262.023647 L640.220745,261.203095 C640.752028,262.244693 642.126497,262.422187 643.242724,262.78152 C644.358951,263.140854 645.516262,264.36846 644.845459,265.326877 C643.636035,264.943366 642.540058,266.147596 641.92912,267.255574 C641.318182,268.363552 640.573688,269.690487 639.306258,269.757961 C638.171303,269.8184 636.798683,268.855964 636.058907,269.715291 C637.080948,270.999339 637.956136,272.392808 638.668272,273.869904 C639.399145,275.386303 639.919745,277.297019 638.93186,278.661371 C638.776442,278.904924 638.540711,279.086975 638.265163,279.176251 C637.458388,279.37965 636.934203,278.396729 636.355632,277.800969 C635.528305,277.15526 634.564336,276.705426 633.536676,276.485511 C632.549358,276.133432 631.509299,275.44082 631.432051,274.399249 C631.467178,273.748547 631.655059,273.11512 631.980601,272.549854 C632.405933,271.540302 632.591947,270.446718 632.524204,269.353983 C632.518828,268.464152 632.185434,267.607288 631.587361,266.946183 C630.952079,266.290105 629.934299,266.185958 629.178329,266.699672 C628.860779,266.962163 628.606271,267.382051 628.193887,267.397767 C627.465236,267.425532 626.905782,266.160377 626.319554,266.592243 C626.388336,267.052406 626.29253,267.522005 626.048886,267.918949 C624.299532,269.434131 621.612087,268.793136 619.356851,269.328359 C618.284445,269.634012 617.257698,270.080568 616.3037,270.656246 C615.946835,270.808228 615.643171,271.062082 615.431032,271.385772 C615.205467,271.977134 615.424016,272.64512 615.956102,272.990623 C616.482318,273.312039 617.073647,273.513047 617.687374,273.579129 C620.4368,274.097711 623.226336,274.900502 625.397013,276.65925 C627.56769,278.417998 628.991165,281.325297 628.304263,284.02687 L622.882261,278.867238 C623.088185,281.033658 623.205051,283.206042 623.232859,285.38439 C623.267919,285.809721 623.209262,286.237545 623.06099,286.637946 C622.674458,287.488193 621.626832,287.774306 620.708814,287.962007 C620.192358,288.059726 619.742408,288.372495 619.472215,288.821591 C619.202023,289.270687 619.13732,289.813339 619.294393,290.312964 C619.718122,291.340504 620.360984,292.26408 621.178488,293.019772 C621.998135,293.780263 622.550329,294.783222 622.753441,295.880381 C622.85093,296.983608 622.01516,298.227133 620.905784,298.150413 C620.062959,297.984445 619.370114,297.388841 619.082138,296.582715 C618.808543,295.788511 618.435209,295.031947 617.971018,294.331026 C616.339678,292.377067 612.675456,293.214251 611.214047,291.131144 C610.456636,291.986788 610.198037,293.171968 610.530587,294.263491 C611.287428,293.928509 612.176488,294.17403 612.652028,294.849343 C613.093913,295.515482 613.479551,296.216978 613.804976,296.946615 C614.346287,297.880052 615.207794,298.707584 615.283334,299.782879 C615.2633,300.189493 615.270183,300.59698 615.303938,301.002693 C615.544397,301.623609 615.908568,302.189627 616.374514,302.666653 C617.196114,304.013062 617.298262,305.676339 616.647545,307.11243 C615.9928,308.519494 615.103101,309.805735 614.016319,310.916401 C612.280285,312.996338 610.362984,314.919328 608.286813,316.662908 C607.644221,317.096756 607.091974,317.650311 606.660509,318.293065 C606.23319,318.964093 606.307963,319.836616 606.843282,320.425822 C606.42927,320.446474 605.686794,320.649266 605.272781,320.669918 C605.127216,319.015894 605.095575,317.353884 605.17808,315.695554 C603.544262,314.91427 601.785111,317.006588 601.99594,318.799306 C602.20677,320.592025 603.508744,322.030638 604.435728,323.581685 C605.188996,324.682783 605.52736,326.013545 605.391069,327.338976 C605.203997,328.692908 604.05091,329.707088 602.67871,329.72459 C600.578537,329.542134 599.700072,326.539499 597.620352,326.195855 C597.436929,326.152974 597.244399,326.172012 597.073023,326.249975 C596.764306,326.418716 596.710645,326.830099 596.693333,327.180389 C596.480465,328.894674 596.656489,330.634682 597.208437,332.272229 C598.194286,334.591111 600.741095,336.538688 600.206856,339 C597.328867,337.667689 595.832525,334.45344 595.153172,331.365994 C594.473819,328.278548 594.360549,325.037309 593.14269,322.118569 C592.217937,323.299001 590.274216,322.323176 589.429259,321.084808 C588.628219,319.91074 588.135029,318.552682 587.357859,317.362845 C586.657854,316.100153 585.40098,315.240107 583.966394,315.042157 C582.473654,314.973555 581.179044,315.993734 580.040531,316.957659 C579.050626,317.688595 578.219131,318.611089 577.595902,319.669827 C576.799561,321.26425 577.007878,323.143904 576.969493,324.924274 C577.052158,326.866761 576.423791,328.773064 575.201199,330.288822 C573.883975,331.697879 571.452684,332.188661 569.999789,330.918746 C569.297456,330.190397 568.796849,329.293062 568.546877,328.314413 C566.970001,323.731168 565.65673,319.062135 564.613455,314.33003 C564.369321,315.410084 563.417015,316.802183 562.507273,316.165966 C562.303138,315.994934 562.137756,315.782721 562.022048,315.543339 C560.325081,312.678975 557.182468,310.960887 554.00725,309.930739 C550.832031,308.900592 547.491307,308.420061 544.35126,307.287905 C542.591624,306.6532 540.910951,305.819453 539.342236,304.803033 C538.527554,305.995076 538.435114,307.536115 539.1015,308.816274 C539.823024,310.081854 541.311807,310.702371 542.72339,310.325859 C543.420621,310.103994 544.009424,309.621956 544.70123,309.383881 C545.389112,309.071117 546.203227,309.300857 546.624108,309.926509 C546.913673,310.561871 546.476003,311.33048 546.693143,311.993873 C547.02381,313.00425 548.553952,313.082089 549.088997,314.001529 C549.414775,314.747616 549.212679,315.618107 548.591116,316.146054 C547.975347,316.645965 547.295901,317.062583 546.570447,317.385075 C544.319071,318.631878 542.718071,320.760264 540.750506,322.416185 C538.782941,324.072105 536.006928,325.281105 533.662071,324.218926 C534.221039,321.400202 530.849568,319.330775 530.229319,316.524797 C530.025162,315.601232 530.130997,314.620154 529.839539,313.720079 C529.417561,312.416978 528.2567,311.52102 527.304377,310.533507 C524.970815,308.087448 523.728676,304.806132 523.860003,301.434622 C524.018415,300.283816 524.018454,299.116869 523.860118,297.966053 C523.666935,296.784757 522.688712,295.887562 521.490693,295.79289 C518.831092,295.9099 515.480632,296.106909 514.085266,293.849015 C513.587261,293.043165 513.370537,291.862909 514.090576,291.245519 C514.662019,290.883554 515.355366,290.764981 516.015322,290.916357 L522.007726,291.503391 C523.409261,291.6407 524.924286,291.754017 526.126975,291.024315 C527.329663,290.294612 527.850794,288.357673 526.737152,287.499167 C525.923455,286.871887 524.465605,286.905901 524.229073,285.908569 C524.032085,285.077943 524.955255,284.135498 524.456657,283.441326 C524.099146,282.943598 523.295398,283.081701 522.808341,283.454812 C522.382427,283.89457 521.918837,284.296523 521.422835,284.656107 C520.466636,285.151692 519.324122,284.680038 518.295366,284.359478 C517.266609,284.038919 515.887458,284.0117 515.38847,284.96326 C514.830414,286.027475 515.883457,287.421954 515.329632,288.488354 C514.597405,289.89825 512.11771,289.095661 511.089369,290.308371 C509.909347,291.699977 511.89233,293.775045 511.494381,295.552894 C510.460889,296.062635 509.234461,295.994017 508.264802,295.3722 C507.309576,294.725151 506.78875,293.607601 506.909158,292.463359 C507.007665,291.663618 507.426324,290.847261 507.145814,290.091504 C506.84166,289.508663 506.340302,289.051751 505.730446,288.801607 L499.907176,285.596904 C499.366529,286.595734 500.050033,287.833979 500.904849,288.584219 C501.759666,289.334459 502.830374,289.899475 503.391926,290.886794 C504.129305,292.30676 503.628844,294.05301 502.249962,294.871432 C502.081503,294.987236 501.870616,295.023876 501.672735,294.971721 C501.485026,294.861872 501.349972,294.681016 501.298355,294.470372 C500.2709,291.851812 498.728278,289.270009 496.261991,287.902114 C493.795705,286.534219 490.25193,286.815466 488.634645,289.119751 C488.25053,289.667068 487.992694,290.290928 487.658054,290.869588 C485.880192,293.943874 482.068714,295.399666 478.507698,295.304577 C478.159338,295.323772 477.812794,295.242683 477.509467,295.070997 C476.933958,294.675146 476.959846,293.835158 477.047962,293.144133 L477.421767,290.211608 C477.423327,289.61226 477.656779,289.036571 478.073586,288.604236 C478.733291,288.08606 479.684959,288.413063 480.525057,288.401013 C481.828889,288.340216 482.955527,287.474267 483.344995,286.233571 C483.690875,284.987097 483.315672,283.652353 482.370218,282.76591 C481.985164,282.405731 481.468343,281.953291 481.671721,281.467746 C481.835988,281.195849 482.112658,281.010291 482.427402,280.960922 C483.936471,280.52449 485.531028,280.410097 487.014935,279.895138 C488.55887,279.476944 489.788868,278.314756 490.289342,276.801249 C490.397036,276.333799 490.446068,275.767549 490.867674,275.535794 C491.079221,275.446843 491.306399,275.400616 491.536026,275.399798 C493.203592,275.163541 494.414096,273.698394 494.325731,272.023251 C495.128596,271.642333 496.084773,271.800204 496.721257,272.418767 C497.331787,273.033937 498.055901,273.525849 498.853797,273.867463 C500.413872,274.29033 501.921525,272.914696 503.538341,272.908315 C504.207607,273.024087 504.891695,273.026513 505.561771,272.915489 C506.210227,272.682791 506.597467,272.039901 507.095153,271.564976 C507.592839,271.090052 508.466109,270.800369 508.925649,271.312005 L508.53432,268.4252 C510.128786,268.826358 511.819534,268.521937 513.172027,267.590175 L508.114342,265.888261 C507.938235,265.844476 507.775749,265.757955 507.641384,265.636418 C507.273678,265.242092 507.638906,264.62761 507.937879,264.179366 C508.653175,263.107042 508.77325,261.340661 507.596963,260.806803 C506.794065,260.442402 505.872471,260.879812 505.101833,261.307748 L501.410404,263.357581 C501.293098,264.056389 502.151198,264.452434 502.682888,264.923137 C503.341377,265.506061 503.572365,266.432129 503.264315,267.254165 C502.956265,268.076201 502.172537,268.625123 501.291576,268.635871 C501.78398,269.273421 501.958669,270.099324 501.766348,270.880518 L499.282626,271.058417 C499.003875,271.114268 498.714258,271.057973 498.477054,270.901831 C498.211413,270.666876 498.247443,270.255141 498.18587,269.906694 C497.957572,269.060757 497.238815,268.43594 496.36634,268.324972 C495.511476,268.231983 494.646562,268.311532 493.823257,268.558869 C493.468394,268.686047 493.078698,268.677091 492.730103,268.533748 C492.53021,268.404426 492.378317,268.213493 492.297628,267.990116 C492.002489,267.059521 492.216517,266.042994 492.862163,265.30886 C493.503707,264.596014 494.212818,263.946476 494.979639,263.369277 C496.709747,261.85747 497.980883,259.893961 498.649455,257.700556 C500.016746,257.130032 501.432274,256.354838 502.799565,255.784322 C504.907555,254.721432 507.27149,254.265293 509.625544,254.467198 L514.255985,254.55528 C515.629266,254.497488 517.001384,254.694149 518.30257,255.135262 C519.622873,255.603737 520.573641,256.762452 520.771609,258.144314 C520.825276,258.457939 520.713096,258.776995 520.474699,258.98877 C520.295677,259.086075 520.092904,259.131596 519.889277,259.120191 C518.610712,259.16495 518.065516,259.482222 516.787013,259.526955 Z" id="Path" fill="#F2F2F2"></path>
                <path d="M479.1735,274.657393 C479.576265,274.279887 479.732022,273.711077 479.577006,273.18383 C478.596389,272.809146 477.486051,273.016743 476.710949,273.71969 C476.411364,274.019722 476.153182,274.357677 475.943121,274.72476 C475.156469,275.733863 474.841106,277.026939 475.075979,278.280289 C475.139385,278.544632 475.30767,278.772537 475.542834,278.912542 C475.715427,278.981134 475.901506,279.009994 476.087015,278.996944 C476.819045,278.996002 477.550353,278.951431 478.276973,278.863474 C478.723202,278.809459 479.241479,278.684689 479.413935,278.273628 C479.640626,277.73328 479.09195,277.121766 479.251898,276.558497 C479.357127,276.306608 479.516596,276.080485 479.719179,275.895906 C479.92294,275.70747 480.025061,275.434951 479.994749,275.160522 C479.930202,274.896224 479.521486,274.746303 479.374354,274.975908" id="Path" fill="#F2F2F2"></path>
                <path d="M482.746741,270.139974 C482.097959,270.005477 481.429201,269.96756 480.76688,270.02772 C480.620397,270.023783 480.475213,270.053571 480.345001,270.114281 C480.218843,270.19829 480.127352,270.317916 480.08503,270.454195 C479.794947,271.294846 480.268941,272.195652 481.173967,272.523672 C481.411828,272.573048 481.63967,272.655715 481.849231,272.768676 C482.4092,273.160942 482.052219,273.962732 482.158227,274.59544 C482.277262,275.305897 483.038958,275.902298 482.899305,276.609691 C482.789286,277.167009 482.130011,277.608337 482.236153,278.166238 C482.34733,278.750598 483.168649,278.926192 483.823266,278.97299 C484.20267,279.032972 484.593193,278.992562 484.947729,278.856635 C485.303081,278.637243 485.55582,278.306774 485.657158,277.929018 C485.925154,277.208739 486.037761,276.448759 485.988883,275.690206 C485.986008,275.345187 485.890037,275.005999 485.709279,274.702008 C485.512136,274.461197 485.29361,274.235272 485.055867,274.026473 C483.801646,272.709279 485.122299,270.744429 482.746741,270.139974 Z" id="Path" fill="#F2F2F2"></path>
                <circle id="Oval" fill="#D6CDFF" cx="384" cy="279" r="4"></circle>
                <circle id="Oval" fill="#D6CDFF" cx="418" cy="361" r="4"></circle>
                <circle id="Oval" fill="#D6CDFF" cx="566" cy="278" r="4"></circle>
                <circle id="Oval" fill="#D6CDFF" cx="634" cy="375" r="4"></circle>
                <circle id="Oval" fill="#D6CDFF" cx="508" cy="334" r="4"></circle>
                <path d="M156.999998,139.889823 C157.008218,157.011505 146.936994,162.993904 134.511104,163 C134.222475,163 133.935234,162.997025 133.649384,162.990659 C133.073493,162.978387 132.503597,162.952153 131.939694,162.911956 C120.724529,162.115169 112.007655,155.835029 111.999998,139.911911 C111.992104,123.433451 132.82632,102.62773 134.388787,101.089343 L134.391543,101.087942 C134.450902,101.029314 134.481275,101 134.481275,101 C134.481275,101 156.991763,122.76957 156.999998,139.889823 Z" id="Path" fill="#B1F3B8"></path>
                <path d="M133.123968,160.390371 L141.407422,148.767326 L133.103716,161.665881 L133.082121,163 C132.502036,162.987726 131.927989,162.961488 131.359979,162.921286 L132.244727,145.78963 L132.237717,145.657068 L132.252992,145.631935 L132.337075,144.01311 L124,131.090567 L132.361517,142.800397 L132.382547,143.143686 L133.050926,130.20001 L125.912717,116.845673 L133.137457,127.92529 L133.826954,101.089312 L133.829685,101 L133.82973,101.087911 L133.723149,122.250862 L140.817442,113.85761 L133.693413,124.073408 L133.511235,135.663197 L140.13683,124.537775 L133.485644,137.367131 L133.384439,143.811677 L143,128.325212 L133.347931,146.059907 L133.123968,160.390371 Z" id="Path" fill="#D6CDFF"></path>
            </g>
        </g>
    </g>
</svg>