<?xml version="1.0" encoding="UTF-8"?>
<svg width="819px" height="604px" viewBox="0 0 819 604" version="1.1" xmlns="http://www.w3.org/2000/svg" xmlns:xlink="http://www.w3.org/1999/xlink">
    <!-- Generator: Sketch 61 (89581) - https://sketch.com -->
    <title>Cover2</title>
    <desc>Created with Sketch.</desc>
    <g id="06-Create-Profile" stroke="none" stroke-width="1" fill="none" fill-rule="evenodd">
        <g id="Cover2.svg" transform="translate(-735.000000, -503.000000)" fill-rule="nonzero">
            <g id="Cover2" transform="translate(735.000000, 503.000000)">
                <g id="Board" transform="translate(265.000000, 99.337630)">
                    <rect id="Rectangle" fill="#9B9B9B" x="0" y="0" width="554" height="226"></rect>
                    <path d="M79.6211,84.13446 L38.31744,84.13446 C35.4988,67.8398939 35.4988,51.1823461 38.31744,34.88778 L79.6211,34.88778 C74.96792,50.9735906 74.96792,68.0486494 79.6211,84.13446 L79.6211,84.13446 Z" id="Path" fill="#BBBBBB"></path>
                    <path d="M115.3789,105.11218 L156.68256,105.11218 C159.5012,88.8176173 159.5012,72.1600727 156.68256,55.86551 L115.3789,55.86551 C120.03208,71.9513172 120.03208,89.0263728 115.3789,105.11218 Z" id="Path" fill="#BBBBBB"></path>
                    <path d="M207.214,32.86484 C213.997738,67.0460903 215.92897,102.013001 212.95069,136.73341 C212.167723,145.773643 211.04941,154.77584 209.59575,163.74 C208.9326,167.81528 208.17739,171.87138 207.40138,175.92635 C206.95673,178.24982 206.02387,181.14256 207.48483,183.32954 C210.33052,187.58938 220.08231,186.47768 224.37955,186.61671 C233.31938,186.90595 242.27214,186.95463 251.21517,187.11071 L278.11987,187.58028 L291.07398,187.80637 C295.48769,187.88337 300.32189,188.56753 304.70078,188.00298 C310.46378,187.25998 309.05987,181.22452 308.97262,176.74049 C308.80014,167.875783 308.563807,159.012627 308.26362,150.15102 C307.0747,115.03398 304.885983,79.9698233 301.69747,44.95855 C301.29059,40.49195 301.54478,35.14809 300.34147,30.8293 C299.855,29.0833 299.37105,28.57846 297.47505,28.26486 C293.13141,27.54641 287.95517,28.30293 283.5605,28.33351 L268.86568,28.43577 L209.10674,28.85163 C208.298528,28.8796315 207.657809,29.5429331 207.657809,30.35163 C207.657809,31.1603269 208.298528,31.8236285 209.10674,31.85163 L258.08948,31.51076 L279.64188,31.36076 L291.39774,31.27895 C293.81387,31.26214 296.0721,30.53054 297.58739,33.18895 C298.54619,34.87105 298.15333,39.07738 298.33582,41.03456 C301.262647,72.42332 303.385667,103.873233 304.70488,135.3843 C305.034493,143.25864 305.313753,151.13487 305.54266,159.01299 C305.63804,162.29545 305.72467,165.57815 305.80255,168.86109 C305.849283,170.830837 305.892863,172.800663 305.93329,174.77057 C305.97499,176.80237 306.81589,180.7842 306.0782,182.65046 C304.50504,186.63034 297.4926,184.91838 294.06343,184.85853 L282.10579,184.64983 L258.19051,184.23244 L234.27522,183.81504 C230.32075,183.74604 226.36241,183.71586 222.41053,183.54737 C221.0996,183.49148 219.78692,183.42863 218.47782,183.33537 C214.57963,183.0578 210.38324,183.97912 209.91976,178.59177 C209.63376,175.26693 211.45198,170.68216 212.01988,167.35631 C212.661213,163.60057 213.243777,159.835457 213.76757,156.06097 C214.747443,149.009217 215.5282,141.933883 216.10984,134.83497 C218.856353,100.466141 216.836214,65.8825912 210.10684,32.06728 C209.73253,30.17503 206.84038,30.97604 207.214,32.8648 L207.214,32.86484 Z" id="Path" fill="#F1F1F1"></path>
                    <path d="M404.214,32.86484 C410.997738,67.0460903 412.92897,102.013001 409.95069,136.73341 C409.167723,145.773643 408.04941,154.77584 406.59575,163.74 C405.9326,167.81528 405.17739,171.87138 404.40138,175.92635 C403.95673,178.24982 403.02387,181.14256 404.48483,183.32954 C407.33052,187.58938 417.08231,186.47768 421.37955,186.61671 C430.31938,186.90595 439.27214,186.95463 448.21517,187.11071 L475.11987,187.58028 L488.07398,187.80637 C492.48769,187.88337 497.32189,188.56753 501.70078,188.00298 C507.46378,187.25998 506.05987,181.22452 505.97262,176.74049 C505.80014,167.875783 505.563807,159.012627 505.26362,150.15102 C504.0747,115.03398 501.885983,79.9698233 498.69747,44.95855 C498.29059,40.49195 498.54478,35.14809 497.34147,30.8293 C496.855,29.0833 496.37105,28.57846 494.47505,28.26486 C490.13141,27.54641 484.95517,28.30293 480.5605,28.33351 L465.86568,28.43577 L406.10674,28.85163 C405.298528,28.8796315 404.657809,29.5429331 404.657809,30.35163 C404.657809,31.1603269 405.298528,31.8236285 406.10674,31.85163 L455.08948,31.51076 L476.64188,31.36076 L488.39774,31.27895 C490.81387,31.26214 493.0721,30.53054 494.58739,33.18895 C495.54619,34.87105 495.15333,39.07738 495.33582,41.03456 C498.262647,72.42332 500.385667,103.873233 501.70488,135.3843 C502.034487,143.25864 502.313747,151.13487 502.54266,159.01299 C502.63804,162.29545 502.72467,165.57815 502.80255,168.86109 C502.849283,170.830837 502.892863,172.800663 502.93329,174.77057 C502.97499,176.80237 503.81589,180.7842 503.0782,182.65046 C501.50504,186.63034 494.4926,184.91838 491.06343,184.85853 L479.10579,184.64983 L455.19051,184.23244 L431.27522,183.81504 C427.32075,183.74604 423.36241,183.71586 419.41053,183.54737 C418.0996,183.49148 416.78692,183.42863 415.47782,183.33537 C411.57963,183.0578 407.38324,183.97912 406.91976,178.59177 C406.63376,175.26693 408.45198,170.68216 409.01988,167.35631 C409.661213,163.60057 410.243777,159.835457 410.76757,156.06097 C411.747443,149.009217 412.5282,141.933883 413.10984,134.83497 C415.856353,100.466141 413.836214,65.8825912 407.10684,32.06728 C406.73253,30.17503 403.84038,30.97604 404.214,32.8648 L404.214,32.86484 Z" id="Path" fill="#F1F1F1"></path>
                    <path d="M221.00787,40.58661 L240.85039,40.58661 C241.658602,40.5586085 242.299321,39.8953069 242.299321,39.08661 C242.299321,38.2779131 241.658602,37.6146115 240.85039,37.58661 L221.00787,37.58661 C220.199658,37.6146115 219.558939,38.2779131 219.558939,39.08661 C219.558939,39.8953069 220.199658,40.5586085 221.00787,40.58661 L221.00787,40.58661 Z" id="Path" fill="#F1F1F1"></path>
                    <path d="M221.00653,47.35418 L239.7099,46.64718 C241.63436,46.57444 241.64384,43.57408 239.7099,43.64718 L221.00653,44.35418 C219.08206,44.42692 219.07258,47.42728 221.00653,47.35418 Z" id="Path" fill="#F1F1F1"></path>
                    <path d="M221.00787,53.05905 L239.14961,53.05905 C239.957822,53.0310485 240.598541,52.3677469 240.598541,51.55905 C240.598541,50.7503531 239.957822,50.0870515 239.14961,50.05905 L221.00787,50.05905 C220.199658,50.0870515 219.558939,50.7503531 219.558939,51.55905 C219.558939,52.3677469 220.199658,53.0310485 221.00787,53.05905 L221.00787,53.05905 Z" id="Path" fill="#F1F1F1"></path>
                    <path d="M281.12681,39.17818 C277.05496,37.0535 273.35904,40.54733 272.7856,44.53903 C272.50521,46.49087 272.4446,49.15858 273.68805,50.8166 C274.95794,52.50984 277.40055,53.21981 279.42882,53.34497 C283.30135,53.58397 287.42165,51.42381 288.37435,47.4582 C289.304291,43.8117794 287.330059,40.0519333 283.80035,38.7472 C281.97235,38.11375 281.18684,41.01075 283.00283,41.64004 C284.732182,42.3589719 285.778374,44.1341795 285.56956,45.99534 C285.324753,48.1364482 283.687133,49.8541886 281.56015,50.20091 C279.08415,50.77042 276.18231,50.15922 275.70355,47.366 C275.34539,45.27638 276.48018,40.13409 279.61265,41.76861 C281.32238,42.66075 282.84093,40.07261 281.12681,39.1782 L281.12681,39.17818 Z" id="Path" fill="#F1F1F1"></path>
                    <path d="M418.00787,40.58661 L437.85039,40.58661 C438.658602,40.5586085 439.299321,39.8953069 439.299321,39.08661 C439.299321,38.2779131 438.658602,37.6146115 437.85039,37.58661 L418.00787,37.58661 C417.199658,37.6146115 416.558939,38.2779131 416.558939,39.08661 C416.558939,39.8953069 417.199658,40.5586085 418.00787,40.58661 L418.00787,40.58661 Z" id="Path" fill="#F1F1F1"></path>
                    <path d="M418.00653,47.35418 L436.7099,46.64718 C438.63436,46.57444 438.64384,43.57408 436.7099,43.64718 L418.00653,44.35418 C416.08206,44.42692 416.07258,47.42728 418.00653,47.35418 Z" id="Path" fill="#F1F1F1"></path>
                    <path d="M418.00787,53.05905 L436.14961,53.05905 C436.957822,53.0310485 437.598541,52.3677469 437.598541,51.55905 C437.598541,50.7503531 436.957822,50.0870515 436.14961,50.05905 L418.00787,50.05905 C417.199658,50.0870515 416.558939,50.7503531 416.558939,51.55905 C416.558939,52.3677469 417.199658,53.0310485 418.00787,53.05905 L418.00787,53.05905 Z" id="Path" fill="#F1F1F1"></path>
                    <path d="M478.12681,39.17818 C474.05496,37.0535 470.35904,40.54733 469.7856,44.53903 C469.50521,46.49087 469.4446,49.15858 470.68805,50.8166 C471.95794,52.50984 474.40055,53.21981 476.42882,53.34497 C480.30135,53.58397 484.42165,51.42381 485.37435,47.4582 C486.304291,43.8117794 484.330059,40.0519333 480.80035,38.7472 C478.97235,38.11375 478.18684,41.01075 480.00283,41.64004 C481.732182,42.3589719 482.778374,44.1341795 482.56956,45.99534 C482.324753,48.1364482 480.687133,49.8541886 478.56015,50.20091 C476.08415,50.77042 473.18231,50.15922 472.70355,47.366 C472.34539,45.27638 473.48018,40.13409 476.61265,41.76861 C478.32238,42.66075 479.84093,40.07261 478.12681,39.1782 L478.12681,39.17818 Z" id="Path" fill="#F1F1F1"></path>
                    <path d="M224.9763,69.51071 C246.80194,69.74021 268.60514,69.0663433 290.3859,67.48911 L288.93948,65.59035 C285.37417,74.62435 285.47236,84.14601 285.94495,93.70276 C286.06335,96.09714 286.81448,99.326 286.32863,101.69756 C285.71763,104.67999 283.04036,103.96699 280.37776,104.05309 C274.51304,104.242743 268.646947,104.379023 262.77948,104.46193 C257.238273,104.54023 251.69665,104.57108 246.15461,104.55448 C243.546737,104.546307 240.938917,104.527793 238.33115,104.49894 C235.26887,104.46481 231.788,105.35402 230.99721,101.80694 C230.49067,99.53486 231.00072,96.54638 231.00228,94.20975 L231.00799,85.66291 L231.0194,68.56922 C230.991399,67.761008 230.328097,67.1202893 229.5194,67.1202893 C228.710703,67.1202893 228.047401,67.761008 228.0194,68.56922 L228.0054,89.4615 L227.99906,98.95799 C227.9978,100.84429 227.6059,103.12321 228.3102,104.91399 C229.93028,109.0333 236.93096,107.48783 240.28692,107.51872 C247.132347,107.58172 253.97793,107.57133 260.82367,107.48755 C267.668917,107.40467 274.512747,107.2493 281.35516,107.02144 C284.3028,106.92338 288.38181,107.59384 289.27592,103.95839 C289.90277,101.4096 289.17192,98.08639 289.03819,95.48551 C288.88556,92.51741 288.7216,89.54864 288.68177,86.5763 C288.58877,79.63547 289.26887,72.88312 291.83227,66.38783 C291.953827,65.9366028 291.859149,65.4545134 291.575968,65.0827733 C291.292787,64.7110332 290.853156,64.4917185 290.38585,64.48907 C268.616037,66.06597 246.812837,66.7398367 224.97625,66.51067 C224.168038,66.5386715 223.527319,67.2019731 223.527319,68.01067 C223.527319,68.8193669 224.168038,69.4826685 224.97625,69.51067 L224.9763,69.51071 Z" id="Path" fill="#F1F1F1"></path>
                    <path d="M231.19643,71.14086 C240.538844,74.4471474 249.647319,78.3805593 258.45969,82.91425 C266.36604,87.00025 276.7166,91.46364 282.15777,98.76645 C283.29813,100.29698 285.90348,98.80288 284.74818,97.25229 C279.19187,89.79493 269.62635,85.40701 261.59145,81.16845 C252.047225,76.1595254 242.156013,71.8416397 231.99395,68.24803 C230.17179,67.59921 229.38756,70.49678 231.19643,71.14086 L231.19643,71.14086 Z" id="Path" fill="#F1F1F1"></path>
                    <path d="M289.87586,65.79824 C279.96219,70.03751 271.56328,78.20524 262.70386,84.25724 C253.11428,90.8081 243.239317,96.90456 233.07897,102.54662 C231.39311,103.48802 232.90407,106.08022 234.59313,105.13703 C244.731877,99.4754833 254.60684,93.3790233 264.21802,86.84765 C273.07565,80.7968 281.47882,72.62683 291.39002,68.3886 C293.15981,67.63181 291.63319,65.04672 289.87587,65.79819 L289.87586,65.79824 Z" id="Path" fill="#F1F1F1"></path>
                    <path d="M421.9763,69.51071 C443.80194,69.74021 465.60514,69.0663433 487.3859,67.48911 L485.93948,65.59035 C482.37417,74.62435 482.47236,84.14601 482.94495,93.70276 C483.06335,96.09714 483.81448,99.326 483.32863,101.69756 C482.71763,104.67999 480.04036,103.96699 477.37776,104.05309 C471.51304,104.242743 465.646947,104.379023 459.77948,104.46193 C454.238273,104.54023 448.69665,104.57108 443.15461,104.55448 C440.546737,104.546307 437.938917,104.527793 435.33115,104.49894 C432.26887,104.46481 428.788,105.35402 427.99721,101.80694 C427.49067,99.53486 428.00072,96.54638 428.00228,94.20975 L428.00799,85.66291 L428.0194,68.56922 C427.991399,67.761008 427.328097,67.1202893 426.5194,67.1202893 C425.710703,67.1202893 425.047401,67.761008 425.0194,68.56922 L425.0054,89.4615 L424.99906,98.95799 C424.9978,100.84429 424.6059,103.12321 425.3102,104.91399 C426.93028,109.0333 433.93096,107.48783 437.28692,107.51872 C444.132347,107.58172 450.97793,107.57133 457.82367,107.48755 C464.668917,107.40467 471.512747,107.2493 478.35516,107.02144 C481.3028,106.92338 485.38181,107.59384 486.27592,103.95839 C486.90277,101.4096 486.17192,98.08639 486.03819,95.48551 C485.88556,92.51741 485.7216,89.54864 485.68177,86.5763 C485.58877,79.63547 486.26887,72.88312 488.83227,66.38783 C488.953827,65.9366028 488.859149,65.4545134 488.575968,65.0827733 C488.292787,64.7110332 487.853156,64.4917185 487.38585,64.48907 C465.616037,66.06597 443.812837,66.7398367 421.97625,66.51067 C421.168038,66.5386715 420.527319,67.2019731 420.527319,68.01067 C420.527319,68.8193669 421.168038,69.4826685 421.97625,69.51067 L421.9763,69.51071 Z" id="Path" fill="#F1F1F1"></path>
                    <path d="M428.19643,71.14086 C437.538844,74.4471474 446.647319,78.3805593 455.45969,82.91425 C463.36604,87.00025 473.7166,91.46364 479.15777,98.76645 C480.29813,100.29698 482.90348,98.80288 481.74818,97.25229 C476.19187,89.79493 466.62635,85.40701 458.59145,81.16845 C449.047225,76.1595254 439.156013,71.8416397 428.99395,68.24803 C427.17179,67.59921 426.38756,70.49678 428.19643,71.14086 L428.19643,71.14086 Z" id="Path" fill="#F1F1F1"></path>
                    <path d="M486.87586,65.79824 C476.96219,70.03751 468.56328,78.20524 459.70386,84.25724 C450.11428,90.8081 440.239317,96.90456 430.07897,102.54662 C428.39311,103.48802 429.90407,106.08022 431.59313,105.13703 C441.731877,99.4754833 451.60684,93.3790233 461.21802,86.84765 C470.07565,80.7968 478.47882,72.62683 488.39002,68.3886 C490.15981,67.63181 488.63319,65.04672 486.87587,65.79819 L486.87586,65.79824 Z" id="Path" fill="#F1F1F1"></path>
                    <path d="M421.9763,129.51071 C443.80194,129.74021 465.60514,129.066343 487.3859,127.48911 L485.93948,125.59035 C482.37417,134.62435 482.47236,144.14601 482.94495,153.70276 C483.06335,156.09714 483.81448,159.326 483.32863,161.69756 C482.71763,164.67999 480.04036,163.96699 477.37776,164.05309 C471.51304,164.242743 465.646947,164.379023 459.77948,164.46193 C454.238273,164.54023 448.69665,164.57108 443.15461,164.55448 C440.546737,164.546313 437.938917,164.5278 435.33115,164.49894 C432.26887,164.46481 428.788,165.35402 427.99721,161.80694 C427.49067,159.53486 428.00072,156.54638 428.00228,154.20975 L428.00799,145.66291 L428.0194,128.56922 C427.991399,127.761008 427.328097,127.120289 426.5194,127.120289 C425.710703,127.120289 425.047401,127.761008 425.0194,128.56922 L425.0054,149.4615 L424.99906,158.95799 C424.9978,160.84429 424.6059,163.12321 425.3102,164.91399 C426.93028,169.0333 433.93096,167.48783 437.28692,167.51872 C444.132347,167.58172 450.97793,167.57133 457.82367,167.48755 C464.668917,167.40467 471.512747,167.2493 478.35516,167.02144 C481.3028,166.92338 485.38181,167.59384 486.27592,163.95844 C486.90277,161.40965 486.17192,158.08644 486.03819,155.48556 C485.88556,152.51746 485.7216,149.54869 485.68177,146.57635 C485.58877,139.63552 486.26887,132.88317 488.83227,126.38788 C488.953827,125.936653 488.859149,125.454563 488.575968,125.082823 C488.292787,124.711083 487.853156,124.491769 487.38585,124.48912 C465.616037,126.06602 443.812837,126.739887 421.97625,126.51072 C421.168038,126.538721 420.527319,127.202023 420.527319,128.01072 C420.527319,128.819417 421.168038,129.482719 421.97625,129.51072 L421.9763,129.51071 Z" id="Path" fill="#F1F1F1"></path>
                    <path d="M428.19643,131.14086 C437.538844,134.447147 446.647319,138.380559 455.45969,142.91425 C463.36604,147.00025 473.7166,151.46364 479.15777,158.76645 C480.29813,160.29698 482.90348,158.80288 481.74818,157.25229 C476.19187,149.79493 466.62635,145.40701 458.59145,141.16845 C449.047225,136.159525 439.156013,131.84164 428.99395,128.24803 C427.17179,127.59921 426.38756,130.49678 428.19643,131.14086 Z" id="Path" fill="#F1F1F1"></path>
                    <path d="M486.87586,125.79824 C476.96219,130.03751 468.56328,138.20524 459.70386,144.25724 C450.11428,150.8081 440.239317,156.90456 430.07897,162.54662 C428.39311,163.48802 429.90407,166.08022 431.59313,165.13703 C441.731877,159.475477 451.60684,153.379017 461.21802,146.84765 C470.07565,140.7968 478.47882,132.62683 488.39002,128.38865 C490.15981,127.63186 488.63319,125.04677 486.87587,125.79824 L486.87586,125.79824 Z" id="Path" fill="#F1F1F1"></path>
                    <path d="M230.6469,127.24934 C250.86966,127.556993 271.09169,127.47636 291.31299,127.00744 C293.24038,126.96275 293.24744,123.96258 291.31299,124.00744 C271.093317,124.476353 250.871287,124.556987 230.6469,124.24934 C229.838688,124.277341 229.197969,124.940643 229.197969,125.74934 C229.197969,126.558037 229.838688,127.221339 230.6469,127.24934 Z" id="Path" fill="#F1F1F1"></path>
                    <path d="M232.34782,140.85075 C253.137293,141.182457 273.92606,141.093173 294.71412,140.5829 C296.64128,140.53559 296.64856,137.53541 294.71412,137.5829 C273.928273,138.093173 253.139507,138.182457 232.34782,137.85075 C230.41663,137.81993 230.41609,140.81993 232.34782,140.85075 Z" id="Path" fill="#F1F1F1"></path>
                    <path d="M230.0724,155.53674 L289.03751,152.79853 C290.95986,152.70927 290.97077,149.70876 289.03751,149.79853 L230.0724,152.53674 C228.15005,152.62601 228.13914,155.62651 230.0724,155.53674 Z" id="Path" fill="#F1F1F1"></path>
                    <path d="M321.92126,113.15354 L378.04726,113.15354 C378.855472,113.125539 379.496191,112.462237 379.496191,111.65354 C379.496191,110.844843 378.855472,110.181541 378.04726,110.15354 L321.92126,110.15354 C321.113048,110.181541 320.472329,110.844843 320.472329,111.65354 C320.472329,112.462237 321.113048,113.125539 321.92126,113.15354 L321.92126,113.15354 Z" id="Path" fill="#F1F1F1"></path>
                    <path d="M375.58849,96.00202 L384.35749,104.00607 C385.36033,104.92144 388.11884,106.81127 388.74197,108.00807 C390.03034,110.48259 388.64605,109.91807 386.43839,110.77554 C381.013715,112.934198 376.015029,116.038134 371.6747,119.94306 C370.22333,121.22199 372.35181,123.337 373.79602,122.06438 C377.754505,118.506583 382.302433,115.665459 387.23591,113.66838 C389.00491,112.96858 392.36111,112.55877 393.20161,110.45158 C394.2303,107.87258 390.95404,105.96958 389.4018,104.55274 L377.7098,93.88067 C376.28628,92.58131 374.1588,94.69702 375.58848,96.00199 L375.58849,96.00202 Z" id="Path" fill="#F1F1F1"></path>
                    <path d="M239.3789,213.11218 L280.68256,213.11218 C283.5012,196.817617 283.5012,180.160073 280.68256,163.86551 L239.3789,163.86551 C244.03208,179.951317 244.03208,197.026373 239.3789,213.11218 L239.3789,213.11218 Z" id="Path" fill="#B1F3B8"></path>
                    <path d="M67.3789,176.11218 L108.68256,176.11218 C111.5012,159.817617 111.5012,143.160073 108.68256,126.86551 L67.3789,126.86551 C72.0320803,142.951317 72.0320803,160.026373 67.3789,176.11218 Z" id="Path" fill="#B1F3B8"></path>
                    <path d="M328.3789,68.11218 L369.68256,68.11218 C372.5012,51.8176173 372.5012,35.1600727 369.68256,18.86551 L328.3789,18.86551 C333.03208,34.9513172 333.03208,52.0263728 328.3789,68.11218 L328.3789,68.11218 Z" id="Path" fill="#787878"></path>
                </g>
                <g id="Woman">
                    <rect id="Rectangle" fill="#2F2E41" x="93.5193542" y="60.22808" width="59.47284" height="86.67224"></rect>
                    <path d="M105.012914,100.20924 C105.012914,100.20924 107.250414,143 87.4646942,144.75472 C73.6213442,145.98243 114.461964,183.90072 114.461964,183.90072 L149.558414,135.30568 C149.558414,135.30568 123.250414,138 140.109414,108.30841 L105.012914,100.20924 Z" id="Path" fill="#FFB8B8"></path>
                    <path d="M149.560414,135.31 L138.470414,150.67 L114.460414,183.9 C114.460414,183.9 94.4104142,165.28 87.1704142,153.72 C84.4504142,149.37 83.5304642,146.02 86.1704142,145.03 C86.1821541,145.022061 86.1963193,145.018519 86.2104142,145.02 C86.5894982,144.878053 86.9867776,144.790516 87.3904142,144.76 C87.4134231,144.754695 87.4368402,144.75135 87.4604142,144.75 C88.6133917,144.653103 89.7474499,144.397351 90.8304142,143.99 C106.990414,137.95 105.010414,100.21 105.010414,100.21 L140.110414,108.31 C128.860414,128.12 136.830414,133.52 143.380414,134.91 C144.817924,135.209778 146.281992,135.36389 147.750414,135.37 C148.860414,135.38001 149.560414,135.31 149.560414,135.31 Z" id="Path" fill="#FFC1C1" opacity="0.1"></path>
                    <path d="M159.876954,65.065 C153.451174,84.09011 143.598094,101.42484 123.517104,101.42484 C103.436114,101.42484 88.2887142,85.11408 87.1572542,65.065 C85.7114842,39.44626 102.972884,28.599 123.517104,28.70515 C147.786774,28.8305 167.502814,42.48681 159.876954,65.065 Z" id="Path" fill="#000000"></path>
                    <path d="M73.9660642,374.23145 L83.4150642,440.37475 C83.4150642,440.37475 75.3158942,480.87064 79.3654742,509.21775 L83.4150642,538.91475 L102.313154,538.91475 L107.712604,507.8679 C107.712604,507.8679 113.112054,475.47118 113.112054,460.62269 C113.112054,460.62269 127.960554,393.12953 118.511514,379.6309 L73.9660642,374.23145 Z" id="Path" fill="#FFC1C1"></path>
                    <path d="M188.704414,370.18186 L179.255414,440.37475 C179.255414,440.37475 187.354594,480.87064 183.305004,509.21775 L179.255414,538.91475 L160.357304,538.91475 L154.957854,507.8679 C154.957854,507.8679 149.558414,475.47119 149.558414,460.6227 C149.558414,460.6227 134.709914,389.07995 144.158964,375.58132 L188.704414,370.18186 Z" id="Path" fill="#FFC1C1"></path>
                    <path d="M169.806354,534.86519 C169.806354,534.86519 180.605254,530.8156 181.955114,536.21505 C183.304974,541.6145 186.004704,569.96163 186.004704,569.96163 C186.004704,569.96163 194.103884,582.1104 199.503334,583.46026 C204.902784,584.81012 217.051564,602.35835 202.203064,603.70821 C187.354564,605.05807 172.506064,599.65862 172.506064,596.95889 C172.506064,594.25916 167.106614,592.9093 164.406884,592.9093 C161.707154,592.9093 152.258114,588.85971 153.607984,584.81013 C154.957854,580.76055 159.007434,533.51533 159.007434,533.51533 L169.806354,534.86519 Z" id="Path" fill="#7F7F7F"></path>
                    <path d="M92.8641542,534.86519 C92.8641542,534.86519 82.0652442,530.8156 80.7153842,536.21505 C79.3655242,541.6145 76.6657942,569.96163 76.6657942,569.96163 C76.6657942,569.96163 68.5666142,582.1104 63.1671642,583.46026 C57.7677142,584.81012 45.6189442,602.35833 60.4674142,603.70819 C75.3158842,605.05805 90.1644142,599.6586 90.1644142,596.95887 C90.1644142,594.25914 95.5638642,592.90928 98.2635942,592.90928 C100.963324,592.90928 110.412364,588.85969 109.062494,584.81011 C107.712624,580.76053 103.663044,533.51531 103.663044,533.51531 L92.8641542,534.86519 Z" id="Path" fill="#7F7F7F"></path>
                    <circle id="Oval" fill="#FFC1C1" cx="125.260864" cy="88.06047" r="27.98955"></circle>
                    <path d="M230.550414,241.94001 C230.550414,241.94001 173.860414,266.24001 168.460414,240.59001 C165.14001,224.560151 162.885074,208.327951 161.710414,192.00001 C161.70502,191.994579 161.697995,191.991067 161.690414,191.99001 C160.900414,191.51001 132.970414,174.37001 138.470414,150.67001 C139.750622,145.53629 142.1552,140.751043 145.510414,136.66001 C145.510414,136.66001 146.340414,136.12001 147.750414,135.37001 C149.403325,134.487204 151.110013,133.709007 152.860414,133.04001 C162.390414,129.41001 178.240414,127.36001 181.950414,151.50001 C187.350414,186.60001 187.350414,224.40001 187.350414,224.40001 C187.350414,224.40001 203.550414,233.85001 225.150414,224.40001 C246.750414,214.95001 268.350414,220.35001 269.700414,232.50001 C271.050414,244.64002 230.550414,241.94001 230.550414,241.94001 Z" id="Path" fill="#FFC1C1"></path>
                    <path d="M87.4604142,144.75 L87.1704142,153.72 L83.9504142,254.84 L83.4104142,271.64005 L36.1704142,324.29005 C36.1704142,324.29005 26.7204142,352.63005 6.4704142,356.68005 C-13.7795858,360.73005 19.9704142,317.54005 19.9704142,317.54005 L65.8704142,250.04005 L65.9404142,247.77005 C66.4574528,228.857608 64.8812041,209.945994 61.2404142,191.3801 C59.8931185,184.469496 59.6333217,177.390875 60.4704142,170.4001 C62.3504142,155.3401 74.7404142,148.8101 82.0604142,146.2401 C83.4058579,145.757613 84.7781642,145.3536 86.1704142,145.0301 C86.1821541,145.022161 86.1963193,145.018619 86.2104142,145.0201 C86.8204142,144.8701 87.2304142,144.7901 87.3904142,144.7601 C87.4134202,144.754761 87.4368374,144.75 87.4604142,144.75 L87.4604142,144.75 Z" id="Path" fill="#FFC1C1"></path>
                    <path d="M163.060414,241.94001 L163.060414,247.34001 C143.380414,271.39006 99.8204142,260.03001 83.9504142,254.84001 C80.2204142,253.62001 78.0204142,252.74001 78.0204142,252.74001 C78.8282387,251.048845 79.2873583,249.212367 79.3704142,247.34001 L79.3704142,235.20002 C79.3704142,231.15002 80.7104142,233.85002 82.0604142,232.50002 C83.4104142,231.15002 78.0204142,223.05002 78.0204142,223.05002 C64.5204142,214.95002 72.6204142,192.00002 72.6204142,192.00002 L82.0604142,171.75002 L82.0604142,146.24002 C83.4058579,145.757533 84.7781642,145.35352 86.1704142,145.03002 C86.1821541,145.022081 86.1963193,145.018539 86.2104142,145.02002 C86.5894982,144.878073 86.9867776,144.790536 87.3904142,144.76002 C87.4134231,144.754715 87.4368402,144.75137 87.4604142,144.75002 C88.6133917,144.653123 89.7474499,144.397371 90.8304142,143.99002 C93.3604142,149.21002 98.8604142,156.08002 110.410364,156.90002 C124.240364,157.89002 137.350364,142.98002 143.380364,134.91002 C144.817874,135.209798 146.281942,135.36391 147.750364,135.37002 C149.403275,134.487214 151.109963,133.709017 152.860364,133.04002 L146.860364,158.25002 C141.550364,171.52002 161.020364,191.30002 161.690364,191.99002 C161.697945,191.991077 161.70497,191.994589 161.710364,192.00002 L161.710364,206.85002 L160.360364,223.05002 L159.010364,227.10002 L161.710364,231.15002 L160.360364,235.20002 L161.710364,237.90002 C163.060414,240.58997 163.060414,239.25 163.060414,241.94001 Z" id="Path" fill="#D6CDFF"></path>
                    <path d="M80.7154142,251.39391 L78.3106708,250.849032 C78.3106708,250.849032 41.5693642,537.294114 73.9660642,542.693574 C106.362764,548.093034 103.794233,552.142624 109.193693,542.693574 C114.593153,533.244524 125.260844,339.13502 125.260844,339.13502 L130.660294,337.78516 C130.660294,337.78516 141.459254,542.96434 160.357304,538.91475 C179.255354,534.86516 188.704414,544.3142 188.704414,538.91475 C188.704414,536.274295 200.899779,468.001304 194.631717,396.915043 C188.082259,322.637458 163.057014,245.46834 163.057014,245.46834 C163.057014,245.46834 142.809084,258.14319 80.7154142,251.39391 Z" id="Path" fill="#000000"></path>
                    <circle id="Oval" fill="#000000" cx="123.517104" cy="22.00728" r="14.35257"></circle>
                    <path d="M106.294024,14.35258 C106.294573,6.98197678 111.877705,0.809819144 119.211334,0.07248 C118.739164,0.02558 118.260624,0 117.776074,0 C109.849366,0 103.423499,6.42586671 103.423499,14.352575 C103.423499,22.2792833 109.849366,28.70515 117.776074,28.70515 C118.260624,28.70515 118.739164,28.67957 119.211334,28.63267 C111.877717,27.8953135 106.294597,21.7231722 106.294024,14.35258 L106.294024,14.35258 Z" id="Path" fill="#000000"></path>
                    <path d="M111.959644,52.01959 C111.959644,52.01959 111.659954,50.35127 99.9389342,54.74665 C88.2179142,59.14203 81.1919342,91.57804 87.0524742,110.6247 C89.4142442,118.30043 87.4929842,123.83465 84.3572342,127.70682 C72.5899542,142.23757 77.2222342,164.06237 94.3621842,171.53458 C94.8459842,171.745493 95.3396709,171.95399 95.8432442,172.16007 L103.168884,176.55545 C103.168884,176.55545 93.8302642,164.2678 98.5036642,148.54963 C102.562167,135.157142 103.063365,120.938645 99.9579242,107.29363 C99.4217642,104.99181 98.8127142,102.61908 98.1209242,100.19769 C92.2604142,79.6859 95.1107142,82.05469 115.622494,61.54291 C115.622494,61.54291 127.343494,70.33368 137.599414,74.72906 C147.855334,79.12444 156.646074,83.51983 149.320414,98.17106 C141.994754,112.82229 124.413244,126.00849 136.134264,145.05515 C147.855284,164.10181 149.320414,156.77615 147.855264,164.10181 L147.855264,164.10181 L146.390144,171.42745 L155.180904,162.63669 L149.320394,174.35769 C149.320394,174.35769 168.367054,174.35769 174.227564,159.70641 L177.157824,162.63667 C177.157824,162.63667 188.878824,142.12488 166.901924,123.07822 C166.901924,123.07822 159.576294,118.68283 169.832184,104.03156 C180.088074,89.38029 172.211424,57.88003 159.025274,52.01956 C145.839124,46.15909 111.959644,52.01959 111.959644,52.01959 Z" id="Path" fill="#000000"></path>
                    <path d="M264.186564,279.97596 L303.601414,267.62839 C301.419961,251.236352 296.440249,235.340553 288.879304,220.63376 L249.464464,232.98133 C258.713654,246.940482 263.818176,263.234702 264.186564,279.97596 L264.186564,279.97596 Z" id="Path" fill="#787878"></path>
                </g>
            </g>
        </g>
    </g>
</svg>