<?xml version="1.0" encoding="UTF-8"?>
<svg width="639px" height="641px" viewBox="0 0 639 641" version="1.1" xmlns="http://www.w3.org/2000/svg" xmlns:xlink="http://www.w3.org/1999/xlink">
    <!-- Generator: Sketch 61 (89581) - https://sketch.com -->
    <title>undraw_experience_design_eq3j</title>
    <desc>Created with Sketch.</desc>
    <g id="05_Services" stroke="none" stroke-width="1" fill="none" fill-rule="evenodd">
        <g id="Artboard" transform="translate(-78.000000, -118.000000)" fill-rule="nonzero">
            <g id="undraw_experience_design_eq3j" transform="translate(70.000000, 118.000000)">
                <rect id="Rectangle" fill="#3F3D56" x="218" y="406.90193" width="428" height="116"></rect>
                <path d="M618.58659,119.50592 L601.4967,127.59426 L616.622,116.28436 C614.16372,112.447292 611.402096,108.813259 608.36361,105.41711 L534.2469,123.8392 L601.19522,98.30072 C598.135915,95.6014559 594.886979,93.1250546 591.47341,90.89057 L478.5369,109.08168 C466.545904,124.076359 460.009253,142.702339 460.00002,161.90193 L630.00002,161.90193 C629.993129,147.011722 626.056043,132.387132 618.58659,119.50592 L618.58659,119.50592 Z" id="Path" fill="#F2F2F2"></path>
                <path d="M543.86439,161.90193 L486,75.95131 C486,75.95131 573.63109,106.5439 563.68592,161.90193 L543.86439,161.90193 Z" id="Path" fill="#3F3D56"></path>
                <path d="M546.13561,161.90193 L604,75.95131 C604,75.95131 516.36891,106.5439 526.31409,161.90193 L546.13561,161.90193 Z" id="Path" fill="#FFBFCB"></path>
                <path d="M646.5,640.90193 L217.5,640.90193 L217.5,0.90193 L646.5,0.90193 L646.5,640.90193 Z M219.5,638.90193 L644.5,638.90193 L644.5,2.90193 L219.5,2.90193 L219.5,638.90193 Z" id="Shape" fill="#2F2E41"></path>
                <rect id="Rectangle" fill="#2F2E41" x="219" y="16.08308" width="427" height="2"></rect>
                <circle id="Oval" fill="#FFBFCB" cx="230" cy="8.90193" r="4"></circle>
                <circle id="Oval" fill="#FFBFCB" cx="241" cy="8.90193" r="4"></circle>
                <circle id="Oval" fill="#FFBFCB" cx="252" cy="8.90193" r="4"></circle>
                <rect id="Rectangle" fill="#FFBFCB" x="234" y="29.90193" width="18" height="10"></rect>
                <rect id="Rectangle" fill="#FFBFCB" x="234" y="108.90193" width="88" height="10"></rect>
                <rect id="Rectangle" fill="#F2F2F2" transform="translate(591.000000, 34.901930) rotate(-180.000000) translate(-591.000000, -34.901930) " x="547" y="29.90193" width="88" height="10"></rect>
                <rect id="Rectangle" fill="#F2F2F2" x="234" y="125.90193" width="148" height="6"></rect>
                <rect id="Rectangle" fill="#F2F2F2" x="234" y="138.90193" width="140" height="6"></rect>
                <rect id="Rectangle" fill="#F2F2F2" x="234" y="151.90193" width="102" height="6"></rect>
                <rect id="Rectangle" fill="#F2F2F2" x="268" y="329.90193" width="58" height="6"></rect>
                <rect id="Rectangle" fill="#F2F2F2" x="268" y="342.90193" width="54.86486" height="6"></rect>
                <rect id="Rectangle" fill="#F2F2F2" x="268" y="355.90193" width="39.97297" height="6"></rect>
                <rect id="Rectangle" fill="#F2F2F2" x="403" y="329.90193" width="58" height="6"></rect>
                <rect id="Rectangle" fill="#F2F2F2" x="403" y="342.90193" width="54.86486" height="6"></rect>
                <rect id="Rectangle" fill="#F2F2F2" x="403" y="355.90193" width="39.97297" height="6"></rect>
                <rect id="Rectangle" fill="#F2F2F2" x="543" y="329.90193" width="58" height="6"></rect>
                <rect id="Rectangle" fill="#F2F2F2" x="543" y="342.90193" width="54.86486" height="6"></rect>
                <rect id="Rectangle" fill="#F2F2F2" x="543" y="355.90193" width="39.97297" height="6"></rect>
                <rect id="Rectangle" fill="#FFBFCB" x="358" y="556.90193" width="88" height="10"></rect>
                <rect id="Rectangle" fill="#F2F2F2" x="358" y="573.90193" width="148" height="6"></rect>
                <rect id="Rectangle" fill="#F2F2F2" x="358" y="586.90193" width="140" height="6"></rect>
                <rect id="Rectangle" fill="#F2F2F2" x="358" y="599.90193" width="102" height="6"></rect>
                <rect id="Rectangle" fill="#FFBFCB" opacity="0.3" x="260.5" y="216.90193" width="348" height="2"></rect>
                <rect id="Rectangle" fill="#FFBFCB" opacity="0.3" x="260" y="251.90193" width="74" height="66"></rect>
                <rect id="Rectangle" fill="#3F3D56" x="395" y="251.90193" width="74" height="66"></rect>
                <rect id="Rectangle" fill="#3F3D56" x="535" y="251.90193" width="74" height="66"></rect>
                <path d="M422.35863,317.6245 L421.38236,317.60543 C421.40336,316.52429 422.0135,291.0441 432.04455,284.00143 L432.60514,284.80036 C422.97881,291.55893 422.3634,317.3647 422.35863,317.6245 Z" id="Path" fill="#FFBFCB"></path>
                <circle id="Oval" fill="#FFBFCB" cx="437.20618" cy="278.79786" r="4.88134"></circle>
                <path d="M436.21928,296.03361 C433.680185,296.831123 430.976178,296.94788 428.37779,296.3722 C431.747979,292.081371 437.323291,290.168984 442.61764,291.48779 C440.919674,293.537163 438.713306,295.104713 436.21928,296.03361 Z" id="Path" fill="#FFBFCB"></path>
                <path d="M562.35863,317.6245 L561.38236,317.60543 C561.40336,316.52429 562.0135,291.0441 572.04455,284.00143 L572.60514,284.80036 C562.97881,291.55893 562.3634,317.3647 562.35863,317.6245 Z" id="Path" fill="#FFBFCB"></path>
                <circle id="Oval" fill="#FFBFCB" cx="577.20618" cy="278.79786" r="4.88134"></circle>
                <path d="M576.21928,296.03361 C573.680185,296.831123 570.976178,296.94788 568.37779,296.3722 C571.747979,292.081371 577.323291,290.168984 582.61764,291.48779 C580.919674,293.537163 578.713306,295.104713 576.21928,296.03361 Z" id="Path" fill="#FFBFCB"></path>
                <rect id="Rectangle" fill="#FFBFCB" x="234" y="443.90193" width="88" height="10"></rect>
                <rect id="Rectangle" fill="#F2F2F2" x="234" y="460.90193" width="148" height="6"></rect>
                <rect id="Rectangle" fill="#F2F2F2" x="234" y="473.90193" width="140" height="6"></rect>
                <rect id="Rectangle" fill="#F2F2F2" x="234" y="486.90193" width="102" height="6"></rect>
                <circle id="Oval" fill="#FFBFCB" opacity="0.4" cx="559.7521" cy="457.70168" r="31.2479"></circle>
                <circle id="Oval" fill="#FFBFCB" opacity="0.4" cx="501.92017" cy="472.62605" r="21.92017"></circle>
                <circle id="Oval" fill="#2F2E41" cx="115.5" cy="527.40193" r="79"></circle>
                <rect id="Rectangle" fill="#2F2E41" x="79.5" y="589.40193" width="24" height="43"></rect>
                <rect id="Rectangle" fill="#2F2E41" x="127.5" y="589.40193" width="24" height="43"></rect>
                <ellipse id="Oval" fill="#2F2E41" cx="99.5" cy="632.90193" rx="20" ry="7.5"></ellipse>
                <ellipse id="Oval" fill="#2F2E41" cx="147.5" cy="631.90193" rx="20" ry="7.5"></ellipse>
                <circle id="Oval" fill="#FFFFFF" cx="117.5" cy="507.40193" r="27"></circle>
                <circle id="Oval" fill="#3F3D56" cx="117.5" cy="495.40193" r="9"></circle>
                <path d="M38.86733,453.93421 C32.48844,425.36663 52.87918,396.50029 84.41133,389.45944 C115.94348,382.41859 146.67643,399.86944 153.05533,428.43704 C159.43423,457.00464 138.53672,467.54083 107.00458,474.58168 C75.47244,481.62253 45.24622,482.50178 38.86733,453.93421 Z" id="Path" fill="#FFBFCB"></path>
                <ellipse id="Oval" fill="#2F2E41" transform="translate(175.276387, 439.986332) rotate(-65.076830) translate(-175.276387, -439.986332) " cx="175.276387" cy="439.986332" rx="39.5" ry="12.40027"></ellipse>
                <ellipse id="Oval" fill="#2F2E41" transform="translate(30.276388, 463.986291) rotate(-27.893290) translate(-30.276388, -463.986291) " cx="30.2763884" cy="463.986291" rx="12.40027" ry="39.5"></ellipse>
                <circle id="Oval" fill="#2F2E41" cx="138.40483" cy="293.59022" r="79"></circle>
                <rect id="Rectangle" fill="#2F2E41" transform="translate(99.914538, 371.479537) rotate(10.261060) translate(-99.914538, -371.479537) " x="87.9145377" y="349.979537" width="24" height="43"></rect>
                <rect id="Rectangle" fill="#2F2E41" transform="translate(147.146845, 380.029949) rotate(10.261060) translate(-147.146845, -380.029949) " x="135.146845" y="358.529949" width="24" height="43"></rect>
                <ellipse id="Oval" fill="#2F2E41" transform="translate(147.435389, 406.504775) rotate(-49.738940) translate(-147.435389, -406.504775) " cx="147.435389" cy="406.504775" rx="7.5" ry="20"></ellipse>
                <ellipse id="Oval" fill="#2F2E41" transform="translate(101.187103, 398.132495) rotate(-49.738940) translate(-101.187103, -398.132495) " cx="101.187103" cy="398.132495" rx="7.5" ry="20"></ellipse>
                <circle id="Oval" fill="#FFFFFF" cx="143.93551" cy="274.26636" r="27"></circle>
                <circle id="Oval" fill="#3F3D56" cx="155.03243" cy="264.5883" r="9"></circle>
                <path d="M76.0849,207.64666 C74.8969,178.39966 100.10355,153.62731 132.38558,152.316 C164.66761,151.00469 191.80047,173.651 192.98849,202.898 C194.17651,232.145 171.73639,238.79014 139.45435,240.10145 C107.17231,241.41276 77.2729,236.89364 76.0849,207.64666 Z" id="Path" fill="#FFBFCB"></path>
                <ellipse id="Oval" fill="#2F2E41" transform="translate(211.350394, 279.197731) rotate(-12.910100) translate(-211.350394, -279.197731) " cx="211.350394" cy="279.197731" rx="39.5" ry="12.40027"></ellipse>
                <ellipse id="Oval" fill="#2F2E41" transform="translate(56.276367, 304.986311) rotate(-12.910100) translate(-56.276367, -304.986311) " cx="56.2763671" cy="304.986311" rx="39.5" ry="12.40027"></ellipse>
                <path d="M116.70744,324.72311 C114.936592,334.505241 121.431019,343.870781 131.21315,345.64163 C140.995281,347.412478 150.360821,340.918051 152.13167,331.13592 C153.90252,321.35379 146.33929,317.89229 136.55716,316.12144 C126.77503,314.35059 118.47829,314.94098 116.70744,324.72311 Z" id="Path" fill="#FFFFFF"></path>
                <rect id="Rectangle" fill="#3F3D56" transform="translate(279.500011, 250.401922) rotate(16.688760) translate(-279.500011, -250.401922) " x="242.500011" y="217.401922" width="74" height="66"></rect>
                <path d="M260.86771,278.97745 L259.93804,278.67882 C260.2686,277.64925 268.17028,253.41753 279.80127,249.55216 L280.10882,250.47843 C268.94708,254.18789 260.9469,278.72996 260.86771,278.97745 Z" id="Path" fill="#FFBFCB"></path>
                <circle id="Oval" fill="#FFBFCB" cx="286.23982" cy="246.05004" r="4.88134"></circle>
                <path d="M280.34484,262.27638 C277.683675,262.311143 275.060038,261.646466 272.73642,260.34885 C277.196857,257.20658 283.086513,256.975821 287.77913,259.75947 C285.564161,261.234913 283.000569,262.102827 280.34484,262.27638 L280.34484,262.27638 Z" id="Path" fill="#FFBFCB"></path>
            </g>
        </g>
    </g>
</svg>