<?xml version="1.0" encoding="UTF-8"?>
<svg width="768px" height="543px" viewBox="0 0 768 543" version="1.1" xmlns="http://www.w3.org/2000/svg" xmlns:xlink="http://www.w3.org/1999/xlink">
    <!-- Generator: Sketch 61 (89581) - https://sketch.com -->
    <title>undraw_landing_page_q6hh</title>
    <desc>Created with Sketch.</desc>
    <g id="05_Services" stroke="none" stroke-width="1" fill="none" fill-rule="evenodd">
        <g id="Artboard" transform="translate(-195.000000, -212.000000)">
            <g id="undraw_landing_page_q6hh" transform="translate(195.000000, 212.000000)">
                <ellipse id="Oval" fill="#F2F2F2" fill-rule="nonzero" cx="313.75928" cy="532.59338" rx="152" ry="10"></ellipse>
                <ellipse id="Oval" fill="#F2F2F2" fill-rule="nonzero" cx="615.75928" cy="509.59338" rx="152" ry="10"></ellipse>
                <rect id="Rectangle" fill="#3F3D56" fill-rule="nonzero" x="0.25928" y="0.09338" width="730" height="493"></rect>
                <line x1="0.25928" y1="36.15244" x2="730.25928" y2="36.15244" id="Path" stroke="#2F2E41" stroke-width="2"></line>
                <circle id="Oval" fill="#FFBFCB" fill-rule="nonzero" cx="22.75928" cy="18.09338" r="9"></circle>
                <circle id="Oval" fill="#FFBFCB" fill-rule="nonzero" cx="49.75928" cy="18.59338" r="9"></circle>
                <circle id="Oval" fill="#FFBFCB" fill-rule="nonzero" cx="76.75928" cy="19.09338" r="9"></circle>
                <rect id="Rectangle" fill="#FFBFCB" fill-rule="nonzero" opacity="0.3" x="45.75928" y="69.59338" width="616" height="120"></rect>
                <line x1="45.75928" y1="189.59338" x2="661.75928" y2="69.59338" id="Path" stroke="#FFBFCB" stroke-width="2" opacity="0.3"></line>
                <line x1="661.75928" y1="189.59338" x2="45.75928" y2="69.59338" id="Path" stroke="#FFBFCB" stroke-width="2" opacity="0.3"></line>
                <rect id="Rectangle" fill="#FFBFCB" fill-rule="nonzero" opacity="0.3" x="45.75928" y="265.59338" width="147" height="193"></rect>
                <rect id="Rectangle" fill="#FFBFCB" fill-rule="nonzero" opacity="0.3" x="514.75928" y="265.59338" width="147" height="193"></rect>
                <rect id="Rectangle" fill="#FFBFCB" fill-rule="nonzero" opacity="0.3" x="280.25928" y="265.59338" width="147" height="193"></rect>
                <line x1="45.75928" y1="265.59338" x2="192.75928" y2="458.59338" id="Path" stroke="#FFBFCB" stroke-width="2" opacity="0.3"></line>
                <line x1="192.75928" y1="265.59338" x2="45.75928" y2="458.59338" id="Path" stroke="#FFBFCB" stroke-width="2" opacity="0.3"></line>
                <line x1="280.75928" y1="265.59338" x2="427.75928" y2="458.59338" id="Path" stroke="#FFBFCB" stroke-width="2" opacity="0.3"></line>
                <line x1="427.75928" y1="265.59338" x2="280.75928" y2="458.59338" id="Path" stroke="#FFBFCB" stroke-width="2" opacity="0.3"></line>
                <line x1="514.75928" y1="265.59338" x2="661.75928" y2="458.59338" id="Path" stroke="#FFBFCB" stroke-width="2" opacity="0.3"></line>
                <line x1="661.75928" y1="265.59338" x2="514.75928" y2="458.59338" id="Path" stroke="#FFBFCB" stroke-width="2" opacity="0.3"></line>
                <rect id="Rectangle" fill="#FFBFCB" fill-rule="nonzero" x="127.75928" y="69.59338" width="616" height="120"></rect>
                <rect id="Rectangle" fill="#FFBFCB" fill-rule="nonzero" x="542.75928" y="311.59338" width="147" height="193"></rect>
                <rect id="Rectangle" fill="#3F3D56" fill-rule="nonzero" x="564.25928" y="337.09338" width="104" height="12"></rect>
                <rect id="Rectangle" fill="#3F3D56" fill-rule="nonzero" x="564.25928" y="363.09338" width="104" height="12"></rect>
                <rect id="Rectangle" fill="#3F3D56" fill-rule="nonzero" x="564.25928" y="389.09338" width="104" height="12"></rect>
                <rect id="Rectangle" fill="#3F3D56" fill-rule="nonzero" x="564.25928" y="415.09338" width="104" height="12"></rect>
                <rect id="Rectangle" fill="#3F3D56" fill-rule="nonzero" x="564.25928" y="441.09338" width="104" height="12"></rect>
                <rect id="Rectangle" fill="#3F3D56" fill-rule="nonzero" x="564.25928" y="467.09338" width="104" height="12"></rect>
                <rect id="Rectangle" fill="#FFBFCB" fill-rule="nonzero" x="81.75928" y="291.59338" width="147" height="193"></rect>
                <rect id="Rectangle" fill="#3F3D56" fill-rule="nonzero" x="103.25928" y="356.09338" width="104" height="12"></rect>
                <rect id="Rectangle" fill="#3F3D56" fill-rule="nonzero" x="103.25928" y="382.09338" width="104" height="12"></rect>
                <rect id="Rectangle" fill="#3F3D56" fill-rule="nonzero" x="103.25928" y="408.09338" width="104" height="12"></rect>
                <path d="M465.59315,139.96244 C465.59315,162.431 452.23671,170.27619 435.75928,170.27619 C435.377567,170.27619 434.99646,170.271947 434.61596,170.26346 C433.85252,170.2471 433.09635,170.21075 432.34928,170.15985 C417.47871,169.10741 405.92541,160.8587 405.92541,139.96244 C405.92541,118.3373 433.55987,91.05002 435.63567,89.03055 L435.63931,89.02692 C435.71931,88.94876 435.75931,88.91058 435.75931,88.91058 C435.75931,88.91058 465.59315,117.49388 465.59315,139.96244 Z" id="Path" fill="#3F3D56" fill-rule="nonzero"></path>
                <path d="M434.6723,166.83891 L445.58392,151.59208 L434.64503,168.51302 L434.61596,170.26346 C433.85252,170.2471 433.09635,170.21075 432.34928,170.15985 L433.52535,147.68039 L433.51625,147.50588 L433.53625,147.47317 L433.64713,145.3501 L422.68094,128.38734 L433.68164,143.75779 L433.70712,144.20858 L434.59595,127.22402 L425.20756,109.69595 L434.71047,124.24295 L435.63567,89.03051 L435.63931,88.91051 L435.63931,89.02685 L435.48481,116.794 L444.83142,105.786 L435.44664,119.18616 L435.19944,134.39301 L443.92621,119.79872 L435.16309,136.63061 L435.02495,145.08471 L447.69429,124.77194 L434.97764,148.03484 L434.6723,166.83891 Z" id="Path" fill="#FFBFCB" fill-rule="nonzero"></path>
                <rect id="Rectangle" fill="#FFBFCB" fill-rule="nonzero" x="247.75928" y="339.59338" width="147" height="193"></rect>
                <rect id="Rectangle" fill="#3F3D56" fill-rule="nonzero" x="288.25928" y="370.09338" width="66" height="66"></rect>
                <rect id="Rectangle" fill="#3F3D56" fill-rule="nonzero" x="263.25928" y="450.09338" width="116" height="8"></rect>
                <rect id="Rectangle" fill="#3F3D56" fill-rule="nonzero" x="263.25928" y="472.09338" width="116" height="8"></rect>
                <rect id="Rectangle" fill="#3F3D56" fill-rule="nonzero" x="263.25928" y="494.09338" width="116" height="8"></rect>
            </g>
        </g>
    </g>
</svg>