<?xml version="1.0" encoding="UTF-8"?>
<svg width="731px" height="526px" viewBox="0 0 731 526" version="1.1" xmlns="http://www.w3.org/2000/svg" xmlns:xlink="http://www.w3.org/1999/xlink">
    <!-- Generator: Sketch 61 (89581) - https://sketch.com -->
    <title>evaluate2</title>
    <desc>Created with Sketch.</desc>
    <g id="06-Create-Profile" stroke="none" stroke-width="1" fill="none" fill-rule="evenodd">
        <g id="Cover2.svg" transform="translate(-230.000000, -1126.000000)" fill-rule="nonzero">
            <g id="evaluate2" transform="translate(230.000000, 1126.000000)">
                <rect id="Rectangle" fill="#F2F2F2" x="0" y="0" width="731" height="23"></rect>
                <circle id="Oval" fill="#CFCFCF" cx="20" cy="11" r="6"></circle>
                <circle id="Oval" fill="#CFCFCF" cx="39" cy="11" r="6"></circle>
                <circle id="Oval" fill="#CFCFCF" cx="59" cy="11" r="6"></circle>
                <polygon id="Path" fill="#E6E6E6" points="0.518145733 368.426891 0 368.872218 0 526 731 526 731 250 722.288066 250.661781"></polygon>
                <rect id="Rectangle" fill="#CFCFCF" x="53" y="156" width="204" height="8"></rect>
                <rect id="Rectangle" fill="#CFCFCF" x="53" y="174" width="204" height="8"></rect>
                <rect id="Rectangle" fill="#CFCFCF" x="53" y="192" width="69" height="8"></rect>
                <rect id="Rectangle" fill="#FFFFFF" x="470" y="384" width="204" height="8"></rect>
                <rect id="Rectangle" fill="#FFFFFF" x="470" y="403" width="204" height="8"></rect>
                <rect id="Rectangle" fill="#FFFFFF" x="469" y="421" width="69" height="8"></rect>
                <circle id="Oval" fill="#CFCFCF" cx="342" cy="510" r="8"></circle>
                <circle id="Oval" fill="#F2F2F2" cx="366" cy="511" r="8"></circle>
                <circle id="Oval" fill="#CFCFCF" cx="389" cy="511" r="8"></circle>
                <circle id="Oval" fill="#CFCFCF" cx="366" cy="511" r="6"></circle>
                <rect id="Rectangle" fill="#CFCFCF" x="120" y="250" width="69" height="16"></rect>
                <rect id="Rectangle" fill="#FFFFFF" x="532" y="463" width="69" height="16"></rect>
                <circle id="Oval" fill="#B1F3B8" opacity="0.3" cx="155" cy="258" r="48"></circle>
                <circle id="Oval" fill="#B1F3B8" opacity="0.3" cx="155" cy="258" r="32"></circle>
                <circle id="Oval" fill="#D6CDFF" cx="155" cy="258" r="22"></circle>
                <circle id="Oval" fill="#B1F3B8" opacity="0.3" cx="558" cy="139" r="48"></circle>
                <circle id="Oval" fill="#B1F3B8" opacity="0.3" cx="558" cy="139" r="32"></circle>
                <circle id="Oval" fill="#D6CDFF" cx="558" cy="139" r="22"></circle>
                <circle id="Oval" fill="#B1F3B8" opacity="0.3" cx="566" cy="472" r="48"></circle>
                <circle id="Oval" fill="#B1F3B8" opacity="0.3" cx="566" cy="472" r="32"></circle>
                <circle id="Oval" fill="#D6CDFF" cx="566" cy="472" r="22"></circle>
            </g>
        </g>
    </g>
</svg>