<?xml version="1.0" encoding="UTF-8"?>
<svg width="1426px" height="450px" viewBox="0 0 1426 450" version="1.1" xmlns="http://www.w3.org/2000/svg" xmlns:xlink="http://www.w3.org/1999/xlink">
    <title>Artboard Copy 6</title>
    <defs>
        <filter x="-72.4%" y="-52.5%" width="244.9%" height="204.9%" filterUnits="objectBoundingBox" id="filter-1">
            <feOffset dx="5" dy="16" in="SourceAlpha" result="shadowOffsetOuter1"></feOffset>
            <feGaussianBlur stdDeviation="61" in="shadowOffsetOuter1" result="shadowBlurOuter1"></feGaussianBlur>
            <feColorMatrix values="0 0 0 0 0.0529897518   0 0 0 0 0.187738738   0 0 0 0 0.233610734  0 0 0 1 0" type="matrix" in="shadowBlurOuter1" result="shadowMatrixOuter1"></feColorMatrix>
            <feMerge>
                <feMergeNode in="shadowMatrixOuter1"></feMergeNode>
                <feMergeNode in="SourceGraphic"></feMergeNode>
            </feMerge>
        </filter>
        <polygon id="path-2" points="40.3059055 0.440881148 0.0715360592 40.6808352 40.3059055 80.9148663 80.5461979 40.6808352"></polygon>
        <linearGradient x1="49.998528%" y1="100.003165%" x2="49.998528%" y2="0.00352542872%" id="linearGradient-4">
            <stop stop-color="#43BA86" offset="0%"></stop>
            <stop stop-color="#24959E" offset="89.417445%"></stop>
            <stop stop-color="#24959E" offset="100%"></stop>
        </linearGradient>
        <polygon id="path-5" points="40.5548504 0.163019122 0.28606317 40.4129416 40.5548504 80.662864 80.8295656 40.4129416"></polygon>
        <linearGradient x1="49.9980864%" y1="100.003607%" x2="49.9980864%" y2="-0.00339319888%" id="linearGradient-7">
            <stop stop-color="#43BA86" offset="0%"></stop>
            <stop stop-color="#24959E" offset="89.417445%"></stop>
            <stop stop-color="#24959E" offset="100%"></stop>
        </linearGradient>
        <polygon id="path-8" points="40.7366875 0 0.443434724 40.2499225 40.7366875 80.5057701 81.0240096 40.2499225"></polygon>
        <linearGradient x1="50.0021344%" y1="99.9995584%" x2="50.0021344%" y2="-8.09597407e-05%" id="linearGradient-10">
            <stop stop-color="#43BA86" offset="0%"></stop>
            <stop stop-color="#24959E" offset="89.417445%"></stop>
            <stop stop-color="#24959E" offset="100%"></stop>
        </linearGradient>
        <polygon id="path-11" points="40.7366875 0.320113037 0.443434724 40.5759607 40.7366875 80.8258832 81.0240096 40.5759607"></polygon>
        <linearGradient x1="50.0021344%" y1="100%" x2="50.0021344%" y2="0.000360638846%" id="linearGradient-13">
            <stop stop-color="#43BA86" offset="0%"></stop>
            <stop stop-color="#24959E" offset="89.417445%"></stop>
            <stop stop-color="#24959E" offset="100%"></stop>
        </linearGradient>
        <polygon id="path-14" points="40.3059055 0.480213236 0.0715360592 40.7142444 40.3059055 80.9541984 80.5461979 40.7142444"></polygon>
        <linearGradient x1="49.998528%" y1="99.9963936%" x2="49.998528%" y2="-0.00324574961%" id="linearGradient-16">
            <stop stop-color="#43BA86" offset="0%"></stop>
            <stop stop-color="#24959E" offset="89.417445%"></stop>
            <stop stop-color="#24959E" offset="100%"></stop>
        </linearGradient>
        <polygon id="path-17" points="0.182863841 444.430278 262.875364 444.430278 262.875364 0.0548140601 0.182863841 0.0548140601"></polygon>
        <polygon id="path-19" points="0.182863841 444.430278 262.875364 444.430278 262.875364 0.0548140601 0.182863841 0.0548140601"></polygon>
        <polygon id="path-21" points="40.6240761 0.440881148 0.389706603 40.6808352 40.6240761 80.9148663 80.8643684 40.6808352"></polygon>
        <linearGradient x1="49.998896%" y1="100.003165%" x2="49.998896%" y2="0.00352542872%" id="linearGradient-23">
            <stop stop-color="#85C55B" offset="0%"></stop>
            <stop stop-color="#85C55B" offset="19.378895%"></stop>
            <stop stop-color="#2B997C" offset="100%"></stop>
        </linearGradient>
        <polygon id="path-24" points="40.7692304 0 0.475977602 40.2499225 40.7692304 80.5057701 81.0565524 40.2499225"></polygon>
        <linearGradient x1="50.0027232%" y1="99.9995584%" x2="50.0027232%" y2="-8.09597407e-05%" id="linearGradient-26">
            <stop stop-color="#85C55B" offset="0%"></stop>
            <stop stop-color="#85C55B" offset="19.378895%"></stop>
            <stop stop-color="#2B997C" offset="100%"></stop>
        </linearGradient>
        <polygon id="path-27" points="40.3756429 0.163019122 0.10685569 40.4129416 40.3756429 80.662864 80.6503581 40.4129416"></polygon>
        <linearGradient x1="49.9993376%" y1="100.003607%" x2="49.9993376%" y2="-0.00339319888%" id="linearGradient-29">
            <stop stop-color="#85C55B" offset="0%"></stop>
            <stop stop-color="#85C55B" offset="19.378895%"></stop>
            <stop stop-color="#2B997C" offset="100%"></stop>
        </linearGradient>
        <polygon id="path-30" points="40.7692304 0.320113037 0.475977602 40.5759607 40.7692304 80.8258832 81.0565524 40.5759607"></polygon>
        <linearGradient x1="50.0027232%" y1="100%" x2="50.0027232%" y2="0.000360638846%" id="linearGradient-32">
            <stop stop-color="#85C55B" offset="0%"></stop>
            <stop stop-color="#85C55B" offset="19.378895%"></stop>
            <stop stop-color="#2B997C" offset="100%"></stop>
        </linearGradient>
        <polygon id="path-33" points="40.6240761 0.480213236 0.389706603 40.7142444 40.6240761 80.9541984 80.8643684 40.7142444"></polygon>
        <linearGradient x1="49.998896%" y1="99.9963936%" x2="49.998896%" y2="-0.00324574961%" id="linearGradient-35">
            <stop stop-color="#85C55B" offset="0%"></stop>
            <stop stop-color="#85C55B" offset="19.378895%"></stop>
            <stop stop-color="#2B997C" offset="100%"></stop>
        </linearGradient>
        <polygon id="path-36" points="40.4679523 0 0.227659873 40.2499225 40.4679523 80.5057701 80.7023217 40.2499225"></polygon>
        <linearGradient x1="50.0022816%" y1="0%" x2="50.0022816%" y2="99.9996394%" id="linearGradient-38">
            <stop stop-color="#0C3D4D" offset="0%"></stop>
            <stop stop-color="#244F5A" offset="100%"></stop>
        </linearGradient>
        <polygon id="path-39" points="40.6240761 0.163019122 0.389706603 40.4129416 40.6240761 80.662864 80.8643684 40.4129416"></polygon>
        <linearGradient x1="49.998896%" y1="-0.00360665391%" x2="49.998896%" y2="100.003393%" id="linearGradient-41">
            <stop stop-color="#0C3D4D" offset="0%"></stop>
            <stop stop-color="#244F5A" offset="100%"></stop>
        </linearGradient>
        <polygon id="path-42" points="40.3059055 0.163019122 0.0715360592 40.4129416 40.3059055 80.662864 80.5461979 40.4129416"></polygon>
        <linearGradient x1="49.998528%" y1="-0.00360665391%" x2="49.998528%" y2="100.003393%" id="linearGradient-44">
            <stop stop-color="#0C3D4D" offset="0%"></stop>
            <stop stop-color="#244F5A" offset="100%"></stop>
        </linearGradient>
        <polygon id="path-45" points="40.4679523 0.320113037 0.227659873 40.5759607 40.4679523 80.8258832 80.7023217 40.5759607"></polygon>
        <linearGradient x1="50.0022816%" y1="0.000441598587%" x2="50.0022816%" y2="100.000081%" id="linearGradient-47">
            <stop stop-color="#0C3D4D" offset="0%"></stop>
            <stop stop-color="#244F5A" offset="100%"></stop>
        </linearGradient>
    </defs>
    <g id="Artboard-Copy-6" stroke="none" stroke-width="1" fill="none" fill-rule="evenodd">
        <g id="Group-384" transform="translate(448.000000, 183.000000)" fill="#525252">
            <path d="M23.3313935,19.2884624 L23.3313935,49.5493837 C23.3313935,69.2222377 17.9220769,79.407852 0.469796205,86.9775211 C-0.00324073942,87.1787476 -0.0978481284,85.9654699 0.0913666496,85.8648567 C13.0859698,79.8162235 15.9297566,71.536343 15.9297566,49.5493837 L15.9297566,19.2884624 C15.9297566,3.75258948 15.4567196,3.85320275 7.01440147,2.84707003 C6.82518669,2.84707003 6.53579938,1.63379233 7.10900886,1.7344056 C10.9990421,2.23747197 15.2675049,2.43869851 20.6712563,2.43869851 C24.5668547,2.43869851 29.213747,2.14277712 32.1521412,1.7344056 C32.6251782,1.63379233 32.4359634,2.84707003 32.1521412,2.84707003 C23.4260009,3.64605778 23.3313935,4.36218754 23.3313935,19.2884624" id="Fill-364"></path>
            <path d="M129.797626,19.4291999 L129.797626,44.4870218 C129.797626,57.918626 121.492261,69.1390728 105.156135,69.1390728 C91.1177143,69.1390728 79.746874,59.7240123 79.746874,43.7872141 L79.746874,20.3289527 C79.746874,4.89201717 79.3657911,4.9919897 70.8642806,3.99226435 C70.5784684,3.99226435 70.3823228,2.78671319 70.8642806,2.88668573 C74.876859,3.3865484 79.1752497,3.59237421 84.5216182,3.59237421 C88.5341966,3.59237421 93.2192743,3.29245661 96.0773958,2.88668573 C96.6546243,2.78671319 96.3688121,3.99226435 96.1782707,3.99226435 C87.2956773,4.79204463 87.1948024,5.49773312 87.1948024,20.3289527 L87.1948024,41.7818826 C87.1948024,58.0185985 97.7978729,65.0343182 107.543507,65.0343182 C120.343408,65.0343182 127.029171,57.5187358 127.029171,43.4814157 L127.029171,19.4291999 C127.029171,6.39748593 126.171734,4.9919897 117.670224,3.99226435 C117.378807,3.99226435 117.188266,2.78671319 117.765495,2.88668573 C121.682802,3.3865484 124.070174,3.59237421 129.511814,3.59237421 C133.423517,3.59237421 136.20318,3.29245661 139.061302,2.88668573 C139.63853,2.78671319 139.447989,3.99226435 139.162177,3.99226435 C130.273979,4.79204463 129.797626,6.99732114 129.797626,19.4291999" id="Fill-366"></path>
            <path d="M189.117094,36.2613107 C190.656935,36.3606923 191.913718,36.3606923 193.068599,36.3606923 C207.351759,36.3606923 212.367566,30.7836323 212.367566,22.3069689 C212.367566,8.45785464 203.785215,4.9678077 194.325381,4.9678077 C192.779878,4.9678077 191.624997,5.07303524 189.983255,5.17241682 C189.405814,7.16004824 189.117094,11.84852 189.117094,19.4190574 L189.117094,36.2613107 Z M189.117094,50.3091881 C189.117094,65.0585825 189.213334,65.7542535 198.186307,66.4499244 C198.378787,66.549306 198.667507,67.7477309 198.090066,67.6425033 C195.191542,67.250823 190.464455,66.9468323 186.411049,66.9468323 C180.914042,66.9468323 176.571916,67.1455954 172.61475,67.6425033 C172.13355,67.7477309 172.32603,66.549306 172.51851,66.4499244 C181.208424,65.5554903 181.587723,65.6490259 181.587723,50.3091881 L181.587723,20.3134915 C181.587723,8.76184533 181.299003,5.27179839 175.796334,5.27179839 C174.737693,5.27179839 173.582812,5.47056153 172.235451,5.67517065 C171.94107,5.67517065 171.65235,4.67550896 172.13355,4.47674582 C175.994476,3.17893942 185.256168,2.8807947 195.582163,2.8807947 C209.089742,2.8807947 220.089417,7.16004824 220.089417,18.0277154 C220.089417,23.6047753 216.811593,31.6780665 206.966799,35.8637844 C211.982605,50.4085697 226.939447,67.946494 237.650402,67.946494 C237.842882,67.946494 238.131602,69.1390728 237.554162,69.1390728 C215.747291,69.1390728 204.843856,53.4952443 200.69421,37.7520343 C198.667507,38.2547881 195.191542,38.4535512 193.1705,38.4535512 C192.009958,38.4535512 191.624997,38.4535512 189.117094,38.2547881 L189.117094,50.3091881 Z" id="Fill-368"></path>
            <path d="M282.760139,66.7088825 C277.482372,66.7088825 273.323144,66.9075054 269.522283,67.4040629 C268.968443,67.5092162 269.250793,66.3116365 269.435406,66.212325 C277.672415,65.3185216 278.128518,65.4119913 278.128518,50.082971 L278.128518,20.2135805 C278.128518,4.87871839 277.672415,4.97802988 269.435406,3.984915 C269.250793,3.984915 268.968443,2.78733529 269.522283,2.88664678 C273.323144,3.38320422 277.482372,3.58182719 282.760139,3.58182719 C286.55557,3.58182719 291.181761,3.28973458 293.961819,2.88664678 C294.417923,2.78733529 294.233309,3.984915 293.961819,3.984915 C285.442461,4.77356505 285.355584,5.48042917 285.355584,20.2135805 L285.355584,50.082971 C285.355584,64.8219642 285.442461,65.5171446 293.961819,66.212325 C294.233309,66.3116365 294.417923,67.5092162 293.961819,67.4040629 C291.181761,67.0126588 286.55557,66.7088825 282.760139,66.7088825" id="Fill-370"></path>
            <path d="M355.030521,69.1390728 C348.676269,69.1390728 343.533657,66.9384135 338.769339,62.5370949 C338.303324,62.0382788 339.147633,56.5395647 339.334039,49.6382971 C339.334039,49.3390075 340.452475,49.3390075 340.452475,49.5326655 C341.110379,59.9432511 346.247509,66.8386503 355.869348,66.8386503 C362.223599,66.8386503 368.205039,62.9361478 368.205039,54.7379583 C368.205039,38.1361845 340.923973,38.0305528 340.923973,19.8325674 C340.923973,10.8245353 348.210254,1.72847682 358.489997,1.72847682 C363.72033,1.72847682 367.179806,2.92563549 370.260987,4.82700513 C370.913408,5.22605802 371.379423,8.92903409 371.379423,15.4312488 C371.379423,15.72467 370.359673,15.72467 370.260987,15.5251436 C369.142551,8.02529666 364.559157,4.02303093 357.837576,4.02303093 C351.856136,4.02303093 346.527118,8.13092831 346.527118,14.5275114 C346.527118,30.4309427 373.347651,30.1375214 373.347651,49.2333758 C373.347651,60.0371459 365.776278,69.1390728 355.030521,69.1390728" id="Fill-372"></path>
            <path d="M472.647095,8.42673506 C472.647095,10.0166279 472.742729,12.4131576 472.933995,13.7049456 C472.933995,13.9036822 471.786395,13.8101591 471.786395,13.7049456 C471.015702,9.2275267 469.485568,6.73162869 457.019476,6.73162869 L446.85421,6.73162869 L446.85421,50.0737451 C446.85421,64.8153254 446.955469,65.5167487 455.871875,66.2123268 C456.15315,66.3058499 456.350042,67.5041148 455.770616,67.4047465 C452.895989,67.0072733 448.193077,66.7091684 444.266483,66.7091684 C438.798504,66.7091684 434.489376,66.907905 430.461523,67.4047465 C429.977731,67.5041148 430.168998,66.3058499 430.461523,66.2123268 C438.995396,65.3121669 439.37793,65.4115352 439.37793,50.0737451 L439.37793,6.73162869 L428.83013,6.73162869 C416.746571,6.73162869 414.732645,9.02879009 413.680678,13.7049456 C413.680678,13.8101591 412.527452,13.9036822 412.623085,13.7049456 C413.005619,11.6182112 413.106877,8.22799846 413.106877,5.34047242 C413.106877,3.54599775 412.915611,1.65215476 412.623085,0.161630192 C412.623085,-0.142319916 413.776311,0.0564166933 413.776311,0.161630192 C414.445745,3.54599775 414.923912,3.94347096 428.83013,3.94347096 L457.019476,3.94347096 C470.920069,3.94347096 471.685136,3.64536605 472.455828,0.161630192 C472.455828,0.0564166933 473.609055,-0.142319916 473.507796,0.161630192 C473.029629,2.45294639 472.647095,5.04236751 472.647095,8.42673506" id="Fill-374"></path>
            <path d="M554.801829,65.4126783 C554.328326,67.0075039 553.949524,67.2119687 552.523444,67.2119687 C549.108652,67.2119687 543.220503,66.7095694 536.379778,66.7095694 C527.076837,66.7095694 517.578924,66.9081924 510.83847,67.4047498 C510.275837,67.5040613 510.559939,66.3064816 510.74934,66.213012 C520.336383,65.1147438 520.531354,65.5178316 520.531354,50.0836584 L520.531354,20.2142686 C520.531354,4.68078381 520.336383,5.17149939 510.74934,3.97976156 C510.559939,3.97976156 510.275837,2.78218188 510.83847,2.88733521 C517.578924,3.38389264 526.603334,3.58251561 536.000976,3.58251561 C542.841701,3.58251561 549.108652,3.28458116 554.138925,2.88733521 C553.760123,4.27769601 553.565151,6.1704561 553.565151,8.26183915 C553.565151,9.26079586 553.665422,11.2528674 553.760123,12.0415175 C553.760123,12.3452938 552.618145,12.2401404 552.618145,12.0415175 C551.86054,7.56665875 549.960958,6.07114461 537.616456,6.07114461 L528.502917,6.07114461 C528.124114,8.56561546 527.934713,13.2390971 527.934713,19.7118693 L527.934713,32.8560365 L537.805858,32.8560365 C548.250776,32.8560365 547.493172,31.8629216 548.061375,29.1698278 C548.156076,29.0705163 549.298054,28.9770467 549.197782,29.1698278 C548.824551,30.665342 548.534878,33.1598128 548.534878,35.443977 C548.534878,36.5422452 548.635149,38.6277864 548.724279,39.4281201 C548.824551,39.7260546 547.682573,39.6267431 547.682573,39.4281201 C547.108799,36.2443107 546.635296,34.8481081 537.805858,34.8481081 L527.934713,34.8481081 L527.934713,49.6864124 C527.934713,63.0233608 529.639324,64.2209404 534.012263,64.2209404 L538.853135,64.2209404 C553.28662,64.2209404 554.138925,62.7254263 555.464734,56.0540312 C555.565005,55.9547197 556.606711,55.9547197 556.606711,56.258496 C556.227909,58.7412832 555.375604,63.3271371 554.801829,65.4126783" id="Fill-376"></path>
            <path d="M613.117094,36.2613107 C614.656935,36.3606923 615.913718,36.3606923 617.068599,36.3606923 C631.351759,36.3606923 636.367566,30.7836323 636.367566,22.3069689 C636.367566,8.45785464 627.785215,4.9678077 618.325381,4.9678077 C616.779878,4.9678077 615.624997,5.07303524 613.983255,5.17241682 C613.405814,7.16004824 613.117094,11.84852 613.117094,19.4190574 L613.117094,36.2613107 Z M613.117094,50.3091881 C613.117094,65.0585825 613.213334,65.7542535 622.186307,66.4499244 C622.378787,66.549306 622.667507,67.7477309 622.090066,67.6425033 C619.191542,67.250823 614.464455,66.9468323 610.411049,66.9468323 C604.914042,66.9468323 600.571916,67.1455954 596.61475,67.6425033 C596.13355,67.7477309 596.32603,66.549306 596.51851,66.4499244 C605.208424,65.5554903 605.587723,65.6490259 605.587723,50.3091881 L605.587723,20.3134915 C605.587723,8.76184533 605.299003,5.27179839 599.796334,5.27179839 C598.737693,5.27179839 597.582812,5.47056153 596.235451,5.67517065 C595.94107,5.67517065 595.65235,4.67550896 596.13355,4.47674582 C599.994476,3.17893942 609.256168,2.8807947 619.582163,2.8807947 C633.089742,2.8807947 644.089417,7.16004824 644.089417,18.0277154 C644.089417,23.6047753 640.811593,31.6780665 630.966799,35.8637844 C635.982605,50.4085697 650.939447,67.946494 661.650402,67.946494 C661.842882,67.946494 662.131602,69.1390728 661.554162,69.1390728 C639.747291,69.1390728 628.843856,53.4952443 624.69421,37.7520343 C622.667507,38.2547881 619.191542,38.4535512 617.1705,38.4535512 C616.009958,38.4535512 615.624997,38.4535512 613.117094,38.2547881 L613.117094,50.3091881 Z" id="Fill-378"></path>
            <path d="M708.730517,36.2613107 C710.270358,36.3606923 711.52714,36.3606923 712.682021,36.3606923 C726.965182,36.3606923 731.980989,30.7836323 731.980989,22.3069689 C731.980989,8.45785464 723.398638,4.9678077 713.938804,4.9678077 C712.393301,4.9678077 711.23842,5.07303524 709.596678,5.17241682 C709.019237,7.16004824 708.730517,11.84852 708.730517,19.4190574 L708.730517,36.2613107 Z M708.730517,50.3091881 C708.730517,65.0585825 708.826757,65.7542535 717.799729,66.4499244 C717.99221,66.549306 718.28093,67.7477309 717.703489,67.6425033 C714.804964,67.250823 710.077878,66.9468323 706.024472,66.9468323 C700.527465,66.9468323 696.185339,67.1455954 692.228173,67.6425033 C691.746973,67.7477309 691.939453,66.549306 692.131933,66.4499244 C700.821847,65.5554903 701.201146,65.6490259 701.201146,50.3091881 L701.201146,20.3134915 C701.201146,8.76184533 700.912425,5.27179839 695.409757,5.27179839 C694.351116,5.27179839 693.196235,5.47056153 691.848874,5.67517065 C691.554493,5.67517065 691.265772,4.67550896 691.746973,4.47674582 C695.607899,3.17893942 704.869591,2.8807947 715.195586,2.8807947 C728.703165,2.8807947 739.70284,7.16004824 739.70284,18.0277154 C739.70284,23.6047753 736.425016,31.6780665 726.580222,35.8637844 C731.596028,50.4085697 746.552869,67.946494 757.263824,67.946494 C757.456305,67.946494 757.745025,69.1390728 757.167584,69.1390728 C735.360714,69.1390728 724.457279,53.4952443 720.307633,37.7520343 C718.28093,38.2547881 714.804964,38.4535512 712.783923,38.4535512 C711.623381,38.4535512 711.23842,38.4535512 708.730517,38.2547881 L708.730517,50.3091881 Z" id="Fill-380"></path>
            <path d="M813.451237,12.7970186 L802.62314,39.6970428 L822.478368,39.6970428 L813.451237,12.7970186 Z M847.664008,67.4040089 C844.814802,67.0093732 840.917356,66.7030887 837.025487,66.7030887 C831.605862,66.7030887 826.76054,66.9092417 822.857519,67.4040089 C822.389156,67.5100305 822.578731,66.3025628 822.768307,66.2024313 C827.32369,65.701774 829.514958,65.5015111 829.514958,62.6919399 C829.514958,59.6821058 827.708417,54.9582565 825.996663,49.9457931 L823.141882,41.7055623 L801.764475,41.7055623 L798.441331,49.9457931 C796.060488,55.9654613 794.348735,59.8764786 794.348735,62.6919399 C794.348735,65.1009852 796.250064,65.8019055 800.621448,66.2024313 C800.905811,66.3025628 801.095386,67.5100305 800.621448,67.4040089 C797.772242,67.0093732 795.58655,66.7030887 791.689104,66.7030887 C786.275056,66.7030887 786.174692,66.9092417 782.282822,67.4040089 C781.803308,67.5100305 781.992884,66.3025628 782.188035,66.2024313 C788.555536,65.701774 791.025591,61.4903623 795.681338,49.9457931 L815.731716,1.45271228 C815.921292,1.05218641 816.685169,1.05218641 816.874744,1.45271228 L833.98113,49.9457931 C838.257726,62.2855239 839.96948,65.6016425 847.758796,66.2024313 C847.948371,66.3025628 848.232734,67.5100305 847.664008,67.4040089 L847.664008,67.4040089 Z" id="Fill-382"></path>
        </g>
        <g id="Group" filter="url(#filter-1)" transform="translate(57.000000, 4.000000)">
            <g id="g86-Clipped" transform="translate(160.953043, 262.968718)">
                <mask id="mask-3" fill="white">
                    <use xlink:href="#path-2"></use>
                </mask>
                <g id="path88"></g>
                <g id="g86" mask="url(#mask-3)" fill="url(#linearGradient-4)" fill-rule="nonzero">
                    <g id="g94">
                        <polygon id="path104" points="40.3059055 0.440881148 0.0715360592 40.6808352 40.3059055 80.9148663 80.5461979 40.6808352"></polygon>
                    </g>
                </g>
            </g>
            <g id="g108-Clipped" transform="translate(241.247346, 182.142835)">
                <mask id="mask-6" fill="white">
                    <use xlink:href="#path-5"></use>
                </mask>
                <g id="path110"></g>
                <g id="g108" mask="url(#mask-6)" fill="url(#linearGradient-7)" fill-rule="nonzero">
                    <g id="g116">
                        <polygon id="path126" points="40.5548504 0.163019122 0.28606317 40.4129416 40.5548504 80.662864 80.8295656 40.4129416"></polygon>
                    </g>
                </g>
            </g>
            <g id="g130-Clipped" transform="translate(200.815463, 223.124973)">
                <mask id="mask-9" fill="white">
                    <use xlink:href="#path-8"></use>
                </mask>
                <g id="path132"></g>
                <g id="g130" mask="url(#mask-9)" fill="url(#linearGradient-10)" fill-rule="nonzero">
                    <g id="g138">
                        <polygon id="path148" points="40.7366875 0 0.443434724 40.2499225 40.7366875 80.5057701 81.0240096 40.2499225"></polygon>
                    </g>
                </g>
            </g>
            <g id="g152-Clipped" transform="translate(200.815463, 142.299090)">
                <mask id="mask-12" fill="white">
                    <use xlink:href="#path-11"></use>
                </mask>
                <g id="path154"></g>
                <g id="g152" mask="url(#mask-12)" fill="url(#linearGradient-13)" fill-rule="nonzero">
                    <g id="g160">
                        <polygon id="path170" points="40.7366875 0.320113037 0.443434724 40.5759607 40.7366875 80.8258832 81.0240096 40.5759607"></polygon>
                    </g>
                </g>
            </g>
            <g id="g174-Clipped" transform="translate(160.953043, 101.886149)">
                <mask id="mask-15" fill="white">
                    <use xlink:href="#path-14"></use>
                </mask>
                <g id="path176"></g>
                <g id="g174" mask="url(#mask-15)" fill="url(#linearGradient-16)" fill-rule="nonzero">
                    <g id="g182">
                        <polygon id="path192" points="40.3059055 0.480213236 0.0715360592 40.7142444 40.3059055 80.9541984 80.5461979 40.7142444"></polygon>
                    </g>
                </g>
            </g>
            <g id="g240-Clipped" transform="translate(0.219232, 0.417793)">
                <mask id="mask-18" fill="white">
                    <use xlink:href="#path-17"></use>
                </mask>
                <g id="path206"></g>
                <g id="g240" opacity="0.5" mask="url(#mask-18)">
                    <g id="g222-Clipped">
                        <mask id="mask-20" fill="white">
                            <use xlink:href="#path-19"></use>
                        </mask>
                        <g id="path210"></g>
                    </g>
                </g>
            </g>
            <g id="g246-Clipped" transform="translate(80.658741, 262.968718)">
                <mask id="mask-22" fill="white">
                    <use xlink:href="#path-21"></use>
                </mask>
                <g id="path248"></g>
                <g id="g246" mask="url(#mask-22)" fill="url(#linearGradient-23)" fill-rule="nonzero">
                    <g id="g254">
                        <polygon id="path264" points="40.6240761 0.440881148 0.389706603 40.6808352 40.6240761 80.9148663 80.8643684 40.6808352"></polygon>
                    </g>
                </g>
            </g>
            <g id="g268-Clipped" transform="translate(40.226858, 223.124973)">
                <mask id="mask-25" fill="white">
                    <use xlink:href="#path-24"></use>
                </mask>
                <g id="path270"></g>
                <g id="g268" mask="url(#mask-25)" fill="url(#linearGradient-26)" fill-rule="nonzero">
                    <g id="g276">
                        <polygon id="path286" points="40.7692304 0 0.475977602 40.2499225 40.7692304 80.5057701 81.0565524 40.2499225"></polygon>
                    </g>
                </g>
            </g>
            <g id="g290-Clipped" transform="translate(0.364438, 182.142835)">
                <mask id="mask-28" fill="white">
                    <use xlink:href="#path-27"></use>
                </mask>
                <g id="path292"></g>
                <g id="g290" mask="url(#mask-28)" fill="url(#linearGradient-29)" fill-rule="nonzero">
                    <g id="g298">
                        <polygon id="path308" points="40.3756429 0.163019122 0.10685569 40.4129416 40.3756429 80.662864 80.6503581 40.4129416"></polygon>
                    </g>
                </g>
            </g>
            <g id="g312-Clipped" transform="translate(40.226858, 142.299090)">
                <mask id="mask-31" fill="white">
                    <use xlink:href="#path-30"></use>
                </mask>
                <g id="path314"></g>
                <g id="g312" mask="url(#mask-31)" fill="url(#linearGradient-32)" fill-rule="nonzero">
                    <g id="g320">
                        <polygon id="path330" points="40.7692304 0.320113037 0.475977602 40.5759607 40.7692304 80.8258832 81.0565524 40.5759607"></polygon>
                    </g>
                </g>
            </g>
            <g id="g334-Clipped" transform="translate(80.658741, 101.886149)">
                <mask id="mask-34" fill="white">
                    <use xlink:href="#path-33"></use>
                </mask>
                <g id="path336"></g>
                <g id="g334" mask="url(#mask-34)" fill="url(#linearGradient-35)" fill-rule="nonzero">
                    <g id="g342">
                        <polygon id="path352" points="40.6240761 0.480213236 0.389706603 40.7142444 40.6240761 80.9541984 80.8643684 40.7142444"></polygon>
                    </g>
                </g>
            </g>
            <g id="g406-Clipped" transform="translate(121.090624, 223.124973)">
                <mask id="mask-37" fill="white">
                    <use xlink:href="#path-36"></use>
                </mask>
                <g id="path408"></g>
                <g id="g406" mask="url(#mask-37)" fill="url(#linearGradient-38)" fill-rule="nonzero">
                    <g id="g414">
                        <polygon id="path422" points="40.4679523 0 0.227659873 40.2499225 40.4679523 80.5057701 80.7023217 40.2499225"></polygon>
                    </g>
                </g>
            </g>
            <g id="g426-Clipped" transform="translate(80.658741, 182.142835)">
                <mask id="mask-40" fill="white">
                    <use xlink:href="#path-39"></use>
                </mask>
                <g id="path428"></g>
                <g id="g426" mask="url(#mask-40)" fill="url(#linearGradient-41)" fill-rule="nonzero">
                    <g id="g434">
                        <polygon id="path442" points="40.6240761 0.163019122 0.389706603 40.4129416 40.6240761 80.662864 80.8643684 40.4129416"></polygon>
                    </g>
                </g>
            </g>
            <g id="g446-Clipped" transform="translate(160.953043, 182.142835)">
                <mask id="mask-43" fill="white">
                    <use xlink:href="#path-42"></use>
                </mask>
                <g id="path448"></g>
                <g id="g446" mask="url(#mask-43)" fill="url(#linearGradient-44)" fill-rule="nonzero">
                    <g id="g454">
                        <polygon id="path462" points="40.3059055 0.163019122 0.0715360592 40.4129416 40.3059055 80.662864 80.5461979 40.4129416"></polygon>
                    </g>
                </g>
            </g>
            <g id="g466-Clipped" transform="translate(121.090624, 142.299090)">
                <mask id="mask-46" fill="white">
                    <use xlink:href="#path-45"></use>
                </mask>
                <g id="path468"></g>
                <g id="g466" mask="url(#mask-46)" fill="url(#linearGradient-47)" fill-rule="nonzero">
                    <g id="g474">
                        <polygon id="path482" points="40.4679523 0.320113037 0.227659873 40.5759607 40.4679523 80.8258832 80.7023217 40.5759607"></polygon>
                    </g>
                </g>
            </g>
        </g>
        <text id="Clients-Portal" font-family="BanglaMN, Bangla MN" font-size="50" font-weight="normal" fill="#124151">
            <tspan x="929.138889" y="355">Clients Portal</tspan>
        </text>
    </g>
</svg>