<?xml version="1.0" encoding="UTF-8"?>
<svg width="451px" height="241px" viewBox="0 0 451 241" version="1.1" xmlns="http://www.w3.org/2000/svg" xmlns:xlink="http://www.w3.org/1999/xlink">
    <!-- Generator: Sketch 61.2 (89653) - https://sketch.com -->
    <title>logo</title>
    <desc>Created with Sketch.</desc>
    <g id="----------➡-1.1-Sign-In" stroke="none" stroke-width="1" fill="none" fill-rule="evenodd">
        <g id="1.1.1_Launch-Screen" transform="translate(-158.000000, -196.000000)" fill="#EBA1AC">
            <g id="Body" transform="translate(111.000000, 196.000000)">
                <g id="logo" transform="translate(47.000000, 0.000000)">
                    <path d="M86.4331298,187.363515 C89.2269482,187.363515 91.3122219,188.614304 92.3286419,190.940315 C92.7210321,191.775386 92.8107213,192.431081 92.8107213,194.452878 L92.8107213,207.914617 C92.8107213,209.428065 92.7436269,210.49688 92.419366,211.42112 C91.3586188,214.193668 89.1260478,215.541764 85.5948808,215.541764 C79.4315085,215.541764 77.2360206,208.55975 77.2360206,202.024273 C77.2360206,196.549473 78.4306116,187.363515 86.4331298,187.363515 M107.994929,216.540456 C106.775674,216.453538 104.983787,216.327316 104.370968,216.116427 C104.284556,215.680279 104.284556,214.673449 104.284556,214.263964 L104.284556,164.626995 C104.284556,163.996406 104.010659,163.396637 103.534962,162.987325 L103.001483,162.526417 C102.523716,162.110699 101.886233,161.92457 101.255994,162.02811 L89.2938701,163.940481 C88.2465763,164.108084 87.4762841,165.013624 87.4762841,166.078284 L87.4762841,167.990655 C87.4762841,169.098947 88.3103936,170.02942 89.4082238,170.143002 L92.278278,170.444965 C92.4862879,170.469724 92.6387595,170.492579 92.750871,170.511106 C92.7817448,170.740521 92.8107213,171.137539 92.8107213,171.813492 L92.8107213,181.173286 C90.925006,180.63152 88.8181724,180.358646 86.5083307,180.358646 C79.9608472,180.358646 74.6997137,182.353779 70.8542896,186.304915 C67.024561,190.328252 65,196.082159 65,202.944185 C65,215.736031 72.0973473,224 83.0801338,224 C86.3610335,224 89.4040843,223.036456 92.7858843,220.859349 C92.8857498,221.303808 93.1237711,221.709138 93.4718341,222.013004 L94.0834454,222.548538 C94.4758357,222.891708 94.9793025,223.081993 95.5003622,223.081993 L107.843492,223.081993 C109.033944,223.081993 110,222.112216 110,220.917179 L110,218.698864 C110,217.561657 109.124668,216.61889 107.994929,216.540456" id="Fill-1"></path>
                    <path d="M132.828832,195.121008 C132.730607,195.135338 132.592441,195.145574 132.406104,195.145574 L120.397445,195.145574 C120.796688,192.102232 122.197896,186.901597 127.106578,186.901597 C132.092916,186.901597 132.836889,191.892234 132.836889,194.868534 C132.836889,194.972424 132.833975,195.055843 132.828832,195.121008 M143.409542,208.35784 L141.137509,207.151762 C140.623584,206.87677 140.017777,206.825763 139.464082,207.007272 C138.909359,207.186563 138.452861,207.583699 138.198984,208.107242 C136.22574,212.179247 133.932107,214.890619 129.150449,214.890619 C126.729792,214.890619 124.871229,214.200067 123.470022,212.778192 C121.46815,210.747307 120.342247,207.13965 120.175453,202.27525 L139.827327,202.27525 C144.327681,202.27525 145,199.144225 145,197.278301 C145,193.224549 143.742273,180 127.559991,180 C115.495105,180 108,188.354008 108,201.800496 C108,209.074834 109.851534,214.582873 113.504376,218.174324 C116.763117,221.376486 121.392381,223 127.262059,223 C127.391997,223 127.524164,223 127.656159,222.997953 C135.944265,222.922722 141.745373,218.750751 144.43002,210.928475 C144.76978,209.938365 144.337966,208.850677 143.409542,208.35784" id="Fill-3"></path>
                    <path d="M184.001635,216.467397 C182.786457,216.380598 181.000564,216.254722 180.389966,216.044121 C180.303672,215.608395 180.303672,214.60294 180.303672,214.194188 L180.303672,182.953163 C180.303672,182.32136 180.027596,181.718433 179.549364,181.309681 L179.01767,180.853206 C178.539438,180.442379 177.907181,180.254429 177.285238,180.361977 L165.363122,182.269834 C164.319331,182.437035 163.551615,183.341339 163.551615,184.404545 L163.551615,186.314477 C163.551615,187.398431 164.351133,188.315184 165.420537,188.45766 L168.259505,188.833387 C168.514952,188.872637 168.690464,188.905662 168.811655,188.934711 C168.840363,189.140989 168.868039,189.506514 168.868039,190.134167 L168.868039,214.194188 C168.868039,215.529895 168.718312,215.843894 168.716249,215.862396 C168.310732,216.181063 166.152325,216.339792 164.501203,216.456504 C162.850941,216.337717 160.692363,216.177605 160.315553,215.874672 C160.295956,215.845796 160.129726,215.544419 160.129726,214.194188 L160.129726,164.624839 C160.129726,163.997186 159.858808,163.400484 159.385561,162.989657 L158.856102,162.529205 C158.376666,162.112153 157.735298,161.922128 157.113184,162.029503 L145.190208,163.939262 C144.146417,164.106636 143.378701,165.01094 143.378701,166.074319 L143.378701,167.984078 C143.378701,169.090683 144.210021,170.019886 145.304179,170.133313 L148.165494,170.434863 C148.370917,170.459588 148.522707,170.480337 148.634616,170.500913 C148.664355,170.730015 148.693062,171.126491 148.693062,171.801693 L148.693062,214.194188 C148.693062,214.642017 148.693062,215.614447 148.61605,216.054322 C147.987059,216.256624 146.21148,216.382673 145.000256,216.467397 C143.873264,216.545724 143,217.487203 143,218.622857 L143,220.838143 C143,222.03172 143.962653,223 145.149123,223 L164.498969,223 L183.850705,223 C185.037175,223 186,222.03172 186,220.838143 L186,218.622857 C186,217.487203 185.127424,216.545724 184.001635,216.467397" id="Fill-5"></path>
                    <path d="M180.998935,168.142937 C181,168.12182 181,168.100703 181,168.079409 C181,163.977096 178.056573,161 174.000444,161 C169.944492,161 167,163.977096 167,168.079409 C167,172.088383 169.944492,175 174.000444,175 C178.00777,175 180.885535,172.179593 180.998935,168.142937" id="Fill-7"></path>
                    <path d="M229,185.403539 L229,183.17472 C229,181.974119 228.023982,181 226.821428,181 L212.194224,181 C210.991496,181 210.015478,181.974119 210.015478,183.17472 L210.015478,185.403539 C210.015478,186.518905 210.8615,187.453711 211.974659,187.567822 L214.870128,187.860753 C214.230253,190.245431 212.892301,194.318639 211.224479,198.952835 L208.03556,207.741125 L203.136301,194.027795 C202.409123,191.942485 201.690135,189.879788 200.979511,187.860753 L203.659771,187.565908 C204.76352,187.443448 205.598913,186.512816 205.598913,185.403539 L205.598913,183.17472 C205.598913,181.974119 204.623069,181 203.420341,181 L186.178572,181 C184.975844,181 184,181.974119 184,183.17472 L184,185.403539 C184,186.533516 184.866584,187.474411 185.99351,187.569909 C188.867022,187.815004 188.867022,187.815004 189.625566,189.682529 C191.42443,194.069369 192.988046,198.392021 194.642276,202.967944 L201.291607,221.556391 C201.60074,222.422487 202.42254,223 203.343319,223 L208.88559,223 C209.79905,223 210.614925,222.430662 210.930157,221.575003 L217.779014,202.988644 C219.94835,197.16237 222.154106,192.133482 223.281903,189.561982 C224.051774,187.767342 224.081921,187.696719 226.915005,187.576171 C228.080267,187.526422 229,186.568828 229,185.403539" id="Fill-9"></path>
                    <path d="M250.829861,195.121008 C250.731636,195.135338 250.593298,195.145574 250.406104,195.145574 L238.396588,195.145574 C238.796688,192.102232 240.197896,186.901597 245.106407,186.901597 C250.092916,186.901597 250.838089,191.892234 250.838089,194.868534 C250.838089,194.972424 250.834832,195.055843 250.829861,195.121008 M261.410742,208.35784 L259.139566,207.151762 C258.623755,206.881035 258.019663,206.825763 257.465111,207.007272 C256.910388,207.186563 256.45389,207.583699 256.200013,208.107242 C254.22574,212.179247 251.931079,214.890619 247.151477,214.890619 C244.729963,214.890619 242.871229,214.200067 241.470022,212.776145 C239.46815,210.74526 238.342247,207.13965 238.176482,202.27525 L257.827327,202.27525 C262.327681,202.27525 263,199.144225 263,197.278301 C263,193.224549 261.742102,180 245.559819,180 C233.494934,180 226,188.354008 226,201.800496 C226,209.074834 227.851534,214.582873 231.504376,218.174324 C234.763117,221.376486 239.392381,223 245.262059,223 C245.391997,223 245.523992,223 245.656159,222.997953 C253.944265,222.922722 259.745373,218.750751 262.43002,210.928475 C262.76978,209.940583 262.337966,208.850677 261.410742,208.35784" id="Fill-11"></path>
                    <path d="M288.664184,180 C285.779969,180 283.466846,181.2798 279.966551,184.122233 L279.62199,181.854177 C279.534659,181.277709 279.216563,180.761711 278.73933,180.418235 C278.261039,180.072843 277.663836,179.937613 277.082512,180.029102 L265.237437,181.951939 C264.172528,182.124636 263.389725,183.033949 263.389725,184.101495 L263.389725,186.026423 C263.389725,187.118889 264.21046,188.042666 265.307831,188.186435 L268.221509,188.564938 C268.482796,188.60467 268.662927,188.637781 268.787131,188.667057 C268.81677,188.875129 268.845175,189.243525 268.845175,189.876106 L268.845175,214.124871 C268.845175,214.495183 268.845175,215.546174 268.748141,215.981139 C268.140529,216.197576 266.298111,216.326532 265.048837,216.416104 C263.894481,216.497137 263,217.446008 263,218.588488 L263,220.821168 C263,222.023943 263.988163,223 265.20568,223 L285.781028,223 C286.998897,223 287.986707,222.023943 287.986707,220.821168 L287.986707,218.588488 C287.986707,217.433636 287.073526,216.478316 285.904173,216.413838 C283.889386,216.301612 281.128317,216.147562 280.713363,215.939315 C280.626914,215.747973 280.582631,215.136303 280.582631,214.124871 L280.582631,196.112518 C280.582631,191.723835 282.22163,190.36091 282.819009,190.36091 C283.640625,190.36091 284.730763,190.772872 286.562595,191.771758 C287.601393,192.352408 288.66736,192.439715 289.210928,192.439715 C292.348844,192.439715 295,189.468152 295,185.949398 C295,182.992474 292.823783,180 288.664184,180" id="Fill-13"></path>
                    <path d="M340.839956,181 L326.186487,181 C324.992951,181 324.026442,181.964238 324.026442,183.152449 L324.026442,185.358093 C324.026442,186.466252 324.871317,187.39537 325.980192,187.500212 L329.127478,187.804409 C328.199153,191.506766 325.390163,199.801689 322.632832,207.504401 C319.997136,200.504769 317.61231,193.983898 315.39836,187.728489 L317.839165,187.502278 C318.950114,187.399502 319.799135,186.470212 319.799135,185.358093 L319.799135,183.152449 C319.799135,181.964238 318.832453,181 317.63909,181 L300.160217,181 C298.966681,181 298,181.964238 298,183.152449 L298,185.358093 C298,186.511529 298.912948,187.461133 300.070374,187.508476 C302.933961,187.627607 302.933961,187.627607 303.967679,190.143818 C307.662837,198.983439 314.020126,215.213139 315.905975,220.615694 C316.252564,221.596286 316.393894,222.467905 316.393894,223.629432 C316.393894,224.977918 315.815095,226.951326 314.754597,229.208445 C314.423558,229.936314 313.939786,230.415248 313.42716,230.524222 C312.955654,230.627171 312.556542,230.388564 312.322258,230.180946 C311.093648,229.08105 309.648551,228.476616 308.250794,228.476616 C304.236864,228.476616 302.1366,231.443183 302.1366,234.372393 C302.1366,236.088947 302.854484,237.764355 304.104863,238.971158 C305.066189,239.896145 306.802413,241 309.615378,241 C313.708784,241 318.941821,239.452158 323.113495,227.378958 C327.68238,214.302613 334.775349,195.494898 337.162421,190.121266 C338.27026,187.668752 338.27026,187.668752 340.968847,187.50641 C342.109859,187.438409 343,186.497068 343,185.358093 L343,183.152449 C343,181.964238 342.033319,181 340.839956,181" id="Fill-15"></path>
                    <path d="M41.6343382,83.6927155 C41.6343382,79.8499413 42.2047565,78.0561752 43.482645,75.4934059 C47.6274322,67.1888951 55.1738959,65.4456601 60.7744292,65.4456601 C65.1339196,65.4456601 79.3571873,67.70783 79.3571873,96.8161294 C79.3571873,112.584576 77.1059892,133.550133 57.6368703,133.550133 C50.3075201,133.550133 44.8405953,129.911208 42.6593005,123.635182 C41.8080635,121.07431 41.6343382,117.935866 41.6343382,114.009793 L41.6343382,83.6927155 Z M53.3338535,177.183954 C49.1303544,176.932851 43.4476933,176.595 41.8789999,175.907226 C41.7166382,175.274984 41.6343382,173.858217 41.6343382,171.683485 L41.6343382,148.494907 C46.4103217,149.732659 52.0940159,150.480105 57.4509204,150.480105 C90.6927231,150.480105 109,131.029444 109,95.7072056 C109,63.4830548 93.9781811,45 67.7881812,45 C56.5010267,45 47.289279,50.3082476 40.1632684,55.0643749 L39.1579341,49.3279798 C38.6624123,46.5015177 35.990761,44.5985839 33.1607079,45.072334 L5.29302736,49.6935969 C2.77254634,50.1116422 0.923034274,52.2944801 0.923034274,54.8543175 L0.923034274,59.4755804 C0.923034274,62.1012979 2.86707083,64.3201802 5.46571965,64.6619977 L12.3635973,65.5682798 C12.9834301,65.6639957 13.4111147,65.7462595 13.7050187,65.8123121 C13.773889,66.3157255 13.8417262,67.1971733 13.8417262,68.7191409 L13.8417262,171.683485 C13.8417262,172.575108 13.8417262,175.097866 13.6115272,176.148153 C12.17231,176.665019 7.81058139,176.975966 4.85105217,177.188093 C2.11758973,177.383836 0,179.661355 0,182.406588 L0,187.76926 C0,190.658498 2.33866341,193 5.22312399,193 L53.0232485,193 C55.9078812,193 58.2465446,190.658498 58.2465446,187.76926 L58.2465446,182.406588 C58.2465446,179.638763 56.0929702,177.348826 53.3338535,177.183954 L53.3338535,177.183954 Z" id="Fill-17"></path>
                    <path d="M445.737816,46.7399084 L410.037153,46.7399084 C407.131122,46.7399084 404.77497,49.0901317 404.77497,51.9888501 L404.77497,57.3660046 C404.77497,60.0704138 406.83502,62.3318744 409.533763,62.5902035 L417.205179,63.328855 C414.936972,72.3701985 408.095231,92.58423 401.380986,111.35591 C394.980709,94.3465082 389.170555,78.4539946 383.755029,63.1449274 L389.701873,62.5922798 C392.407034,62.3401797 394.475237,60.0757777 394.475237,57.3660046 L394.475237,51.9888501 C394.475237,49.0901317 392.119085,46.7399084 389.213053,46.7399084 L346.631273,46.7399084 L329.024918,46.7399084 L328.463764,31.0507013 C328.150836,21.20461 330.286517,18.2148796 330.94828,17.5331539 C331.323134,17.1478232 331.664857,16.9907148 332.128871,16.9907148 C333.245281,16.9907148 335.858333,16.9907148 339.939925,26.4308852 C339.978261,26.5208591 340.020759,26.6106601 340.064298,26.6983847 C342.077514,30.7160675 345.350247,32.7541504 349.792296,32.7541504 C356.733258,32.7541504 364.166335,27.1437557 364.166335,18.791405 C364.166335,9.68188884 354.370861,0 336.21983,0 C324.481566,0 314.009932,5.25309431 308.206022,14.0537576 C303.495625,21.2077245 301.205909,31.4919197 301.205909,45.4960186 L301.205909,46.7399084 L285.203743,46.7399084 L260.647059,46.7399084 L260.086599,31.0517395 C259.774885,21.20461 261.911606,18.2148796 262.573195,17.5331539 C262.947182,17.1478232 263.288905,16.9907148 263.750838,16.9907148 C264.868462,16.9907148 267.484463,16.9907148 271.565014,26.429847 C271.604391,26.5217243 271.645675,26.6116982 271.690255,26.700461 C273.704685,30.7169326 276.977244,32.7541504 281.41513,32.7541504 C288.356265,32.7541504 295.789343,27.1437557 295.789343,18.791405 C295.789343,9.68188884 285.994042,0 267.841624,0 C256.106482,0 245.635888,5.25309431 239.83406,14.0516812 C235.122796,21.1994192 232.831866,31.4856908 232.831866,45.4960186 L232.831866,46.7399084 L223.776039,46.7399084 C220.870007,46.7399084 218.513855,49.0901317 218.513855,51.9888501 L218.513855,57.3660046 C218.513855,60.264723 220.870007,62.6149463 223.776039,62.6149463 L232.831866,62.6149463 L232.831866,126.73315 C232.831866,131.341719 232.81157,131.393108 220.747542,132.22952 C208.653332,131.355907 208.633557,131.307114 208.633557,126.73315 L208.633557,50.8762876 C208.633557,49.3441351 207.962427,47.8886335 206.796233,46.8916529 L205.496472,45.7801286 C204.321952,44.7770921 202.763384,44.3358737 201.244019,44.5817449 L172.049445,49.2181716 C169.495544,49.6232274 167.614681,51.820495 167.614681,54.401017 L167.614681,59.0374437 C167.614681,61.6717771 169.573256,63.8981132 172.192379,64.2408793 L179.142708,65.1501353 C179.766309,65.2461652 180.197192,65.328872 180.492253,65.3949682 C180.561638,65.8989954 180.629983,66.7843736 180.629983,68.3113353 L180.629983,110.03883 C180.629983,115.623616 179.939252,118.323873 179.702994,118.818903 C176.34752,125.507947 169.215922,129.830157 161.535312,129.830157 C150.363579,129.830157 148.018875,121.186602 148.018875,113.935567 L148.018875,50.8762876 C148.018875,49.3441351 147.347746,47.8886335 146.181552,46.8916529 L144.881791,45.7801286 C143.708485,44.7770921 142.151651,44.3358737 140.629337,44.5817449 L111.434764,49.2181716 C108.880863,49.6232274 107,51.820495 107,54.401017 L107,59.0374437 C107,61.6717771 108.958575,63.8981132 111.577697,64.2408793 L118.5282,65.1501353 C119.151627,65.2461652 119.58251,65.328872 119.877571,65.3949682 C119.946957,65.8989954 120.015301,66.7843736 120.015301,68.3113353 L120.015301,117.272216 C120.015301,138.288919 131.556858,150.340583 151.681033,150.340583 C164.183577,150.340583 174.778544,144.49764 181.788024,140.200173 L182.378146,143.731132 C182.800703,146.262168 184.996402,148.115458 187.567996,148.115458 L220.732277,148.115458 L273.236507,148.115458 C276.142712,148.115458 278.498864,145.766273 278.498864,142.867555 L278.498864,137.491438 C278.498864,134.683559 276.281483,132.371575 273.468601,132.247687 C268.929239,132.049399 262.81032,131.778612 261.030239,131.094637 C260.831277,130.127763 260.831277,127.840521 260.831277,126.916904 L260.831277,62.6149463 L285.203743,62.6149463 L301.205909,62.6149463 L301.205909,126.73315 C301.205909,127.824084 301.205909,130.189706 301.016314,131.251745 C299.478388,131.747467 295.126366,132.049399 292.158235,132.25582 C289.400341,132.445803 287.260671,134.733045 287.260671,137.491438 L287.260671,142.867555 C287.260671,145.766273 289.616824,148.115458 292.522681,148.115458 L341.610551,148.115458 C344.516582,148.115458 346.872734,145.766273 346.872734,142.867555 L346.872734,137.491438 C346.872734,134.683559 344.655353,132.371575 341.842471,132.247687 C337.305191,132.049399 331.189567,131.780688 329.408099,131.096886 C329.209483,130.127763 329.209483,127.840521 329.209483,126.916904 L329.209483,62.6149463 L346.532052,62.6149463 C353.386283,62.9011327 353.408659,62.9385064 355.907919,69.0302618 C364.907718,90.5738314 380.39834,130.133992 384.99269,143.311715 C385.837804,145.702253 386.181608,147.830483 386.181608,150.656876 C386.181608,153.948192 384.774127,158.756089 382.189002,164.25194 C381.382224,166.024599 380.2025,167.194088 378.952523,167.460722 C377.788411,167.708496 376.828465,167.130068 376.266097,166.634173 C373.281313,163.950354 369.757752,162.473051 366.344341,162.473051 C356.566559,162.473051 351.451299,169.702458 351.451299,176.842928 C351.451299,181.028966 353.198595,185.115687 356.24652,188.053682 C358.58602,190.309779 362.814709,193 369.667725,193 C379.638051,193 392.386392,189.225247 402.549262,159.801517 C413.674333,127.941742 430.953709,82.0934408 436.775139,68.9807761 C439.474055,62.9992389 439.474055,62.9992389 446.052479,62.6045647 C448.831361,62.4382859 451,60.1427391 451,57.3660046 L451,51.9888501 C451,49.0901317 448.643847,46.7399084 445.737816,46.7399084" id="Fill-19"></path>
                </g>
            </g>
        </g>
    </g>
</svg>